<svg id="圖層_2" data-name="圖層 2" xmlns="http://www.w3.org/2000/svg" xmlns:xlink="http://www.w3.org/1999/xlink" viewBox="0 0 32.26 32.26"><defs><style>.cls-1{fill:#d9d9d9;}.cls-2{fill:#409eff;}.cls-3{mask:url(#mask);}.cls-4{fill:#fff;}</style><mask id="mask" x="5.04" y="5.05" width="22.18" height="22.18" maskUnits="userSpaceOnUse"><g id="mask0_2376_86446" data-name="mask0 2376 86446"><rect class="cls-1" x="5.04" y="5.05" width="22.18" height="22.18"/></g></mask></defs><circle class="cls-2" cx="16.13" cy="16.15" r="16.13"/><g class="cls-3"><path class="cls-4" d="M10.59,25.38a1.86,1.86,0,0,1-1.85-1.85V14.29a1.84,1.84,0,0,1,1.85-1.85h.92V10.59A4.61,4.61,0,0,1,16.13,6a4.61,4.61,0,0,1,4.62,4.62v1.85h.92a1.84,1.84,0,0,1,1.85,1.85v9.24a1.86,1.86,0,0,1-1.85,1.85Zm0-1.85H21.67V14.29H10.59Zm5.54-2.77A1.86,1.86,0,0,0,18,18.91a1.84,1.84,0,0,0-1.85-1.85,1.86,1.86,0,0,0-1.85,1.85,1.88,1.88,0,0,0,1.85,1.85Zm-2.77-8.32H18.9V10.59a2.77,2.77,0,0,0-4.73-2,2.66,2.66,0,0,0-.81,2Z"/></g></svg>