<?xml version="1.0" encoding="utf-8"?>
<!-- Generator: Adobe Illustrator 25.4.1, SVG Export Plug-In . SVG Version: 6.00 Build 0)  -->
<svg version="1.1" id="圖層_2_00000147216247195817254450000010411776266955803286_"
	 xmlns="http://www.w3.org/2000/svg" xmlns:xlink="http://www.w3.org/1999/xlink" x="0px" y="0px" viewBox="0 0 747 716.9"
	 style="enable-background:new 0 0 747 716.9;" xml:space="preserve">
<style type="text/css">
	.st0{clip-path:url(#SVGID_00000102506642140826175070000004188758340464477832_);}
	.st1{fill:#F4EF42;}
	.st2{fill:#409EFF;}
	.st3{fill:url(#SVGID_00000050642360110824630740000009371907182079798955_);}
</style>
<g>
	<defs>
		<rect id="SVGID_1_" y="5.9" width="747" height="711"/>
	</defs>
	<clipPath id="SVGID_00000074441241116752533790000014606468968558787248_">
		<use xlink:href="#SVGID_1_"  style="overflow:visible;"/>
	</clipPath>
	<g style="clip-path:url(#SVGID_00000074441241116752533790000014606468968558787248_);">
		<path class="st1" d="M235.7,5.9C105.5,5.9,0,111.7,0,242.3c0,130.5,105.5,236.4,235.7,236.4c130.2,0,235.7-105.8,235.7-236.4
			C471.3,111.7,365.8,5.9,235.7,5.9z"/>
		<path class="st2" d="M483.9,698.3l258-448.3c14.3-24.8-3.6-55.8-32.1-55.8H193.7c-28.5,0-46.4,31-32.1,55.8l258.1,448.3
			C434,723.1,469.7,723.1,483.9,698.3z"/>
		
			<linearGradient id="SVGID_00000062899164818680168590000011455499162346498699_" gradientUnits="userSpaceOnUse" x1="-67.7241" y1="615.7179" x2="-382.3925" y2="615.7179" gradientTransform="matrix(1 0 0 -1 539.0551 949.0289)">
			<stop  offset="0" style="stop-color:#F4EF42"/>
			<stop  offset="1" style="stop-color:#409EFF"/>
		</linearGradient>
		<path style="fill:url(#SVGID_00000062899164818680168590000011455499162346498699_);" d="M161.7,250.1l128,222.3
			c104.1-24.5,181.7-118.1,181.7-230.1c0-16.5-1.7-32.5-4.9-48H193.8C165.3,194.3,147.4,225.2,161.7,250.1z"/>
	</g>
</g>
</svg>
