<svg id="圖層_3" data-name="圖層 3" xmlns="http://www.w3.org/2000/svg" xmlns:xlink="http://www.w3.org/1999/xlink" viewBox="0 0 381.79 381.25"><defs><style>.cls-1,.cls-12{fill:none;}.cls-2{clip-path:url(#clip-path);}.cls-3{clip-path:url(#clip-path-2);}.cls-4{fill:#fff;}.cls-5{clip-path:url(#clip-path-3);}.cls-6{fill:#9543ff;}.cls-7{fill:#f4ef42;}.cls-11,.cls-8{isolation:isolate;opacity:0.8;}.cls-8{fill:url(#未命名漸層_2);}.cls-9{clip-path:url(#clip-path-4);}.cls-10{fill:#39b54a;}.cls-11{fill:url(#未命名漸層_4);}.cls-12{stroke:#409eff;stroke-width:2px;stroke-dasharray:6 6;}.cls-13{clip-path:url(#clip-path-5);}.cls-14{fill:#f76b7c;}.cls-15{fill:#8f4ef4;}.cls-16{fill:url(#未命名漸層_5);}.cls-17{fill:#c6e2ff;}</style><clipPath id="clip-path"><rect class="cls-1" x="34.82" y="-546.8" width="222.71" height="482.25" rx="18.41"/></clipPath><clipPath id="clip-path-2"><rect class="cls-1" x="34.82" y="-546.8" width="222.75" height="463.5"/></clipPath><clipPath id="clip-path-3"><rect class="cls-1" x="31.51" y="24.94" width="49.34" height="49.34"/></clipPath><linearGradient id="未命名漸層_2" x1="-490.52" y1="103.38" x2="-475.06" y2="93.59" gradientTransform="matrix(1, 0, 0, -1, 539.06, 148.14)" gradientUnits="userSpaceOnUse"><stop offset="0" stop-color="#f4ef42" stop-opacity="0.9"/><stop offset="0.87" stop-color="#9543ff"/></linearGradient><clipPath id="clip-path-4"><rect class="cls-1" x="297.96" y="291.51" width="54.85" height="38.19" transform="translate(-114.93 402.69) rotate(-55.48)"/></clipPath><linearGradient id="未命名漸層_4" x1="-213.1" y1="-161.63" x2="-208.04" y2="-154.27" gradientTransform="matrix(1, 0, 0, -1, 539.06, 148.14)" gradientUnits="userSpaceOnUse"><stop offset="0" stop-color="#f4ef42"/><stop offset="0.2" stop-color="#ebec42"/><stop offset="0.91" stop-color="#39b54a"/></linearGradient><clipPath id="clip-path-5"><rect class="cls-1" x="167.16" y="161.34" width="49.34" height="50.93"/></clipPath><linearGradient id="未命名漸層_5" x1="-355.2" y1="-40.3" x2="-336.01" y2="-40.3" gradientTransform="matrix(1, 0, 0, -1, 539.06, 148.14)" gradientUnits="userSpaceOnUse"><stop offset="0" stop-color="#8f4ef4"/><stop offset="0.87" stop-color="#f76b7c"/></linearGradient></defs><rect class="cls-4" x="0.21" width="117.78" height="117.25" rx="16.45"/><path d="M54.92,90h2.93v1.1H54.92Zm-5.37.79h3.7v1H50.46v5h-.91Zm1.57-2.27h1.13v2.9H51.12Zm1.7,2.27h1v4.9c0,.49-.08.77-.39.92a3.16,3.16,0,0,1-1.41.17,3.84,3.84,0,0,0-.29-1h1c.13,0,.17,0,.17-.16ZM51,92.29h1.43v2.64H51v-.82h.86v-1H51Zm-.21,0h.56v3h-.56Zm3.93-3.79,1.14.21A11.25,11.25,0,0,1,54.33,93a6.22,6.22,0,0,0-.88-.81A9,9,0,0,0,54.75,88.5Zm-5.29.57.91-.27a5,5,0,0,1,.54,1.63l-1,.3A6,6,0,0,0,49.46,89.07Zm5.78,1.81c.41,2.2,1.25,4.14,2.79,5a4.61,4.61,0,0,0-.78,1c-1.64-1.09-2.44-3.22-2.89-5.79ZM53,88.72l1.09.33c-.27.59-.53,1.22-.74,1.66l-.9-.3A11.52,11.52,0,0,0,53,88.72Zm-.69-2.42h1.41v1.45H52.32Zm-3.42.87h8.9V88.3H48.9Zm-.81,0H49.3v3.47a15.89,15.89,0,0,1-1,6.23,5.24,5.24,0,0,0-1-.76,14.24,14.24,0,0,0,.77-5.47Zm8.26,3.39,1.16.13c-.35,2.45-1.14,4.92-3.3,6.17a4.42,4.42,0,0,0-.65-.86C55.48,94.9,56.14,92.71,56.35,90.56ZM59,87.15h9.87v1.21H59Zm4.18-.85h1.39v1.57H63.18Zm-3.81,3H68v1.16H60.65v6.41H59.37Zm7.94,0h1.3v6.13c0,.65-.13,1-.57,1.23a4.92,4.92,0,0,1-2,.24,5,5,0,0,0-.44-1.29c.58,0,1.23,0,1.42,0s.25-.06.25-.21Zm-5.11,1h1.19c-.09,1.35-.47,2.11-2.25,2.51a2.81,2.81,0,0,0-.62-.93C61.91,91.6,62.15,91.16,62.2,90.26Zm2.08,0h1.17v.85c0,.25,0,.27.22.27h.59c.18,0,.22-.08.25-.63a3.36,3.36,0,0,0,1,.39c-.11,1-.4,1.21-1.1,1.21h-.91c-1,0-1.21-.29-1.21-1.21Zm-2.53,2.51h1.19v3.54H61.75Zm.74,0h3.7V95.7h-3.7v-1H65v-1H62.49ZM61,88.34l1.34-.22a6,6,0,0,1,.5,1.16l-1.39.28A6.83,6.83,0,0,0,61,88.34Zm4.39-.24,1.5.23c-.27.49-.51.9-.71,1.2l-1.34-.22A9.25,9.25,0,0,0,65.4,88.1Z"/><g class="cls-5"><path class="cls-6" d="M62.3,58.76H34.54a3,3,0,0,1-3-3V28a3,3,0,0,1,3-3H62.3a3,3,0,0,1,3,3V55.73A3,3,0,0,1,62.3,58.76Z"/><path class="cls-7" d="M77.82,74.28H50.06a3,3,0,0,1-3-3V43.49a3,3,0,0,1,3-3H77.82a3,3,0,0,1,3,3V71.25A3,3,0,0,1,77.82,74.28Z"/><path class="cls-8" d="M50.06,40.46a3,3,0,0,0-3,3V58.75H62.3a3,3,0,0,0,3-3V40.46Z"/></g><rect class="cls-4" x="262.21" y="264" width="117.78" height="117.25" rx="16.45"/><g class="cls-9"><path class="cls-10" d="M309.84,333.2a19.3,19.3,0,1,0-4.8-26.72A19.2,19.2,0,0,0,309.84,333.2Z"/><path class="cls-7" d="M325.3,310.73a13.79,13.79,0,1,0-3.43-19.09A13.73,13.73,0,0,0,325.3,310.73Z"/><path class="cls-11" d="M331.71,301.4a18.85,18.85,0,0,0-12.22-3.27,13.57,13.57,0,0,0,19.65,13.51A18.92,18.92,0,0,0,331.71,301.4Z"/></g><path d="M309.59,355.29H314v1.13h-4.44Zm0,2H314v1.13h-4.45Zm4.34-6.93,1.31.46a20.12,20.12,0,0,1-1.13,2.12l-1.17-.44A12,12,0,0,0,313.92,350.33Zm-5.58.58,1.14-.51a8.16,8.16,0,0,1,1.1,2l-1.22.57A7.7,7.7,0,0,0,308.34,350.91Zm.35,2.29h5.37v1.26H310v6.14h-1.32Zm4.74,0h1.31v5.95c0,.64-.12,1-.54,1.21a4.55,4.55,0,0,1-1.87.22,5.45,5.45,0,0,0-.41-1.26c.52,0,1.11,0,1.28,0s.23,0,.23-.2Zm-2.35-3.14h1.36v4h-1.36Zm-5.76,1,.79-.94a8.77,8.77,0,0,1,2,1.29l-.84,1A9.41,9.41,0,0,0,305.32,351.1Zm-.51,3,.76-1a9,9,0,0,1,2.06,1.29l-.8,1.06A9.38,9.38,0,0,0,304.81,354.09Zm.31,5.6a33.39,33.39,0,0,0,1.93-3.59l1,.8c-.51,1.22-1.14,2.52-1.74,3.65Zm12.62-7.89h6.68v-.44h-7.49v-.8h8.71v2h-7.9Zm-.4,0h1.26c-.23.73-.51,1.56-.74,2.12l-1.22-.08A18.68,18.68,0,0,0,317.34,351.8Zm.13,1.22h8.07v.8h-8.32Zm7.63,0h1.26s0,.22,0,.36a2.47,2.47,0,0,1-.32,1.34,1,1,0,0,1-.65.28,10.17,10.17,0,0,1-1.06,0,2.71,2.71,0,0,0-.24-.8,6.29,6.29,0,0,0,.63,0,.26.26,0,0,0,.23-.08,2.28,2.28,0,0,0,.16-1Zm-5.61-2.95h1.22v2.32c0,1.6-.54,2.81-3.87,3.3a4.11,4.11,0,0,0-.64-1c2.88-.38,3.29-1.19,3.29-2.3Zm2.48,0h1.28v4.52H322Zm-3,6.42V357h4.85v-.46Zm0,1.18v.46h4.85v-.46Zm0-2.35v.45h4.85v-.45Zm-1.3-.76h7.52v4.33h-7.52Zm4.3,4.87,1.09-.67c1.2.37,2.6.87,3.41,1.22l-1.5.65A20.81,20.81,0,0,0,322,359.43Zm-2.47-.67,1.2.55a14.69,14.69,0,0,1-3.51,1.34,9,9,0,0,0-1-1A12.59,12.59,0,0,0,319.51,358.76Zm8.05-5.29h10.1v1.19h-10.1Zm1-2.19H335v1.17h-6.42Zm2,6.11h5v1h-5Zm0,1.76h5v1.13h-5Zm.68-9.08h1.32v4.06h-1.32Zm4.93.32,1.16.6a19.8,19.8,0,0,1-9.26,6.66,7.13,7.13,0,0,0-.81-1.13A17.19,17.19,0,0,0,336.12,350.39Zm-6.36,5.17h6.62v5H335v-3.92h-3.87v4h-1.35Z"/><path class="cls-12" d="M255.71,334H91.21a40,40,0,0,1-40-40V131.5"/><path class="cls-12" d="M136.21,43h164.5a40,40,0,0,1,40,40V245.5"/><rect class="cls-4" x="133.21" y="138" width="117.78" height="117.25" rx="16.45"/><path d="M182,228h8.85V229H182Zm-.76-2.89h9.06v1H181.2Zm2.74,4.84h6.22v1h-6.22Zm-.19,1.76h6.08v1h-6.08Zm-1,1.89h7.93v1.09h-7.93Zm2.18-9.24h1.34v1.57H185Zm1.14,4.85h1.32V234h-1.32ZM181.28,228h1.32v1.88a9.23,9.23,0,0,1-1.26,5.15,5.81,5.81,0,0,0-1.06-.85,7.54,7.54,0,0,0,1-4.31Zm2.64,1.08,1.18.29a6.94,6.94,0,0,1-1.52,2.49,6.09,6.09,0,0,0-1-.71A4.91,4.91,0,0,0,183.92,229Zm-1.17-2.48.85-.62a51,51,0,0,1,5.46,1.53l-.82.7A39.47,39.47,0,0,0,182.75,226.55Zm5-.78.9.48a17.27,17.27,0,0,1-5.87,1.93,5.5,5.5,0,0,0-.47-.81A16.31,16.31,0,0,0,187.78,225.77Zm7.16.26v1.51h4V226Zm-1.3-1.28h6.64v4.07h-6.64Zm-1.54,5h4.29v5h-1.34V231h-1.68v3.8H192.1Zm5.25,0h4.44v5h-1.36V231h-1.79v3.8h-1.29ZM192.67,233h2.94v1.29h-2.94Zm5.29,0h3.15v1.29H198Z"/><g class="cls-13"><path class="cls-14" d="M185.11,197.43a18,18,0,1,0-18-18A18,18,0,0,0,185.11,197.43Z"/><path class="cls-15" d="M213.58,212.28h-26.8a2.94,2.94,0,0,1-2.92-2.94V182.4a2.94,2.94,0,0,1,2.92-2.94h26.8a2.93,2.93,0,0,1,2.92,2.94v26.94A2.93,2.93,0,0,1,213.58,212.28Z"/><path class="cls-16" d="M185.11,197.43a18,18,0,0,0,17.94-18H186.78a2.93,2.93,0,0,0-2.92,2.94v15C184.27,197.41,184.69,197.43,185.11,197.43Z"/></g><path d="M190,120.21a1,1,0,0,0,1.41,0l6.37-6.37a1,1,0,0,0,0-1.41,1,1,0,0,0-1.42,0l-5.65,5.66-5.66-5.66a1,1,0,0,0-1.42,0,1,1,0,0,0,0,1.41ZM135.21,61h15.5V59h-15.5Zm54.5,39v19.5h2V100Zm-39-39a39,39,0,0,1,39,39h2a41,41,0,0,0-41-41Z"/><path d="M324,252.21a1,1,0,0,0,1.41,0l6.37-6.37a1,1,0,0,0,0-1.41,1,1,0,0,0-1.42,0l-5.65,5.66-5.66-5.66a1,1,0,0,0-1.42,0,1,1,0,0,0,0,1.41ZM269.21,193h15.5v-2h-15.5Zm54.5,39v19.5h2V232Zm-39-39a39,39,0,0,1,39,39h2a41,41,0,0,0-41-41Z"/><rect class="cls-17" x="-0.79" y="308" width="112.59" height="35.77" rx="17.89"/><path d="M14.64,328.08h7.43v.64H14.64Zm0-1.52h8v3.7H14.66v-.69h7v-2.34h-7Zm3.18.33h.89v3.75c0,.42.15.51.95.51h2.76c.67,0,.79-.22.85-1.48a2.16,2.16,0,0,0,.82.32c-.14,1.52-.43,1.9-1.6,1.9H19.63c-1.39,0-1.79-.25-1.79-1.26Zm-3.66-.33h.89v4.34h-.89Zm-.35-5.45H22.9v.73H13.83ZM14.6,324h2.63v.6H14.6Zm-.25,1.28h2.9v.58h-2.9Zm5.09,0h3v.58h-3Zm0-1.28h2.68v.6H19.44Zm-1.56-2.55h.9v4.74h-.9Zm-4.77,1.2H23.65V325h-.88v-1.74H14V325h-.85Zm17.41,4.58H36v4.75h-.94V328H31.41v4h-.89Zm4.94-6.4.67.78a31.26,31.26,0,0,1-5.76.89,3.62,3.62,0,0,0-.27-.78A29,29,0,0,0,35.46,320.78Zm-2.74,1h.94v5.88h-.94Zm-2.93,2.47h6.79v.88H29.79Zm1.31,6.33h4.43v.84H31.1Zm-5.43-6.12h3.64v.73H25.67Zm.07-3.39h3.55v.75H25.74Zm-.07,5.08h3.64v.74H25.67Zm-.58-3.41h4.62v.77H25.09Zm1.05,5.11h3.2v3.62h-3.2v-.77h2.38v-2.07H26.14Zm-.48,0h.8V332h-.8Zm11.72,4.48,3.1-10.85h1.29l-3.11,10.85Zm7.87-1.13a3.18,3.18,0,0,1-1.61-.4,2.89,2.89,0,0,1-1.09-1.13,3.36,3.36,0,0,1-.4-1.67,3.55,3.55,0,0,1,.39-1.7,2.79,2.79,0,0,1,1.09-1.14,3.15,3.15,0,0,1,1.64-.41,2.9,2.9,0,0,1,1.57.41,2.72,2.72,0,0,1,1,1.06,3,3,0,0,1,.38,1.48c0,.08,0,.17,0,.27s0,.2,0,.31H43.44A1.94,1.94,0,0,0,44,329.6a1.83,1.83,0,0,0,1.22.46,1.65,1.65,0,0,0,.93-.25,1.51,1.51,0,0,0,.57-.7h1.32a2.86,2.86,0,0,1-1,1.46A2.9,2.9,0,0,1,45.25,331.15Zm0-5.37a1.87,1.87,0,0,0-1.16.39,1.68,1.68,0,0,0-.62,1.17h3.47a1.53,1.53,0,0,0-.51-1.14A1.71,1.71,0,0,0,45.25,325.78ZM49.66,331v-6.15h1.16l.12.86a2.06,2.06,0,0,1,.78-.74,2.34,2.34,0,0,1,1.14-.27,2.07,2.07,0,0,1,2,1.15,2.34,2.34,0,0,1,.9-.84A2.5,2.5,0,0,1,57,324.7a2.4,2.4,0,0,1,1.81.69,2.92,2.92,0,0,1,.65,2.07V331H58.17v-3.4c0-1.19-.46-1.79-1.37-1.79a1.46,1.46,0,0,0-1.14.52,2.28,2.28,0,0,0-.43,1.49V331H53.91v-3.4c0-1.19-.46-1.79-1.37-1.79a1.43,1.43,0,0,0-1.13.52,2.28,2.28,0,0,0-.44,1.49V331Zm13.48.15a2.87,2.87,0,0,1-1.29-.26,1.75,1.75,0,0,1-1-1.63,1.68,1.68,0,0,1,.69-1.41,3.27,3.27,0,0,1,2-.52h1.61v-.11a1.4,1.4,0,0,0-.39-1.08,1.44,1.44,0,0,0-1-.36,1.74,1.74,0,0,0-1,.27,1.1,1.1,0,0,0-.48.78H61a2.09,2.09,0,0,1,.44-1.14,2.56,2.56,0,0,1,1-.73,3.25,3.25,0,0,1,1.33-.26,2.74,2.74,0,0,1,2,.68,2.43,2.43,0,0,1,.71,1.84V331H65.32L65.2,330a2.15,2.15,0,0,1-2.06,1.2Zm.27-1.07a1.51,1.51,0,0,0,.89-.25,1.64,1.64,0,0,0,.57-.68,2.57,2.57,0,0,0,.26-.93H63.67a1.78,1.78,0,0,0-1.12.27.86.86,0,0,0-.32.69.81.81,0,0,0,.31.67A1.47,1.47,0,0,0,63.41,330.08Zm5.36-6.4a.89.89,0,0,1-.62-.22.78.78,0,0,1-.23-.59.74.74,0,0,1,.23-.57.85.85,0,0,1,.62-.23.81.81,0,0,1,.61.23.72.72,0,0,1,.25.57.76.76,0,0,1-.25.59A.85.85,0,0,1,68.77,323.68ZM68.11,331v-6.15h1.32V331Zm3.09,0v-8.93h1.32V331Zm9.09-5.62h4.06v.77H80.29Zm-.47-4.22h4.44V322H80.67v10h-.85Zm4,0h.87v2.4c0,.46-.1.7-.48.84a6.79,6.79,0,0,1-2,.15,2.77,2.77,0,0,0-.29-.82c.77,0,1.42,0,1.61,0s.25-.06.25-.2Zm-2.31,4.73a8.52,8.52,0,0,0,3.94,5.35,4.22,4.22,0,0,0-.65.75c-1.91-1.08-3.29-3.34-4-5.92Zm2.56-.51h.17l.17-.05.57.21a9.8,9.8,0,0,1-3.7,6.48,3.08,3.08,0,0,0-.62-.63,8.7,8.7,0,0,0,3.41-5.81Zm-9.71-3.52H79v.8h-4.6Zm-.15,6.78h4.91v.81H74.2Zm-.3-4.74h5.52v.81H73.9Zm.17,2.58h5.2v.81h-5.2Zm2.19-5.88h.86v3.59h-.86Zm0,6.22h.86V332h-.86Zm1.67-2.16.8.21c-.25.6-.49,1.24-.72,1.68l-.7-.22A13.92,13.92,0,0,0,77.93,324.66Zm-3.16.2.7-.18a5.9,5.9,0,0,1,.59,1.67l-.75.21A6.9,6.9,0,0,0,74.77,324.86Zm19.71,1.36.72.29A8.08,8.08,0,0,1,92,328.33a2.76,2.76,0,0,0-.54-.54A8,8,0,0,0,94.48,326.22Zm1.19,1.19.71.3A9.24,9.24,0,0,1,92.11,330a4.42,4.42,0,0,0-.48-.61A8.55,8.55,0,0,0,95.67,327.41Zm1.17,1.36.79.34c-1.22,1.48-3.57,2.37-6.2,2.83a3,3,0,0,0-.48-.74C93.44,330.84,95.72,330.05,96.84,328.77Zm-4-8.19.87.21a10.84,10.84,0,0,1-2.57,3.79,5,5,0,0,0-.7-.55A8.79,8.79,0,0,0,92.83,320.58Zm-.27,1.35h5v.78H92.09Zm3.35.17.88.22c-1,2.35-3.14,3.69-5.71,4.49a4.65,4.65,0,0,0-.56-.74C93,325.43,95.07,324.21,95.91,322.1Zm-3.44.31c.76,1.49,2.63,3,5.54,3.54a3,3,0,0,0-.51.75,8.25,8.25,0,0,1-5.6-3.83Zm-2.79-.36h.82v7.88h-.82Zm-1-1.4.87.25a17.86,17.86,0,0,1-3,5.77,6,6,0,0,0-.48-.94A14.81,14.81,0,0,0,88.71,320.65Zm-1,3,.87-.85,0,0V332h-.89Z"/><rect class="cls-17" x="269.21" y="32" width="112.59" height="35.77" rx="17.89"/><path d="M288.52,51.76h3.57v.72H288Zm3.29,0H292l.19,0,.55.33c-1.11,2.3-3.59,3.43-6.32,4a3.68,3.68,0,0,0-.48-.81c2.63-.42,5-1.39,5.87-3.3Zm-3.38.5c.92,1.54,2.92,2.57,5.32,2.93a3.13,3.13,0,0,0-.58.82,7.86,7.86,0,0,1-5.52-3.5Zm-.19-2.77v.84h3.63v-.84Zm0-1.43v.82h3.63v-.82Zm-.85-.64h5.36V51h-5.36Zm.36-1.59h5.76v.8h-5.76Zm.28-1.25.9.15a11.11,11.11,0,0,1-2.15,3.53,2.61,2.61,0,0,0-.67-.53A8.53,8.53,0,0,0,288,44.58Zm1,6.11.92.18a9.62,9.62,0,0,1-3.29,3.06,2.71,2.71,0,0,0-.62-.6A7.92,7.92,0,0,0,289,50.69Zm-5.09,0,.85-1V56h-.85ZM282.33,47h3.37v.82h-3.37Zm1.54-2.3h.84v2.74h-.84Zm.76,5.06c.33.35,1.51,1.8,1.77,2.16l-.55.64a22.75,22.75,0,0,0-1.69-2.4Zm.75-2.76h.17l.16-.05.49.31a13.87,13.87,0,0,1-3.69,5.71,3.69,3.69,0,0,0-.48-.8,11.51,11.51,0,0,0,3.35-5Zm.71,2.26.54.39a14.74,14.74,0,0,1-1.05,1.52l-.44-.34A14.9,14.9,0,0,0,286.09,49.21ZM295.94,47l.78.15a7.68,7.68,0,0,1-1.56,3.47,5.27,5.27,0,0,0-.61-.53A6.35,6.35,0,0,0,295.94,47Zm-1.18,4.28h5.51v.82h-5.51Zm0-5.35h5.51v.85h-5.51Zm2.36,4.41H298V56h-.88Zm0-5.71H298v1.77h-.88Zm.78,7.73c.44.31,1.93,1.56,2.29,1.89l-.55.72c-.45-.51-1.73-1.73-2.23-2.15Zm-.88-.73.66.37A10.2,10.2,0,0,1,295,55.43a3.87,3.87,0,0,0-.51-.78A7.82,7.82,0,0,0,297,51.59ZM298.38,47l.77.13a5.93,5.93,0,0,1-1.59,3.33,3.66,3.66,0,0,0-.62-.53A4.86,4.86,0,0,0,298.38,47Zm-2.6,1.55.43-.49a6,6,0,0,1,1.07,1.08l-.45.56A8.24,8.24,0,0,0,295.78,48.5Zm2.44.17.48-.52a14,14,0,0,1,1.49,1.56l-.49.6A13.26,13.26,0,0,0,298.22,48.67Zm2.94.8h4.67v.8h-4.67Zm0,2.49h4.67v.82h-4.67Zm0,2.53h4.91v.87h-4.91Zm.55-9.9.87.2a16.07,16.07,0,0,1-2.19,4.9,4.77,4.77,0,0,0-.71-.6A13,13,0,0,0,301.69,44.59Zm2.3.12.91.22c-.34.88-.74,1.89-1.07,2.54l-.76-.21A17.52,17.52,0,0,0,304,44.71ZM301.71,47h4.2v.84h-4.2V56h-.85V47.83l.82-.88Zm1.56.38h.84v7.61h-.84Zm4.91-.75H312v8.11h-3.78v-.84h2.91V47.41h-2.91Zm-.55,0h.86v9.1h-.86Zm.49,3.44h3.43v.84h-3.43Zm1.4-5.47,1,.19c-.25.77-.56,1.62-.81,2.18l-.74-.18A14.3,14.3,0,0,0,309.52,44.55Zm4.2,2h3.81v.87h-3.81Zm3.48,0h.87V47c-.2,5.7-.37,7.62-.87,8.23a1.21,1.21,0,0,1-1,.51,13,13,0,0,1-1.85,0,1.94,1.94,0,0,0-.31-.9c.81.06,1.55.07,1.84.07a.57.57,0,0,0,.53-.2c.41-.44.61-2.5.78-8Zm-3.22-2,.89.21a14.74,14.74,0,0,1-2.05,4.85,4.53,4.53,0,0,0-.77-.53A12.31,12.31,0,0,0,314,44.53Zm-.57,5.23.72-.42a24.39,24.39,0,0,1,2,2.82l-.8.49A22.89,22.89,0,0,0,313.41,49.76Zm13-.91h.94V56h-.94Zm-3.62,1.82h8v.86h-8Zm4.82.33a9.56,9.56,0,0,0,3.55,3.74,5.8,5.8,0,0,0-.66.73,11.36,11.36,0,0,1-3.61-4.19Zm-1.41-.06.73.28a10.55,10.55,0,0,1-3.85,4.23,5.67,5.67,0,0,0-.64-.74A9.29,9.29,0,0,0,326.2,50.94ZM324.6,46v2.28h4.63V46Zm-.88-.83h6.42v3.95h-6.42Zm-1.29-.55.88.27a18.08,18.08,0,0,1-3.5,5.56,6.75,6.75,0,0,0-.53-.92A14,14,0,0,0,322.43,44.62Zm-1.29,3.2.88-.88h0v9h-.89Zm13.12.17h6.89v.77h-6.89Zm2.94-1.43h.9v4.06h-.9Zm-1.3,4.36v1.8h3.57v-1.8Zm-.83-.73h5.27v3.26h-5.27Zm-2.53-5h10.25V56h-1V46h-8.35V56h-.93Zm.53,9.4h9.15v.86h-9.15ZM347.79,48h4.6v.81h-4.6Zm-3.09,6.89h10.8v.78H344.7Zm.74-9.87h3.67v.78h-3.67Zm3.38,0H349l.17-.05.6.31a9.84,9.84,0,0,1-5,5.08,3.61,3.61,0,0,0-.56-.69,8.86,8.86,0,0,0,4.61-4.47Zm2.09-.44a9.68,9.68,0,0,0,5,4.86,3.37,3.37,0,0,0-.63.77,10.83,10.83,0,0,1-5.15-5.37Zm-5.8,2.19.49-.51a7.17,7.17,0,0,1,1.79,1.39l-.52.57A8.9,8.9,0,0,0,345.11,46.81Zm8.3-2.12.7.5A20,20,0,0,1,352,46.9l-.57-.45A15.54,15.54,0,0,0,353.41,44.69Zm1.39,1.46.69.5a15.42,15.42,0,0,1-2.23,1.71l-.57-.44A14,14,0,0,0,354.8,46.15Zm-7.24,4.48v1.64h5V50.63Zm-.91-.77h6.89V53h-6.89Zm.72,3.38.85-.24a7.06,7.06,0,0,1,.8,1.75l-.89.27A7.37,7.37,0,0,0,347.37,53.24ZM352,53l.91.24c-.34.66-.71,1.34-1,1.83l-.79-.24A11.1,11.1,0,0,0,352,53Zm7.17-7.64h3.51v1h-3.51Zm3,0h1c0,2.23.27,6.94,5.17,9.84a5.72,5.72,0,0,0-.76.79C362.6,53,362.19,47.67,362.19,45.33Zm-.35,2.44,1.06.2c-.89,3.78-2.53,6.4-5.27,8a7,7,0,0,0-.85-.76C359.54,53.78,361.09,51.28,361.84,47.77Z"/></svg>