<svg id="圖層_2" data-name="圖層 2" xmlns="http://www.w3.org/2000/svg" viewBox="0 0 33.33 33.33"><defs><style>.cls-1{fill:#409eff;}</style></defs><path class="cls-1" d="M23.33,21.67a5,5,0,0,1-5-5,5,5,0,0,1,8.55-3.55,4.85,4.85,0,0,1,1.45,3.55,5,5,0,0,1-5,5Zm-10,11.66V28.5a3.43,3.43,0,0,1,.42-1.65,3.29,3.29,0,0,1,1.17-1.23,16.36,16.36,0,0,1,2.81-1.31,18.58,18.58,0,0,1,3-.77l2.58,3.13,2.59-3.13a18.35,18.35,0,0,1,3,.77,16.89,16.89,0,0,1,2.79,1.31,3.51,3.51,0,0,1,1.19,1.23,3.33,3.33,0,0,1,.43,1.65v4.83ZM10,28.5V30H3.33A3.22,3.22,0,0,1,1,29a3.22,3.22,0,0,1-1-2.35V3.33A3.22,3.22,0,0,1,1,1,3.22,3.22,0,0,1,3.33,0H26.67A3.22,3.22,0,0,1,29,1a3.22,3.22,0,0,1,1,2.35v8.34a9.07,9.07,0,0,0-2.92-2.48,7.92,7.92,0,0,0-3.75-.86V6.67H6.67V10H18.33a9.67,9.67,0,0,0-1.5,1.5,9,9,0,0,0-1.12,1.83h-9v3.34H15a7.53,7.53,0,0,0,.19,1.71A9.54,9.54,0,0,0,15.71,20h-9v3.33h5.75a6.87,6.87,0,0,0-1.77,2.32A6.53,6.53,0,0,0,10,28.5Z"/></svg>