<svg id="圖層_2" data-name="圖層 2" xmlns="http://www.w3.org/2000/svg" viewBox="0 0 79.88 79.52"><defs><style>.cls-1{fill:#fff;}.cls-2{fill:#409eff;}</style></defs><path class="cls-1" d="M11.15.47H68.73A11.12,11.12,0,0,1,79.88,11.56V68.43A11.12,11.12,0,0,1,68.73,79.52H11.15A11.12,11.12,0,0,1,0,68.43V11.56A11.12,11.12,0,0,1,11.15.47Z"/><path d="M20.67,60.56a3.33,3.33,0,0,1-1.31-.25,2.19,2.19,0,0,1-.89-.72,2.08,2.08,0,0,1-.33-1.16h1.29a1.1,1.1,0,0,0,.34.79,1.4,1.4,0,0,0,1.66.09.79.79,0,0,0,.29-.63.84.84,0,0,0-.26-.64,2,2,0,0,0-.67-.37l-.9-.3a3.07,3.07,0,0,1-1.19-.69,1.53,1.53,0,0,1-.4-1.11,1.69,1.69,0,0,1,.28-1,2,2,0,0,1,.8-.66,3.12,3.12,0,0,1,2.35,0,1.89,1.89,0,0,1,.8.67,1.84,1.84,0,0,1,.32,1H21.54a.89.89,0,0,0-.28-.62,1,1,0,0,0-.73-.28,1.1,1.1,0,0,0-.68.2.7.7,0,0,0-.27.59.72.72,0,0,0,.21.54,2,2,0,0,0,.58.32l.83.29a4.72,4.72,0,0,1,.91.4,1.74,1.74,0,0,1,.66.6,1.68,1.68,0,0,1,.25,1,1.87,1.87,0,0,1-.27,1,2,2,0,0,1-.79.72A2.8,2.8,0,0,1,20.67,60.56Zm5.75,0a2.57,2.57,0,0,1-1.29-.32,2.37,2.37,0,0,1-.88-.87,2.62,2.62,0,0,1-.31-1.29,2.55,2.55,0,0,1,.31-1.28,2.32,2.32,0,0,1,.88-.88,2.57,2.57,0,0,1,1.29-.31,2.51,2.51,0,0,1,1.53.47,2.09,2.09,0,0,1,.79,1.3H27.45a.92.92,0,0,0-.38-.54,1.17,1.17,0,0,0-1.53.19,1.5,1.5,0,0,0-.35,1,1.54,1.54,0,0,0,.35,1.06,1.17,1.17,0,0,0,.87.38,1.14,1.14,0,0,0,.66-.19.92.92,0,0,0,.38-.54h1.29A2.13,2.13,0,0,1,28,60.07,2.46,2.46,0,0,1,26.42,60.56Zm5.08,0a2.42,2.42,0,0,1-1-.19,1.37,1.37,0,0,1-.58-.53,1.39,1.39,0,0,1,.32-1.78,2.49,2.49,0,0,1,1.55-.41H33v-.11a.85.85,0,0,0-.28-.71A1,1,0,0,0,32,56.6a1.18,1.18,0,0,0-.65.18.72.72,0,0,0-.34.51h-1.2a1.7,1.7,0,0,1,.34-.89,1.92,1.92,0,0,1,.79-.58A2.65,2.65,0,0,1,32,55.61a2.39,2.39,0,0,1,1.6.5,1.79,1.79,0,0,1,.59,1.43v2.9h-1l-.11-.76a1.8,1.8,0,0,1-.6.63A1.75,1.75,0,0,1,31.5,60.56Zm.27-1a1,1,0,0,0,.82-.34,1.61,1.61,0,0,0,.37-.85h-1a1.07,1.07,0,0,0-.7.19A.51.51,0,0,0,31,59a.49.49,0,0,0,.21.43A.92.92,0,0,0,31.77,59.6Zm3.64.84V55.72H36.5l.09.8a1.76,1.76,0,0,1,.63-.67,2,2,0,0,1,1-.24,1.73,1.73,0,0,1,1.37.55,2.41,2.41,0,0,1,.49,1.62v2.66H38.84V57.89a1.47,1.47,0,0,0-.25-.93.89.89,0,0,0-.77-.32A1.13,1.13,0,0,0,37,57a1.47,1.47,0,0,0-.32,1v2.43ZM41.93,55a.82.82,0,0,1-.56-.2.66.66,0,0,1-.21-.51.64.64,0,0,1,.21-.49.82.82,0,0,1,.56-.2.77.77,0,0,1,.54.2.61.61,0,0,1,.22.49.64.64,0,0,1-.22.51A.77.77,0,0,1,41.93,55Zm-.62,5.45V55.72h1.23v4.72Zm6.31,2.1V59.77a2.18,2.18,0,0,1-.61.55,1.8,1.8,0,0,1-1,.24,2.21,2.21,0,0,1-1.2-.33,2.34,2.34,0,0,1-.83-.88,2.69,2.69,0,0,1-.31-1.28A2.58,2.58,0,0,1,44,56.81a2.24,2.24,0,0,1,2-1.2,2,2,0,0,1,.94.2,1.68,1.68,0,0,1,.65.56l.13-.65h1.1v6.82Zm-1.33-3a1.3,1.3,0,0,0,1-.39,1.45,1.45,0,0,0,.38-1,1.41,1.41,0,0,0-.38-1,1.39,1.39,0,0,0-1.94,0,1.41,1.41,0,0,0-.38,1,1.45,1.45,0,0,0,.38,1A1.28,1.28,0,0,0,46.29,59.49Zm5.61,1.07A1.76,1.76,0,0,1,50.52,60a2.36,2.36,0,0,1-.47-1.61V55.72h1.21v2.55a1.45,1.45,0,0,0,.25.93.93.93,0,0,0,.79.33,1.08,1.08,0,0,0,.83-.36,1.45,1.45,0,0,0,.33-1V55.72h1.23v4.72H53.61l-.1-.8a1.72,1.72,0,0,1-.64.67A1.89,1.89,0,0,1,51.9,60.56Zm6.38,0A2.62,2.62,0,0,1,57,60.25a2.22,2.22,0,0,1-.87-.85,2.56,2.56,0,0,1-.32-1.28,2.63,2.63,0,0,1,.31-1.3,2.3,2.3,0,0,1,.86-.89,2.58,2.58,0,0,1,1.3-.32,2.5,2.5,0,0,1,1.24.3,2.23,2.23,0,0,1,.83.84,2.32,2.32,0,0,1,.31,1.17c0,.07,0,.14,0,.22s0,.15,0,.24H57a1.21,1.21,0,0,0,.38.86,1.25,1.25,0,0,0,.85.32,1.23,1.23,0,0,0,.63-.16,1.14,1.14,0,0,0,.38-.44h1.24a2.28,2.28,0,0,1-.45.82,2.17,2.17,0,0,1-.76.57A2.4,2.4,0,0,1,58.28,60.56Zm0-4a1.28,1.28,0,0,0-.79.25,1.15,1.15,0,0,0-.44.77h2.36a1,1,0,0,0-.34-.75A1.17,1.17,0,0,0,58.29,56.6Zm-24.62,14V64.89h-2v-1h5.14v1h-2v5.69Zm4.92.11a2.23,2.23,0,0,1-1-.19A1.44,1.44,0,0,1,37,70a1.49,1.49,0,0,1-.19-.72,1.28,1.28,0,0,1,.52-1.06,2.41,2.41,0,0,1,1.55-.41h1.21v-.12a.88.88,0,0,0-.28-.71,1.08,1.08,0,0,0-.69-.23,1.15,1.15,0,0,0-.65.18.77.77,0,0,0-.35.52H36.93a1.65,1.65,0,0,1,.34-.9,2,2,0,0,1,.79-.58,2.62,2.62,0,0,1,1.07-.21,2.35,2.35,0,0,1,1.6.51,1.76,1.76,0,0,1,.58,1.42v2.91h-1l-.12-.77a1.62,1.62,0,0,1-.59.63A1.68,1.68,0,0,1,38.59,70.69Zm.28-1a1,1,0,0,0,.81-.34,1.62,1.62,0,0,0,.38-.85H39a1.06,1.06,0,0,0-.69.18.53.53,0,0,0-.21.43.52.52,0,0,0,.21.43A.92.92,0,0,0,38.87,69.74Zm5.65-.57a2.61,2.61,0,0,1-.64-.08l-.35.35a1.49,1.49,0,0,0,.44.15c.18,0,.48.07.9.11a2.48,2.48,0,0,1,1.37.45,1.23,1.23,0,0,1,.44,1,1.51,1.51,0,0,1-.23.79,1.72,1.72,0,0,1-.71.61,2.9,2.9,0,0,1-1.23.23,3.06,3.06,0,0,1-1.64-.38,1.22,1.22,0,0,1-.62-1.12,1.37,1.37,0,0,1,.62-1.1,3.27,3.27,0,0,1-.33-.18,2.54,2.54,0,0,1-.24-.2v-.22l.83-.88a1.57,1.57,0,0,1-.55-1.25,1.61,1.61,0,0,1,.23-.86,1.67,1.67,0,0,1,.67-.62,2.19,2.19,0,0,1,1-.23,2.27,2.27,0,0,1,.75.12h1.8v.74l-.82.06a1.63,1.63,0,0,1,.2.79,1.71,1.71,0,0,1-.23.87,1.67,1.67,0,0,1-.67.62A2.21,2.21,0,0,1,44.52,69.17Zm0-.94a.93.93,0,0,0,.61-.19.79.79,0,0,0,0-1.15.93.93,0,0,0-.61-.2,1,1,0,0,0-.63.2.81.81,0,0,0,0,1.15A1,1,0,0,0,44.52,68.23Zm-1.15,2.93a.55.55,0,0,0,.33.52,1.67,1.67,0,0,0,.81.18,1.3,1.3,0,0,0,.75-.19.57.57,0,0,0,.29-.49.54.54,0,0,0-.2-.43,1.15,1.15,0,0,0-.73-.21,7.28,7.28,0,0,1-.73-.09,1,1,0,0,0-.4.34A.65.65,0,0,0,43.37,71.16Z"/><path d="M26.63,25.57H51.8a2.87,2.87,0,0,1,2.88,2.86V43.21a2.87,2.87,0,0,1-2.88,2.86H26.63a2.87,2.87,0,0,1-2.88-2.86V28.43A2.87,2.87,0,0,1,26.63,25.57Z"/><path class="cls-2" d="M26.63,13.62H51.8a2.87,2.87,0,0,1,2.88,2.86V31.25a2.87,2.87,0,0,1-2.88,2.86H26.63a2.87,2.87,0,0,1-2.88-2.86V16.48A2.87,2.87,0,0,1,26.63,13.62Z"/></svg>