<svg id="圖層_2" data-name="圖層 2" xmlns="http://www.w3.org/2000/svg" xmlns:xlink="http://www.w3.org/1999/xlink" viewBox="0 0 79.88 79.52"><defs><style>.cls-1{fill:none;}.cls-2{fill:#fff;}.cls-3{clip-path:url(#clip-path);}.cls-4{fill:#f76b7c;}.cls-5{fill:#8f4ef4;}.cls-6{fill:url(#未命名漸層_4);}</style><clipPath id="clip-path"><rect class="cls-1" x="23.12" y="15.81" width="33.41" height="34.49"/></clipPath><linearGradient id="未命名漸層_4" x1="-504.63" y1="1256.21" x2="-491.64" y2="1256.21" gradientTransform="matrix(1, 0, 0, -1, 539.06, 1290.36)" gradientUnits="userSpaceOnUse"><stop offset="0" stop-color="#8f4ef4"/><stop offset="0.87" stop-color="#f76b7c"/></linearGradient></defs><rect class="cls-2" x="0.13" width="79.75" height="79.39" rx="11.14"/><path d="M33.14,60.9h6v.73h-6ZM32.63,59h6.13v.71H32.63Zm1.85,3.28h4.21v.7H34.48Zm-.13,1.19h4.12v.7H34.35ZM33.7,64.7h5.37v.73H33.7Zm1.47-6.26h.92V59.5h-.92ZM36,61.72h.9V65H36Zm-3.27-.82h.89v1.28a6.28,6.28,0,0,1-.85,3.49,3.6,3.6,0,0,0-.71-.58,5.16,5.16,0,0,0,.67-2.92Zm1.79.74.8.19a4.73,4.73,0,0,1-1,1.69,4.34,4.34,0,0,0-.68-.48A3.28,3.28,0,0,0,34.47,61.64ZM33.68,60l.57-.43a34.24,34.24,0,0,1,3.7,1l-.56.47A27,27,0,0,0,33.68,60Zm3.4-.53.61.33a11.67,11.67,0,0,1-4,1.3,4.8,4.8,0,0,0-.32-.54A11.14,11.14,0,0,0,37.08,59.43Zm4.85.17v1h2.68v-1Zm-.88-.86h4.49V61.5H41.05Zm-1,3.39h2.9v3.39H42V63H40.87v2.57H40Zm3.55,0h3v3.4h-.92V63H44.43v2.57h-.87Zm-3.17,2.19h2v.87h-2Zm3.59,0H46.1v.87H44Z"/><g class="cls-3"><path class="cls-4" d="M35.27,40.24A12.22,12.22,0,1,0,23.12,28,12.18,12.18,0,0,0,35.27,40.24Z"/><path class="cls-5" d="M54.55,50.29H36.4a2,2,0,0,1-2-2V30.06a2,2,0,0,1,2-2H54.55a2,2,0,0,1,2,2V48.3A2,2,0,0,1,54.55,50.29Z"/><path class="cls-6" d="M35.27,40.24A12.19,12.19,0,0,0,47.42,28.07h-11a2,2,0,0,0-2,2V40.21C34.7,40.23,35,40.24,35.27,40.24Z"/></g></svg>