<svg id="圖層_2" data-name="圖層 2" xmlns="http://www.w3.org/2000/svg" viewBox="0 0 32.27 32.26"><defs><style>.cls-1{fill:#409eff;}</style></defs><path class="cls-1" d="M13.88,23.55,25.25,12.17,23,9.92,13.88,19l-4.6-4.6L7,16.69Zm2.26,8.71A15.69,15.69,0,0,1,9.84,31a16,16,0,0,1-5.12-3.45,16.38,16.38,0,0,1-3.45-5.12A15.65,15.65,0,0,1,0,16.13a15.73,15.73,0,0,1,1.27-6.3A16.14,16.14,0,0,1,9.84,1.26a16.24,16.24,0,0,1,12.59,0,16.38,16.38,0,0,1,5.12,3.45A16,16,0,0,1,31,9.83a15.73,15.73,0,0,1,1.27,6.3A15.65,15.65,0,0,1,31,22.42,16.14,16.14,0,0,1,22.43,31,15.65,15.65,0,0,1,16.14,32.26Z"/></svg>