<svg id="圖層_2" data-name="圖層 2" xmlns="http://www.w3.org/2000/svg" xmlns:xlink="http://www.w3.org/1999/xlink" viewBox="0 0 79.88 79.52"><defs><style>.cls-1{fill:none;}.cls-2{fill:#fff;}.cls-3{clip-path:url(#clip-path);}.cls-4{fill:#9543ff;}.cls-5{fill:#f4ef42;}.cls-6{isolation:isolate;opacity:0.8;fill:url(#未命名漸層_3);}</style><clipPath id="clip-path"><rect class="cls-1" x="21.23" y="16.91" width="33.46" height="33.46"/></clipPath><linearGradient id="未命名漸層_3" x1="-506.28" y1="1260" x2="-495.79" y2="1253.36" gradientTransform="matrix(1, 0, 0, -1, 539.06, 1290.36)" gradientUnits="userSpaceOnUse"><stop offset="0" stop-color="#f4ef42" stop-opacity="0.9"/><stop offset="0.87" stop-color="#9543ff"/></linearGradient></defs><rect class="cls-2" width="79.88" height="79.52" rx="11.15"/><path d="M36.46,62.8H39v1H36.46Zm-4.66.68H35v.85H32.59v4.38H31.8Zm1.37-2h1V64h-1Zm1.47,2h.83v4.26c0,.42-.07.67-.34.8a2.77,2.77,0,0,1-1.23.15,3.17,3.17,0,0,0-.25-.83h.84c.12,0,.15,0,.15-.14Zm-1.55,1.3h1.24v2.29H33.09v-.71h.74v-.87h-.74Zm-.19,0h.49v2.59H32.9Zm3.41-3.3,1,.19A9.56,9.56,0,0,1,36,65.37a5.84,5.84,0,0,0-.77-.7A7.57,7.57,0,0,0,36.31,61.48Zm-4.59.5.79-.23A4.25,4.25,0,0,1,33,63.16l-.84.26A5.33,5.33,0,0,0,31.72,62Zm5,1.57c.35,1.91,1.09,3.6,2.42,4.34a4,4,0,0,0-.67.84c-1.42-1-2.13-2.8-2.52-5ZM34.8,61.68l1,.28c-.23.52-.46,1.06-.64,1.44l-.78-.26A10,10,0,0,0,34.8,61.68Zm-.59-2.11h1.22v1.26H34.21Zm-3,.76H39v1H31.23Zm-.7,0h1.06v3a13.82,13.82,0,0,1-.85,5.41,4.66,4.66,0,0,0-.88-.67,12.42,12.42,0,0,0,.67-4.74Zm7.18,3,1,.1c-.3,2.14-1,4.28-2.86,5.37a3.72,3.72,0,0,0-.57-.75C37,67,37.52,65.14,37.71,63.28Zm2.3-3h8.57v1.06H40Zm3.63-.74h1.21v1.37H43.64Zm-3.31,2.57h7.5v1H41.44v5.57H40.33Zm6.89,0h1.14v5.32c0,.57-.12.9-.5,1.07a4.34,4.34,0,0,1-1.71.21,4.24,4.24,0,0,0-.38-1.12c.51,0,1.07,0,1.24,0s.21,0,.21-.19ZM42.79,63h1c-.08,1.17-.41,1.84-2,2.19a2.42,2.42,0,0,0-.53-.81C42.54,64.17,42.74,63.79,42.79,63Zm1.8,0h1v.74c0,.22,0,.24.19.24h.51c.15,0,.19-.07.22-.55a2.61,2.61,0,0,0,.86.33c-.1.83-.35,1.06-1,1.06h-.79c-.87,0-1.06-.26-1.06-1.06ZM42.4,65.2h1v3.07h-1Zm.64,0h3.21v2.54H43v-.86H45.2v-.82H43Zm-1.28-3.85,1.16-.2a4.85,4.85,0,0,1,.43,1l-1.2.24A6.32,6.32,0,0,0,41.76,61.35Zm3.81-.21,1.29.2a11.18,11.18,0,0,1-.61,1l-1.16-.19A8.82,8.82,0,0,0,45.57,61.14Z"/><g class="cls-3"><path class="cls-4" d="M42.11,39.85H23.28a2.06,2.06,0,0,1-2.05-2.06V19a2.06,2.06,0,0,1,2.05-2.05H42.11a2.06,2.06,0,0,1,2,2.05V37.79A2.05,2.05,0,0,1,42.11,39.85Z"/><path class="cls-5" d="M52.64,50.37H33.81a2.05,2.05,0,0,1-2.05-2V29.49a2.05,2.05,0,0,1,2.05-2H52.64a2.05,2.05,0,0,1,2,2V48.32A2.05,2.05,0,0,1,52.64,50.37Z"/><path class="cls-6" d="M33.81,27.44a2.05,2.05,0,0,0-2.05,2V39.85H42.11a2.07,2.07,0,0,0,2.06-2.06V27.44Z"/></g></svg>