<svg id="圖層_1" data-name="圖層 1" xmlns="http://www.w3.org/2000/svg" xmlns:xlink="http://www.w3.org/1999/xlink" viewBox="0 0 193 207"><defs><style>.cls-1{fill:none;}.cls-2{clip-path:url(#clip-path);}.cls-3{fill:#409eff;}.cls-4{fill:url(#未命名漸層_2);}.cls-5{fill:url(#未命名漸層_2-2);}</style><clipPath id="clip-path"><rect class="cls-1" width="193" height="207"/></clipPath><linearGradient id="未命名漸層_2" x1="-399.66" y1="1264.17" x2="-367.57" y2="1264.17" gradientTransform="matrix(1, 0, 0, -1, 539.06, 1324.36)" gradientUnits="userSpaceOnUse"><stop offset="0"/><stop offset="0.93" stop-color="#409eff"/></linearGradient><linearGradient id="未命名漸層_2-2" x1="-405.71" y1="1216.57" x2="-372.26" y2="1216.57" xlink:href="#未命名漸層_2"/></defs><g class="cls-2"><path class="cls-3" d="M160.45,207H11A11,11,0,0,1,0,196V46.56a11,11,0,0,1,11-11H160.45a11,11,0,0,1,11,11V196A11,11,0,0,1,160.45,207Z"/><path d="M170.32,34.24c0-9.65-7.71-15.11-20.25-15.11-10,0-18.32,4.34-25.72,12.7L111.17,19.61C121.3,7.72,135.45,0,152.65,0,176,0,193,10.77,193,32.16c0,23.62-35.05,26.36-32.64,48.71H139.63C136.24,55.63,170.32,49.84,170.32,34.24ZM150.07,92c9.65,0,16.72,6.43,16.72,15.76s-7.07,15.91-16.72,15.91-16.72-6.58-16.72-15.91S140.42,92,150.07,92Z"/><path class="cls-4" d="M139.63,80.87h20.73c-1-9.26,4.42-15.14,11.13-20.55V46.56A11,11,0,0,0,169,39.51C162.63,51.52,136.65,58.67,139.63,80.87Z"/><path class="cls-5" d="M166.79,107.71c0-9.33-7.07-15.76-16.72-15.76s-16.72,6.43-16.72,15.76,7.07,15.91,16.72,15.91S166.79,117,166.79,107.71Z"/></g></svg>