<svg id="圖層_3" data-name="圖層 3" xmlns="http://www.w3.org/2000/svg" xmlns:xlink="http://www.w3.org/1999/xlink" viewBox="0 0 694.76 496.93"><defs><style>.cls-1{fill:#d9d9d9;}.cls-10,.cls-19,.cls-2,.cls-24,.cls-28,.cls-29{fill:none;}.cls-3{fill:#fff;}.cls-4{clip-path:url(#clip-path);}.cls-5{fill:#9543ff;}.cls-6{fill:#f4ef42;}.cls-27,.cls-7{isolation:isolate;opacity:0.8;}.cls-7{fill:url(#未命名漸層_2);}.cls-8{clip-path:url(#clip-path-2);}.cls-9{clip-path:url(#clip-path-3);}.cls-10{stroke:#000;stroke-opacity:0.4;}.cls-10,.cls-19{stroke-width:0.59px;}.cls-11{fill-opacity:0.4;}.cls-12{fill-rule:evenodd;}.cls-13{fill:#909399;}.cls-14{fill:#303133;}.cls-15{clip-path:url(#clip-path-4);}.cls-16{fill:#67c23a;}.cls-17{fill:#f4f6f9;}.cls-18{fill:#09101d;}.cls-19{stroke:#e4e7ed;}.cls-20{fill:#a8abb2;}.cls-21{fill:#606266;}.cls-22{fill:#ebeef5;}.cls-23{fill:#409eff;}.cls-24{stroke-width:7.5px;stroke:url(#未命名漸層_3);}.cls-25{clip-path:url(#clip-path-5);}.cls-26{fill:#39b54a;}.cls-27{fill:url(#未命名漸層_4);}.cls-28,.cls-29{stroke:#409eff;stroke-width:1.5px;}.cls-29{stroke-dasharray:6 6;}.cls-30{fill:#f3f5f8;}.cls-31{mask:url(#mask);}.cls-32{mask:url(#mask-2);}</style><clipPath id="clip-path"><rect class="cls-2" x="636.11" y="253.72" width="33.46" height="33.46"/></clipPath><linearGradient id="未命名漸層_2" x1="108.61" y1="989.19" x2="119.09" y2="982.55" gradientTransform="matrix(1, 0, 0, -1, 539.06, 1256.36)" gradientUnits="userSpaceOnUse"><stop offset="0" stop-color="#f4ef42" stop-opacity="0.9"/><stop offset="0.87" stop-color="#9543ff"/></linearGradient><clipPath id="clip-path-2"><rect class="cls-2" x="7.88" y="7.31" width="222.71" height="482.25" rx="18.41"/></clipPath><clipPath id="clip-path-3"><rect class="cls-2" x="7.88" y="7.31" width="222.75" height="463.5"/></clipPath><clipPath id="clip-path-4"><rect class="cls-2" x="7.88" y="60.52" width="222.75" height="552.67"/></clipPath><linearGradient id="未命名漸層_3" x1="-376" y1="1240.81" x2="-466.73" y2="758.56" gradientTransform="matrix(1, 0, 0, -1, 539.06, 1256.36)" gradientUnits="userSpaceOnUse"><stop offset="0" stop-color="#efefef"/><stop offset="1" stop-color="#dbdbdb"/></linearGradient><clipPath id="clip-path-5"><rect class="cls-2" x="218.63" y="255.47" width="37.2" height="25.9" transform="translate(-118.36 311.77) rotate(-55.48)"/></clipPath><linearGradient id="未命名漸層_4" x1="-301.44" y1="988.51" x2="-298" y2="993.5" gradientTransform="matrix(1, 0, 0, -1, 539.06, 1256.36)" gradientUnits="userSpaceOnUse"><stop offset="0" stop-color="#f4ef42"/><stop offset="0.2" stop-color="#ebec42"/><stop offset="0.91" stop-color="#39b54a"/></linearGradient><mask id="mask" x="332.88" y="268.31" width="24" height="24" maskUnits="userSpaceOnUse"><g id="mask0_2376_86112" data-name="mask0 2376 86112"><rect class="cls-1" x="332.88" y="268.31" width="24" height="24"/></g></mask><mask id="mask-2" x="541.88" y="268.31" width="24" height="24" maskUnits="userSpaceOnUse"><g id="mask1_2376_86112" data-name="mask1 2376 86112"><rect class="cls-1" x="541.88" y="268.31" width="24" height="24"/></g></mask></defs><image width="922" height="922" transform="translate(291.98 71.94) scale(0.36 0.39)" xlink:href="../../../../../Downloads/8bd226f68a1ebe7c9629a3754f8a8436.png"/><rect class="cls-3" x="614.88" y="236.81" width="79.88" height="79.52" rx="11.15"/><path d="M651.34,299.61h2.55v1h-2.55Zm-4.66.68h3.21v.85h-2.42v4.38h-.79Zm1.37-2h1v2.52h-1Zm1.47,2h.83v4.26c0,.42-.07.67-.34.8a2.72,2.72,0,0,1-1.23.15,3.87,3.87,0,0,0-.24-.83h.83c.12,0,.15,0,.15-.14Zm-1.55,1.3h1.24v2.29H648v-.71h.74v-.87H648Zm-.18,0h.48v2.59h-.48Zm3.41-3.3,1,.19a9.83,9.83,0,0,1-1.35,3.71,6.55,6.55,0,0,0-.77-.71A7.85,7.85,0,0,0,651.2,298.29Zm-4.59.5.79-.23a4.46,4.46,0,0,1,.46,1.41l-.84.27A5.25,5.25,0,0,0,646.61,298.79Zm5,1.57c.35,1.91,1.08,3.6,2.41,4.34a4.58,4.58,0,0,0-.67.84c-1.42-1-2.12-2.8-2.51-5Zm-1.94-1.87.94.28c-.23.52-.46,1.07-.64,1.45l-.78-.27A11.34,11.34,0,0,0,649.69,298.49Zm-.6-2.11h1.22v1.26h-1.22Zm-3,.76h7.73v1h-7.73Zm-.7,0h1.05v3a13.79,13.79,0,0,1-.85,5.41,3.75,3.75,0,0,0-.88-.66,12.31,12.31,0,0,0,.68-4.75Zm7.17,2.95,1,.11c-.31,2.13-1,4.28-2.87,5.36a3.72,3.72,0,0,0-.57-.75C651.83,303.85,652.41,302,652.59,300.09Zm2.3-3h8.57v1.06h-8.57Zm3.63-.74h1.21v1.37h-1.21ZM655.21,299h7.5v1h-6.38v5.57h-1.12Zm6.9,0h1.13v5.32c0,.57-.12.9-.5,1.07a4.28,4.28,0,0,1-1.7.21,4.63,4.63,0,0,0-.38-1.12c.5,0,1.07,0,1.23,0s.22-.05.22-.19Zm-4.44.88h1c-.08,1.17-.41,1.83-2,2.18a2.67,2.67,0,0,0-.54-.81C657.42,301,657.62,300.61,657.67,299.83Zm1.81,0h1v.74c0,.21,0,.23.19.23h.51c.16,0,.2-.07.23-.55a2.7,2.7,0,0,0,.85.34c-.09.82-.35,1.05-.95,1.05h-.79c-.87,0-1-.25-1-1.05Zm-2.2,2.18h1v3.07h-1Zm.65,0h3.2v2.54h-3.2v-.85h2.15v-.83h-2.15Zm-1.29-3.85,1.16-.2a5.82,5.82,0,0,1,.44,1l-1.21.24A6.32,6.32,0,0,0,656.64,298.16Zm3.81-.21,1.3.2c-.24.43-.44.78-.62,1L660,299A8.15,8.15,0,0,0,660.45,298Z"/><g class="cls-4"><path class="cls-5" d="M657,276.66H638.17a2.07,2.07,0,0,1-2.06-2.06V255.78a2.07,2.07,0,0,1,2.06-2.06H657a2.07,2.07,0,0,1,2.06,2.06V274.6A2.07,2.07,0,0,1,657,276.66Z"/><path class="cls-6" d="M667.52,287.18H648.69a2.05,2.05,0,0,1-2.05-2.05V266.3a2.06,2.06,0,0,1,2.05-2.05h18.83a2.07,2.07,0,0,1,2.06,2.05v18.83A2.06,2.06,0,0,1,667.52,287.18Z"/><path class="cls-7" d="M648.69,264.25a2.05,2.05,0,0,0-2.05,2.05v10.36H657a2.06,2.06,0,0,0,2-2.06V264.25Z"/></g><g class="cls-8"><rect class="cls-3" x="7.88" y="7.31" width="222.71" height="482.25" rx="18.41"/><g class="cls-9"><rect class="cls-3" x="7.88" y="7.31" width="222.75" height="463.5"/><rect class="cls-3" x="7.88" y="7.31" width="222.75" height="29.7"/><path class="cls-10" d="M210.78,22.16a1.68,1.68,0,0,1,1.68-1.68h8.32a1.68,1.68,0,0,1,1.68,1.68v2.78a1.68,1.68,0,0,1-1.68,1.68h-8.32a1.68,1.68,0,0,1-1.68-1.68Z"/><path class="cls-11" d="M223.36,22.36v2.38a1.29,1.29,0,0,0,0-2.38Z"/><rect x="211.67" y="21.37" width="9.9" height="4.36" rx="0.79"/><path class="cls-12" d="M202.75,21.53a5.17,5.17,0,0,1,3.54,1.41.18.18,0,0,0,.25,0l.69-.69a.2.2,0,0,0,.06-.14.16.16,0,0,0-.06-.13,6.48,6.48,0,0,0-9,0,.18.18,0,0,0,0,.27l.69.69a.18.18,0,0,0,.25,0A5.17,5.17,0,0,1,202.75,21.53Zm0,2.25a2.92,2.92,0,0,1,2,.76.18.18,0,0,0,.25,0l.69-.7a.16.16,0,0,0,.06-.13.22.22,0,0,0-.06-.14,4.26,4.26,0,0,0-5.8,0,.22.22,0,0,0,0,.14.19.19,0,0,0,0,.13l.69.7a.19.19,0,0,0,.26,0A2.93,2.93,0,0,1,202.75,23.78Zm1.37,1.52a.16.16,0,0,1-.05.14l-1.19,1.2a.19.19,0,0,1-.26,0l-1.19-1.2a.24.24,0,0,1-.05-.14.16.16,0,0,1,.06-.13,2,2,0,0,1,2.62,0A.16.16,0,0,1,204.12,25.3Z"/><path class="cls-12" d="M194.45,20.38h-.6a.6.6,0,0,0-.59.59v5.15a.6.6,0,0,0,.59.6h.6a.59.59,0,0,0,.59-.6V21A.59.59,0,0,0,194.45,20.38Zm-3.37,1.39h.6a.59.59,0,0,1,.59.59v3.76a.6.6,0,0,1-.59.6h-.6a.59.59,0,0,1-.59-.6V22.36A.58.58,0,0,1,191.08,21.77Zm-2.18,1.38h-.59a.59.59,0,0,0-.59.6v2.37a.59.59,0,0,0,.59.6h.59a.6.6,0,0,0,.6-.6V23.75A.6.6,0,0,0,188.9,23.15Zm-2.77,1.19h-.59a.6.6,0,0,0-.6.59v1.19a.6.6,0,0,0,.6.6h.59a.6.6,0,0,0,.6-.6V24.93A.6.6,0,0,0,186.13,24.34Z"/><path d="M27.88,20a2.08,2.08,0,0,1,1.78.84,3.75,3.75,0,0,1,.61,2.29,4.47,4.47,0,0,1-.65,2.52,2,2,0,0,1-1.75,1,1.86,1.86,0,0,1-2.11-1.73h1a1,1,0,0,0,1.11.88,1.17,1.17,0,0,0,1-.63,2.76,2.76,0,0,0,.37-1.47v-.08h-.05a1.73,1.73,0,0,1-.66.58,2.16,2.16,0,0,1-2.37-.43,2.14,2.14,0,0,1-.55-1.53,2.1,2.1,0,0,1,.64-1.57A2.22,2.22,0,0,1,27.88,20Zm0,.87a1.2,1.2,0,0,0-.91.37,1.35,1.35,0,0,0-.33,1,1.26,1.26,0,0,0,.33.94,1.33,1.33,0,0,0,1.82,0,1.37,1.37,0,0,0,.33-1,1.28,1.28,0,0,0-.35-1A1.21,1.21,0,0,0,27.91,20.83Zm3.76,1a.66.66,0,0,1,.5.2.7.7,0,0,1,0,1,.75.75,0,0,1-.5.2.72.72,0,0,1-.49-.2.72.72,0,0,1,0-1A.64.64,0,0,1,31.67,21.81Zm0,3.26a.66.66,0,0,1,.5.2.73.73,0,0,1,.21.5.71.71,0,0,1-.21.5.7.7,0,0,1-.5.2.68.68,0,0,1-.49-.2.66.66,0,0,1-.2-.5.68.68,0,0,1,.2-.5A.64.64,0,0,1,31.67,25.07Zm4.35-5H37v4.17h1v.83H37v1.36H36V25.09H32.91v-1ZM36,21.41l-2.21,2.85H36V21.41Zm4-1.32h.79v6.36H39.72V21.34a3.54,3.54,0,0,1-1.45.78v-1a3.56,3.56,0,0,0,.91-.37A4.11,4.11,0,0,0,40,20.09Z"/><path class="cls-13" d="M20.83,46.11c.82.2,1.57.39,2.28.59a8.42,8.42,0,0,0,1.57-.65H19.39v-.5h3.24a5.64,5.64,0,0,0-.29-.55l.61-.1a6.89,6.89,0,0,1,.29.65h2.85v.5H24.76l.35.23a9.52,9.52,0,0,1-1.33.62c.65.19,1.25.38,1.78.57l-.35.35h.93v.52H20.21v.94a6.55,6.55,0,0,1-.81,3.33l-.44-.4a5.69,5.69,0,0,0,.67-2.93V47.82h5.55c-.58-.23-1.26-.46-2.06-.7a15.67,15.67,0,0,1-2.81.59L20,47.32a19.29,19.29,0,0,0,2.35-.41c-.58-.17-1.2-.33-1.86-.49Zm.57,3.68a3.65,3.65,0,0,1-.73.78l-.41-.36a3.68,3.68,0,0,0,1.2-1.62l.48.19c-.08.17-.15.34-.23.49h1.47v-.68h.59v.68h2.17v.52H23.77v.78h2v.52h-2v.77h2.57v.52h-6v-.52h2.82v-.77h-2v-.52h2v-.78Zm7.35-4.47h4.58V48H28.75Zm4,2.15V45.88H29.35v1.59Zm-2.16,1.39v3.61H30v-.42H28.23v.42h-.59V48.86Zm-2.34,2.62H30v-2H28.23Zm6.21-2.62v3.61h-.6v-.42H32v.42h-.59V48.86ZM32,51.48h1.82v-2H32ZM39,45h.62v1.09h3.26v.58H39.65v1.27h2.23v.54a6.68,6.68,0,0,1-2,2.39,13.43,13.43,0,0,0,1.37.66,18.48,18.48,0,0,0,1.9.58l-.35.52a15.76,15.76,0,0,1-2-.69,9.08,9.08,0,0,1-1.39-.72A12.21,12.21,0,0,1,36,52.62l-.34-.53a11.66,11.66,0,0,0,3.25-1.25,5.72,5.72,0,0,1-1.14-1.11,3.78,3.78,0,0,1-.65-1.26h-.64v-.56H39V46.64H35.8v-.58H39Zm.32,5.55a6,6,0,0,0,1.86-2.05H37.66a3.18,3.18,0,0,0,.7,1.17A4.88,4.88,0,0,0,39.35,50.52ZM48.74,45h.59v.87H51v.54h-1.7v1h2v.57H46.81v-.57h1.93v-1H47.11v-.54h1.63Zm-2.06,4h3.06v-.64h.59V49h1v.56h-1V51.8a.65.65,0,0,1-.73.74H48.5L48.36,52c.36,0,.7,0,1,0a.31.31,0,0,0,.35-.34V49.56H46.68ZM44.9,52.52h-.74L44,52c.22,0,.44,0,.65,0s.33-.13.33-.37v-2c-.32.12-.65.23-1,.33l-.15-.6A8.86,8.86,0,0,0,45,49v-1.9H44v-.57h1V45.08h.59v1.49h.87v.57h-.87v1.67q.45-.2.87-.42V49a8.65,8.65,0,0,1-.87.41v2.36C45.61,52.27,45.37,52.52,44.9,52.52ZM47.54,50a12.4,12.4,0,0,1,1,1.34l-.48.33a12.2,12.2,0,0,0-1-1.38Z"/><path class="cls-13" d="M57.33,46.24a.2.2,0,0,0-.06.15.22.22,0,0,0,.06.15l2.17,2.22L57.33,51a.2.2,0,0,0-.06.15.2.2,0,0,0,.06.14.21.21,0,0,0,.15.07.2.2,0,0,0,.14-.06l2.31-2.37a.25.25,0,0,0,.06-.16.2.2,0,0,0-.06-.15l-2.31-2.37a.2.2,0,0,0-.14-.06.2.2,0,0,0-.15.06Z"/><path class="cls-14" d="M68.72,44.92a7.11,7.11,0,0,1,.27.75h3.29v.55H64.94v-.55h3.41a4.11,4.11,0,0,0-.28-.63ZM71,52.57h-.7L70.11,52l.67,0q.51,0,.51-.39V49.39H65.94v3.2h-.58V48.87h6.51v2.91C71.87,52.3,71.56,52.57,71,52.57Zm-4.66-5.81h4.65v1.61H66.29Zm4.07,1.14v-.68H66.88v.68Zm-3.38,2h3.27v1.66H67Zm2.74,1.21v-.77h-2.2v.77Zm3.84-.67.5.05a7.87,7.87,0,0,1-.34,1.9l-.52-.16A7.09,7.09,0,0,0,73.56,50.47Zm1.35-.1c.11.51.2,1.07.28,1.68l-.5.11c-.07-.64-.15-1.2-.24-1.7Zm.87-2.16a13.89,13.89,0,0,1,.52,1.67l-.49.12-.1-.42A14.74,14.74,0,0,1,73.4,50l-.15-.51a1,1,0,0,0,.26-.17,9,9,0,0,0,1.22-1.53l-1.4.21-.14-.52a.66.66,0,0,0,.24-.21A12.13,12.13,0,0,0,74.57,45l.56.21a12.6,12.6,0,0,1-1.24,2.23l1.18-.18.6-1,.52.19a19.66,19.66,0,0,1-2.08,3,12.77,12.77,0,0,0,1.47-.3c-.09-.27-.17-.53-.27-.78Zm0,1.94q.21.51.39,1.11l-.44.19a9.22,9.22,0,0,0-.39-1.16ZM77,45.85h-.72v-.56h3.6v.37c-.14.75-.29,1.4-.44,1.94h1v.32a6.55,6.55,0,0,1-1.11,2.95,7.67,7.67,0,0,0,1.51,1.22l-.36.47a7.08,7.08,0,0,1-1.5-1.24,5.84,5.84,0,0,1-1.73,1.32l-.32-.5a5.84,5.84,0,0,0,1.66-1.27,7.28,7.28,0,0,1-1.1-2.08,8,8,0,0,1-1.15,3.72l-.42-.37A9.77,9.77,0,0,0,77,46.92Zm1.9,4.57a5.62,5.62,0,0,0,1-2.31H78.7c.15-.51.33-1.27.53-2.26H77.5v1.07c0,.13,0,.25,0,.39A6.7,6.7,0,0,0,78.85,50.42Zm3.39-5.34a8.19,8.19,0,0,1,1.26,1.07l-.43.42a8.53,8.53,0,0,0-1.25-1.08Zm-.26,2a9.06,9.06,0,0,1,1.34,1.23l-.43.42a8.3,8.3,0,0,0-1.34-1.23Zm.83,2.32.52.2a27.53,27.53,0,0,1-1.11,2.91l-.55-.25A24.33,24.33,0,0,0,82.81,49.39ZM86,45h.59v.52h2.21V46H86.57v.55h1.89V47H86.57v.57H89v.5H83.56v-.5H86V47H84.17v-.48H86V46H83.83v-.5H86ZM84.89,50.2v.59h2.8V50.2Zm2.8-.47v-.61h-2.8v.61Zm-2.8,1.52v1.34h-.57v-4h4v3.23a.6.6,0,0,1-.67.69h-.79L86.66,52l.77,0c.17,0,.26-.1.26-.3v-.49ZM92,45.32h5.31v.56H95.6v1h1.46v5.69H96.5V52.2H92.77v.39h-.56V46.88H93.6v-1H92Zm.79,6.33H96.5v-.83H92.77Zm.88-4.23h-.88v2.85H96.5v-.81h-.8a.57.57,0,0,1-.65-.64v-1.4h-.89v.49a2.09,2.09,0,0,1-1,1.86l-.4-.34a1.65,1.65,0,0,0,.84-1.52Zm.52-.54H95v-1h-.86ZM96.5,49V47.42h-1V48.7a.24.24,0,0,0,.27.27ZM90.35,45.1a10.28,10.28,0,0,1,1.45,1.2l-.43.43a9.09,9.09,0,0,0-1.44-1.22Zm-.21,2a9.06,9.06,0,0,1,1.43,1.22l-.42.43a8.48,8.48,0,0,0-1.43-1.23Zm1,2.19.53.2a26.1,26.1,0,0,1-1.28,3l-.56-.24A23.67,23.67,0,0,0,91.12,49.28Z"/><g class="cls-15"><rect class="cls-2" x="39.96" y="72.4" width="159.19" height="106.92"/><path class="cls-14" d="M93,195.63c.14.43.3.91.45,1.42h6.88v1.71H84.44v-1.71h7c-.16-.39-.33-.74-.5-1.07Zm4.42,16.55H96l-.45-1.64,1.38.06c.62,0,.94-.22.94-.64v-4.37H87v6.65H85.19V204H99.58v6.34C99.58,211.56,98.85,212.18,97.41,212.18ZM87.18,199.5H97.61v3.77H87.18Zm8.64,2.38v-1H89v1Zm-7.09,4.42h7.34v3.85H88.73Zm5.7,2.48v-1.11H90.37v1.11Zm8.29-1.18,1.52.2a20.3,20.3,0,0,1-.61,4.08l-1.59-.5A15.18,15.18,0,0,0,102.72,207.6Zm3.37-.26c.23,1.1.44,2.3.62,3.58l-1.57.37c-.12-1.39-.26-2.6-.44-3.67ZM108,202.7a35.58,35.58,0,0,1,1,3.53l-1.48.38-.16-.72a28.82,28.82,0,0,1-4.79,1l-.45-1.57a3,3,0,0,0,.77-.5,14.8,14.8,0,0,0,2.06-2.6l-2.51.39-.43-1.58a1.85,1.85,0,0,0,.73-.65,29.41,29.41,0,0,0,2.11-4.56l1.74.68a25.77,25.77,0,0,1-2.46,4.37c.61-.08,1.23-.18,1.86-.29.37-.64.78-1.32,1.21-2.07l1.62.61a43.47,43.47,0,0,1-4.08,5.92c.75-.15,1.5-.31,2.26-.5-.14-.48-.3-.95-.44-1.39Zm-.08,4.16a18,18,0,0,1,.79,2,29.89,29.89,0,0,0,1.28-9.39V198h-1.33v-1.71h7.93v1.14c-.29,1.46-.56,2.72-.84,3.79h2v1a15.15,15.15,0,0,1-2.14,6.15,16.28,16.28,0,0,0,2.92,2.34l-1.14,1.51a15.9,15.9,0,0,1-2.87-2.42,12,12,0,0,1-3.51,2.64l-1-1.56a11.56,11.56,0,0,0,3.29-2.49,15.6,15.6,0,0,1-1.94-3.6,18,18,0,0,1-2.3,7.31l-1.32-1.16a13.92,13.92,0,0,0,.81-1.64l-1.11.5a20,20,0,0,0-.82-2.48Zm6.46.12a12.33,12.33,0,0,0,1.65-4.19h-2.4c.32-1.1.69-2.71,1.08-4.79h-3v1.51c0,.43,0,.86,0,1.27A14,14,0,0,0,114.38,207Zm7.43-11.1a19.81,19.81,0,0,1,2.69,2.28l-1.32,1.32a15.84,15.84,0,0,0-2.69-2.32Zm-.56,4.26a21.7,21.7,0,0,1,2.91,2.58L122.84,204a18.62,18.62,0,0,0-2.9-2.62Zm1.27,5,1.64.64a58.18,58.18,0,0,1-2.28,6.19l-1.71-.77A51.66,51.66,0,0,0,122.52,205.18Zm6.86-9.43h1.82v1h4.52v1.5H131.2V199h3.85v1.46H131.2v.77h5v1.53H124.41v-1.53h5v-.77h-3.67V199h3.67v-.75H125v-1.5h4.4Zm-1.75,11.48v.84H133v-.84Zm5.35-1.39V205h-5.35v.89Zm-5.35,3.62v2.78H125.9v-8.79h8.86v7a1.53,1.53,0,0,1-1.71,1.73h-1.64l-.44-1.62,1.56.07c.29,0,.45-.2.45-.57v-.55Zm14.79-13.15H154v1.74h-3.44v1.62h3v12.51H151.8v-.62h-7.24v.68h-1.74V199.67h2.88v-1.62h-3.28Zm2.14,13.57h7.24V208.6h-7.24Zm1.32-8.53h-1.32v3.56a3.33,3.33,0,0,0,1.32-2.78Zm-1.32,4.08V207h7.24v-1.44h-1.39A1.41,1.41,0,0,1,148.8,204v-2.6h-1.39v.78a4.62,4.62,0,0,1-2,4.07Zm2.89-5.76h1.32v-1.62h-1.32ZM151.8,204v-2.65h-1.46v2.19c0,.3.17.46.53.46Zm-12.53-8.07a25.56,25.56,0,0,1,3,2.5L141,199.76a18.5,18.5,0,0,0-3-2.55Zm-.45,4.26a20.74,20.74,0,0,1,3,2.55l-1.32,1.32a17.74,17.74,0,0,0-3-2.59Zm1.57,4.81,1.64.63a59,59,0,0,1-2.6,6.43l-1.73-.77A52.39,52.39,0,0,0,140.39,205Z"/><path class="cls-14" d="M99.26,218.9a2,2,0,0,1,1.36.48,1.64,1.64,0,0,1,.53,1.25,2,2,0,0,1-.58,1.4,8.58,8.58,0,0,1-1.24.95A3,3,0,0,0,98,224.35h3.12V225h-4a2.15,2.15,0,0,1,.59-1.48,7,7,0,0,1,1.29-1,9.77,9.77,0,0,0,.93-.74,1.56,1.56,0,0,0,.46-1.07,1.08,1.08,0,0,0-.33-.84,1.3,1.3,0,0,0-.91-.3,1.13,1.13,0,0,0-.94.42,1.83,1.83,0,0,0-.36,1.19h-.68a2.26,2.26,0,0,1,.55-1.59A1.9,1.9,0,0,1,99.26,218.9Zm4.9,0a1.75,1.75,0,0,1,1.61.94,5.13,5.13,0,0,1,0,4.29,1.75,1.75,0,0,1-1.61.94,1.73,1.73,0,0,1-1.6-.94,5,5,0,0,1,0-4.29A1.73,1.73,0,0,1,104.16,218.9Zm0,.58a1.19,1.19,0,0,0-1.14.86,5.54,5.54,0,0,0,0,3.29,1.19,1.19,0,0,0,2.29,0,5.33,5.33,0,0,0,0-3.29A1.19,1.19,0,0,0,104.16,219.48Zm5-.58a1.73,1.73,0,0,1,1.6.94,5,5,0,0,1,0,4.29,1.84,1.84,0,0,1-3.21,0,5.13,5.13,0,0,1,0-4.29A1.73,1.73,0,0,1,109.15,218.9Zm0,.58a1.2,1.2,0,0,0-1.15.86,5.54,5.54,0,0,0,0,3.29,1.2,1.2,0,0,0,2.3,0,5.54,5.54,0,0,0,0-3.29A1.21,1.21,0,0,0,109.15,219.48Zm5.07-.58a1.92,1.92,0,0,1,1.35.48,1.62,1.62,0,0,1,.54,1.25,2,2,0,0,1-.59,1.4,7.81,7.81,0,0,1-1.23.95c-.75.51-1.19,1-1.29,1.37h3.11V225h-4a2.15,2.15,0,0,1,.59-1.48,7,7,0,0,1,1.29-1,9.77,9.77,0,0,0,.93-.74,1.55,1.55,0,0,0,.45-1.07,1.07,1.07,0,0,0-.32-.84,1.3,1.3,0,0,0-.91-.3,1.13,1.13,0,0,0-.94.42,1.83,1.83,0,0,0-.36,1.19h-.68a2.26,2.26,0,0,1,.55-1.59A1.9,1.9,0,0,1,114.22,218.9Zm7.61,1.64a1.92,1.92,0,0,1,1.54.67,2.32,2.32,0,0,1,.55,1.6,2.36,2.36,0,0,1-.54,1.59,2,2,0,0,1-1.55.67,1.92,1.92,0,0,1-1.54-.67,2.63,2.63,0,0,1,0-3.19A1.92,1.92,0,0,1,121.83,220.54Zm0,.56a1.23,1.23,0,0,0-1.06.52,2.24,2.24,0,0,0,0,2.37,1.23,1.23,0,0,0,1.06.52,1.29,1.29,0,0,0,1.08-.52,2.24,2.24,0,0,0,0-2.37A1.29,1.29,0,0,0,121.83,221.1Zm4.48-.56c1.06,0,1.64.44,1.76,1.34h-.65a.92.92,0,0,0-.33-.58,1.64,1.64,0,0,0-1.49,0,.51.51,0,0,0-.27.45c0,.19.11.34.36.47a8.29,8.29,0,0,0,.89.28,4.2,4.2,0,0,1,1.11.4,1,1,0,0,1,.51.88c0,.88-.6,1.33-1.82,1.33s-1.75-.5-1.84-1.49h.64a1.15,1.15,0,0,0,.36.74,1.42,1.42,0,0,0,.82.19c.77,0,1.16-.24,1.16-.73a.61.61,0,0,0-.41-.55,6.12,6.12,0,0,0-.91-.28,3.68,3.68,0,0,1-1.07-.38.93.93,0,0,1-.49-.84,1,1,0,0,1,.49-.87A2,2,0,0,1,126.31,220.54Zm4.54,0a1.78,1.78,0,0,1,1.37.48,1.71,1.71,0,0,1,.38,1.17V225H132v-.73a2.06,2.06,0,0,1-.66.58,2.23,2.23,0,0,1-1.07.26,1.55,1.55,0,0,1-1-.32,1.09,1.09,0,0,1-.4-.87,1.2,1.2,0,0,1,.59-1.1,2.7,2.7,0,0,1,1.49-.37l1,0v-.22c0-.72-.38-1.08-1.13-1.08a1.4,1.4,0,0,0-.77.19.88.88,0,0,0-.43.62l-.66-.05a1.49,1.49,0,0,1,.67-1A2.24,2.24,0,0,1,130.85,220.54Zm1.09,2.35-1,0c-1,0-1.45.33-1.45,1a.59.59,0,0,0,.24.49,1.09,1.09,0,0,0,.65.19,1.61,1.61,0,0,0,1.08-.4,1.15,1.15,0,0,0,.47-.89Zm1.69-4h.66v3.75l2.16-2h.88l-1.9,1.73,2.08,2.57h-.85L135,222.82l-.69.61V225h-.66Zm6.17,1.64a1.81,1.81,0,0,1,1.56.7,2.87,2.87,0,0,1,.5,1.75h-3.39a1.86,1.86,0,0,0,.39,1.13,1.24,1.24,0,0,0,1,.39,1.33,1.33,0,0,0,.85-.26,1.51,1.51,0,0,0,.44-.67h.66a1.88,1.88,0,0,1-1.95,1.49,1.91,1.91,0,0,1-1.48-.61,2.3,2.3,0,0,1-.57-1.66,2.39,2.39,0,0,1,.54-1.59A1.81,1.81,0,0,1,139.8,220.54Zm0,.56a1.23,1.23,0,0,0-.93.37,1.66,1.66,0,0,0-.4,1h2.68C141.09,221.55,140.63,221.1,139.82,221.1Z"/><path class="cls-16" d="M109.08,231.11l.56.26a11.23,11.23,0,0,1-.74,1.74v5.69h-.61v-4.71a12.11,12.11,0,0,1-.9,1.11l-.2-.64A9.38,9.38,0,0,0,109.08,231.11Zm1,.43h3.93v2.62h-1.67v.9h2.39v.58H113a6.89,6.89,0,0,0,1.94,2.17l-.38.53a8.73,8.73,0,0,1-2.05-2.7h-.1v3.15h-.6v-3.15h-.1a7.42,7.42,0,0,1-2.1,2.71l-.34-.54a6.29,6.29,0,0,0,2-2.17h-1.72v-.58h2.31v-.9h-1.66Zm3.34,2v-1.47h-2.75v1.47Zm3.61-.21h2v-.9h.59v.9h2v.56h-2v.91h1.43v2.28h-3.44v-2.28h1.42v-.91h-2Zm3.48,3.23v-1.25h-2.3v1.25Zm2.2-5.07v7.26h-.59v-.38h-5.53v.38h-.59v-7.26Zm-6.12,6.32h5.53v-5.76h-5.53Zm10.77-6.72H128v1.49h3v3.91h-.6V236H128v2.84h-.62V236H125v.52h-.59v-3.91h3Zm-2.38,4.3h2.38v-2.22H125Zm3,0h2.38v-2.22H128Z"/><rect class="cls-17" x="17.39" y="252.05" width="203.74" height="20.79" rx="4.75"/><path class="cls-18" d="M35.68,260.56H39.9v.92H35.68Zm2.54-1.63.73-.34a6.49,6.49,0,0,1,.88,1.36l-.78.39A6.62,6.62,0,0,0,38.22,258.93Zm-4.87,1.59h1.57v.83H33.35Zm-.65,1.67h2.06V263H32.7Zm1.86-3.8h.86v7.25h-.86Zm-1.59.34h.84v2.61H33Zm.2,3.78H34v.65a3.57,3.57,0,0,1-.7,2.32,3.25,3.25,0,0,0-.7-.42,3,3,0,0,0,.57-1.92Zm4-4.11H38v2.29c0,1.69-.21,3.66-2.14,5a3,3,0,0,0-.61-.72,4.62,4.62,0,0,0,1.86-4.26Zm1,2.49c.07,1.05.26,2.95,1.86,4a2.41,2.41,0,0,0-.68.75c-1.69-1.15-1.93-3.44-2-4.65Zm4.28,2.95h.9v.76c0,.2.07.23.41.23h1.06c.28,0,.33-.08.37-.59a2.42,2.42,0,0,0,.78.29c-.1.84-.34,1-1,1H43.66c-1,0-1.21-.23-1.21-.95Zm.74-.15.57-.51a4.06,4.06,0,0,1,1.16.78l-.6.56A4.3,4.3,0,0,0,43.19,263.69Zm2.42.39.73-.41a5,5,0,0,1,1.3,1.4l-.79.46A5.22,5.22,0,0,0,45.61,264.08Zm-4.16-.34.79.3a2.91,2.91,0,0,1-1.12,1.47l-.74-.51A2.48,2.48,0,0,0,41.45,263.74Zm-.53-3.36h2.33V261H41.73v2.55h-.81Zm3.39-1.93h.84v1.48c0,.22.05.25.36.25h.91c.23,0,.28-.07.32-.52a2.19,2.19,0,0,0,.74.28c-.09.77-.33,1-1,1H45.4c-.89,0-1.09-.24-1.09-1Zm0,2.53h.84v1.56c0,.22.05.25.37.25h.94c.24,0,.29-.07.32-.55a2,2,0,0,0,.75.28c-.1.8-.33,1-1,1H45.41c-.9,0-1.1-.24-1.1-1Zm-2.7-2.63.92.22a12.53,12.53,0,0,1-.94,1.31l-.64-.21A7.75,7.75,0,0,0,41.61,258.35Zm1,.64.65-.34a5.19,5.19,0,0,1,1,1.29l-.7.38A5.15,5.15,0,0,0,42.64,259Zm3.9-.41.65.55a11.89,11.89,0,0,1-2.22.63,2.19,2.19,0,0,0-.23-.58A8.4,8.4,0,0,0,46.54,258.58Zm.09,2.58.64.55a11.23,11.23,0,0,1-2.29.66,2.4,2.4,0,0,0-.23-.59A8.45,8.45,0,0,0,46.63,261.16ZM43,260.38h.84v2.41c0,.34-.07.51-.3.61a2.39,2.39,0,0,1-1,.12,3.25,3.25,0,0,0-.24-.64h.56c.08,0,.11,0,.11-.1Zm-2.48-1c.79,0,2,0,3.11-.07l0,.66-3.05.13Zm.88,1.86h1.88v.5H41.39Zm0,.78h1.88v.51H41.39Zm11.54-3.2h1.43v.8H52.93Zm-1.74.33h1.59v.76H51.19ZM53,260.26h1.31V261H53Zm0,1.42h1.29v.76H53Zm-3.8-1.42h1.3V261h-1.3Zm0,1.41h1.29v.76H49.23Zm-.45-2.77,1,.28c0,.06-.07.09-.19.12l.12,4.15h-.82Zm5-.06h.85c0,1.51,0,3.43-.13,4.58h-.86C53.78,262.25,53.84,260.32,53.83,258.84Zm-3.62-.37.7.66a17.31,17.31,0,0,1-1.64.71,3.56,3.56,0,0,0-.28-.64A8.93,8.93,0,0,0,50.21,258.47Zm.58,3h.74v1.93h-.74Zm0-2.94h.78v2h.82v.72h-1.6Zm1.15,2h.79v2.92H52Zm-3.78,2.61h7.14v.86H48.18Zm4.08,1.37.69-.62A25.31,25.31,0,0,1,55.31,265l-.93.63A16,16,0,0,0,52.26,264.44Zm-1.89-.6.82.58a13.81,13.81,0,0,1-2.27,1.23,5.73,5.73,0,0,0-.72-.64A9.81,9.81,0,0,0,50.37,263.84Zm7.51.92h3.77v.68H57.88ZM59,260h.9v.93H59Zm-2.84.54h6.71v1.53H62v-.84H57v.84h-.87Zm1.71,1h3.78v1.73H57.85v-.67h2.86v-.4H57.85Zm0,2.07h4.33v2h-.93v-1.33h-3.4Zm-.55-2.07h.88v4.09h-.88Zm-.42-2.64h2.43v.73H56.92Zm3.12,0h3v.73H60Zm-3.09-.6.86.23a6,6,0,0,1-1.25,1.84,5.47,5.47,0,0,0-.76-.49A4.25,4.25,0,0,0,57,258.33Zm3.14,0,.88.22a5,5,0,0,1-1.22,1.7,5.23,5.23,0,0,0-.81-.44A3.49,3.49,0,0,0,60.09,258.33ZM57.2,259.5l.79-.21a4.17,4.17,0,0,1,.5.88l-.83.24A3.71,3.71,0,0,0,57.2,259.5Zm3.45,0,.81-.22a4.59,4.59,0,0,1,.62.88l-.86.24A4.43,4.43,0,0,0,60.65,259.52Zm6.64,1.36v.66h2.34v-.66Zm0-1.38v.65h2.34v-.65Zm-.84-.78h4.06v3.6H66.45Zm0,4.27h4.19v.83H66.4Zm-.54,1.57h5v.84h-5Zm-2.27-5.73h2.57v.87H63.59Zm.08,2.23H66v.85H63.67ZM63.51,264c.66-.17,1.65-.48,2.58-.78l.16.89-2.53.83Zm.94-4.82h.88v4.75l-.88.14Zm3.63-.12h.78V262H69v3H68v-3h.08Z"/><rect class="cls-3" x="86.09" y="253.24" width="66.33" height="18.41" rx="4.75"/><path class="cls-18" d="M105.12,260.9h6.09v.74h-6.09Zm-.52-2h6.23v.72H104.6Zm1.89,3.33h4.28V263h-4.28Zm-.13,1.21h4.17v.71h-4.17Zm-.67,1.3h5.46v.74h-5.46Zm1.5-6.36h.93v1.08h-.93Zm.79,3.34h.91V265H108Zm-3.32-.84h.9v1.3a6.35,6.35,0,0,1-.86,3.54,4,4,0,0,0-.73-.58,5.18,5.18,0,0,0,.69-3Zm1.81.75.81.19a4.66,4.66,0,0,1-1,1.72,4.48,4.48,0,0,0-.69-.49A3.37,3.37,0,0,0,106.47,261.65Zm-.8-1.71.58-.43a34.77,34.77,0,0,1,3.76,1.06l-.57.48A26.12,26.12,0,0,0,105.67,259.94Zm3.46-.54.62.34a11.79,11.79,0,0,1-4,1.32,3.48,3.48,0,0,0-.33-.55A11,11,0,0,0,109.13,259.4Zm4.9.18v1h2.72v-1Zm-.89-.88h4.56v2.8h-4.56Zm-1.06,3.45h3v3.45h-.93V263H113v2.61h-.87Zm3.6,0h3.06v3.45h-.93V263h-1.24v2.61h-.89Zm-3.22,2.22h2v.89h-2Zm3.65,0h2.16v.89h-2.16Zm6.56-4.52h4v.84h-4Zm.16,1.57h3.64v.83h-3.64Zm-.4,1.61h4.34v.85h-4.34Zm1.73-2.88h.91v5.49h-.91Zm1.38-1.78.9.27c-.25.49-.5,1-.72,1.34l-.72-.24A8.68,8.68,0,0,0,125.54,258.37Zm-2.63.33.75-.28a5.37,5.37,0,0,1,.55,1.29l-.8.3A5.12,5.12,0,0,0,122.91,258.7Zm-3,2.06h2.39v.7h-2.39Zm0-2.13h2.35v.7h-2.35Zm0,3.18h2.39v.71h-2.39Zm-.38-2.14h3v.74h-3Zm.81,3.22h1.95v2.34h-1.95v-.73h1.15v-.88h-1.15Zm-.45,0h.78v2.65h-.78Zm10.71-.05h2.67v.66h-2.67Zm-1-3.92h4.61v.66H129.6Zm.21,1H134v.63h-4.18Zm-.45.95h5.09v.66h-5.09Zm1.2,3h2.68v.65h-2.68Zm-.68-2h3.3v.67h-2.45v3.17h-.85Zm3.17,0h.87v2.95c0,.4-.07.62-.35.74a2.84,2.84,0,0,1-1.2.14,3.09,3.09,0,0,0-.25-.78h.79c.1,0,.14,0,.14-.12Zm-1.64-3.42h.92v2.67h-.92Zm-3.32,0h.84v7.25h-.84Zm-.66,1.53.65.08a11.22,11.22,0,0,1-.3,2.18l-.67-.24A11.23,11.23,0,0,0,127.43,259.92Zm1.37-.24.58-.24a10.55,10.55,0,0,1,.44,1.11l-.6.29A9.85,9.85,0,0,0,128.8,259.68Z"/><path class="cls-18" d="M173.87,262.07c.8,1.52,2.48,2.41,5,2.69a4.55,4.55,0,0,0-.6.9c-2.6-.37-4.23-1.41-5.24-3.29Zm-1.63-.84h4.95v.9h-4.95Zm-.37-1.82h6.61v.92h-6.61Zm2.81-1h1v3.25h-1Zm2.21,2.84h.2l.17,0,.64.37c-.92,2.5-3.17,3.63-5.85,4.07a3.43,3.43,0,0,0-.5-.89c2.59-.34,4.64-1.25,5.34-3.35Zm5.05-.72h4.27v.72h-4.27Zm-.16,1.08h4.67v.75h-4.67Zm1,1.06h2.61v.67h-2.61Zm-.66-3,.7-.19a8.21,8.21,0,0,1,.35.9l-.74.23C182.38,260.37,182.24,260,182.13,259.67Zm1.34-.13.73-.13c.08.3.17.7.21.94l-.77.17A6.74,6.74,0,0,0,183.47,259.54Zm2.23-1.11.52.68a24.22,24.22,0,0,1-4.23.37,2.86,2.86,0,0,0-.2-.69A24.74,24.74,0,0,0,185.7,258.43Zm-2.15,4.73a4.09,4.09,0,0,0,3.07,1.73,4.1,4.1,0,0,0-.54.77,4.6,4.6,0,0,1-3.27-2.28Zm1.71-3.89.85.24c-.28.47-.61,1-.86,1.31l-.64-.23A7.69,7.69,0,0,0,185.26,259.27Zm0,3.38h.17l.15,0,.5.2a3.84,3.84,0,0,1-3.05,2.84,3.27,3.27,0,0,0-.5-.69,3.14,3.14,0,0,0,2.73-2.2ZM182.87,261h.89c-.13,1.65-.37,3.57-2,4.67a2.5,2.5,0,0,0-.59-.67C182.64,264,182.77,262.32,182.87,261Zm-3.63,1.56c.62-.14,1.53-.38,2.41-.62l.12.83c-.82.25-1.7.5-2.4.7Zm.09-2.66h2.37v.85h-2.37Zm.82-1.46H181v6.26c0,.44-.08.67-.32.81a2,2,0,0,1-1.06.18,3.28,3.28,0,0,0-.24-.86H180c.09,0,.13,0,.13-.13Zm10,0h.94v6.37c0,.46-.12.64-.41.78a4.34,4.34,0,0,1-1.38.13,2.74,2.74,0,0,0-.3-.73c.37,0,.82,0,.95,0s.2-.06.2-.19Zm-2.9.5H194v.74h-6.8Zm1.68,1.63v.37h3.41v-.37Zm-.88-.58h5.24v1.54H188Zm-.2,1.88h5.57v3h-.94v-2.39h-4.63Zm-.78,1h7.15v.7h-7.15Zm.72,1.06H193v.68h-5.19ZM199,258.49H200v7.15H199Zm-1.31.33.89.18a9.9,9.9,0,0,1-1,2.81,5.27,5.27,0,0,0-.81-.45A7.16,7.16,0,0,0,197.72,258.82Zm.29,1.07h3.58v.9h-3.8Zm-1.07,2.24h5V263h-5Zm-.57-3.71.87.27a11.28,11.28,0,0,1-2.11,3.59,6.13,6.13,0,0,0-.49-.95A8.34,8.34,0,0,0,196.37,258.42Zm-.77,2.13.88-.88h0v6h-.88Z"/><path class="cls-14" d="M21.65,287.73H19.73v-.91h4a3.69,3.69,0,0,0-.3-.56l1.15-.19q.15.33.3.75h3.59v.91H26.79l.39.26a14,14,0,0,1-1.42.65c.71.2,1.38.4,2,.6l-.5.49h1.23v.95H21v1.06c0,.31,0,.61,0,.91a4.51,4.51,0,0,0,1.32-1.84l.87.36-.17.4h1.48v-.71h1.09v.71h2.63v1H25.56v.69H28v1H25.56v.69h3.19v.95H21v-.95h3.5v-.69H22.06v-1h2.41v-.69h-2a4.75,4.75,0,0,1-.83.89l-.66-.56a7.64,7.64,0,0,1-1,3.22l-.83-.75a7.51,7.51,0,0,0,.78-3.6v-2H21l-.5-.68c.91-.1,1.74-.22,2.5-.38-.59-.15-1.21-.31-1.87-.46Zm-.52,2h5.51c-.62-.21-1.33-.43-2.12-.66A20.36,20.36,0,0,1,21.13,289.73Zm4.89-2H22.16c.83.2,1.6.38,2.31.57A12.61,12.61,0,0,0,26,287.73Zm5.67-1.24h6.15v3.82H31.69Zm5,2.77v-1.72H32.81v1.72ZM34.28,291v4.87H33.2v-.5H31.34v.5H30.25V291Zm-2.94,3.33H33.2v-2.28H31.34ZM39.27,291v4.87H38.16v-.5h-2v.5H35.11V291Zm-3.07,3.33h2v-2.28h-2Zm5.66,1.09V296h-1V292.1h3v3.78h-1v-.44Zm.94-1v-1.36h-.94v1.36Zm-2.2-7.05h1.29c-.14-.33-.29-.65-.45-1l1.08-.29a12,12,0,0,1,.44,1.26h1.09v1H40.6Zm.32,1.61h2.82v1H40.92Zm0,1.49h2.82v1H40.92ZM46.7,289H44.39v-1.05h1.4A10.15,10.15,0,0,0,45,286.6l.92-.45c.3.46.6,1,.89,1.5l-.58.29h1.52a16.47,16.47,0,0,0,.74-1.82l1,.37a9.31,9.31,0,0,1-.69,1.45H50.1V289H47.81v1.25h2v1h-2v1.3h2.58v1.06H47.81v2.45H46.7v-2.45H44.14v-1.06H46.7v-1.3h-2v-1h2Zm9.62,4.06v.5h3.07v-.5Zm3.07-.84v-.53H56.32v.53Zm-3.07,2.18V296h-1v-5.25h5.17V295a.94.94,0,0,1-1.08,1h-.79l-.28-1,.75.05a.3.3,0,0,0,.34-.34v-.33Zm1-8.23h1.11v.6h2.35v.9H58.43v.47h2V289h-2v.45h2.66v.92H54.6V290l-.56.14c-.14-.55-.3-1.09-.48-1.59V296h-1.1V286.2h1.1v2l.65-.22q.27.66.51,1.47h2.6V289h-2v-.88h2v-.47H54.93v-.9h2.39Zm-5.89,2.11.83.06a16.35,16.35,0,0,1-.34,3l-.83-.23A14.74,14.74,0,0,0,51.43,288.27Z"/><line class="cls-19" x1="18.58" y1="305.77" x2="219.94" y2="305.77"/><rect class="cls-3" x="18.58" y="306.07" width="201.37" height="104.64"/><rect class="cls-3" x="18.58" y="306.07" width="201.37" height="28.51"/><path class="cls-14" d="M26.27,317.22h2.39v5.23H26.27Zm1.62,4.52v-.88h-.84v.88Zm-.84-1.56h.84v-.81h-.84Zm0-1.49h.84v-.75h-.84Zm1.13,3.9a12.12,12.12,0,0,1,.76,1.42l-.62.42a13.42,13.42,0,0,0-.74-1.46Zm-1.49,0,.65.31a10,10,0,0,1-.7,1.63l-.66-.34A9.24,9.24,0,0,0,26.69,322.62ZM30,317h.79v.54h1.05V317h.8v.54h.91v.67h-.91v.38h.75v.64h-.75v.39h1.07v.67h-2v.35h1.62v2.06h.42v.7h-.42v.6c0,.43-.26.65-.77.65h-.66l-.17-.7.6,0c.14,0,.22-.05.22-.15v-.43H30v1.26h-.78v-1.26h-.46v-.7h.46v-2.06h1.6v-.35h-2v-.67H30v-.39H29.2v-.64H30v-.38H29v-.67H30Zm.08,5.7h.82v-.43H30Zm1.62,0h.84v-.43h-.84Zm-.91-3.08h1.05v-.39H30.74Zm0-1h1.05v-.38H30.74Zm1.75,3.11v-.42h-.84v.42Zm-1.64-.42H30v.42h.82Zm4.1-4h6.44v2.12H35Zm5.61,1.44v-.74H39.51v.74Zm-1.83,0v-.74H37.62v.74Zm-1.89,0v-.74H35.78v.74Zm-1.41,1h5.51v3.76H39.48a18.73,18.73,0,0,1,2.32.58l-.3.7a14.54,14.54,0,0,0-2.64-.75l.27-.53h-2l.34.45a8.52,8.52,0,0,1-2.58.85l-.39-.68a10.33,10.33,0,0,0,2.3-.62H35.43Zm4.67,3.07v-.41H36.26v.41Zm-3.84-1H40.1v-.39H36.26Zm0-1H40.1v-.4H36.26Zm10.12-2.63a4.74,4.74,0,0,1-.94.84L45,318.3a3,3,0,0,0,1.23-1.4l.81.1c-.05.13-.1.26-.15.37h3V318a5.09,5.09,0,0,1-.71,1.07l-.61-.48a2.72,2.72,0,0,0,.39-.48h-1c0,.14,0,.27-.06.39a3.68,3.68,0,0,0,2.38,1l-.32.74-.67-.16v3.43H47.87a20,20,0,0,1,2.31.52l-.28.69a18,18,0,0,0-2.78-.7l.26-.51H45.5l.34.44a9.54,9.54,0,0,1-2.65.77l-.39-.67a12.35,12.35,0,0,0,2.35-.54H43.82V320c-.2.15-.39.28-.59.41l-.53-.6a8.61,8.61,0,0,0,1.66-1.32L45,319a9.82,9.82,0,0,1-1.14,1h1.28l-.27-.54c1.23-.2,2-.55,2.18-1.05a2.09,2.09,0,0,0,.07-.33Zm-.6,1.92h3.28a2.75,2.75,0,0,1-1.52-.94A3.6,3.6,0,0,1,45.78,320Zm2.63,2.81v-.37H44.66v.37Zm-3.75-.92h3.75v-.33H44.66Zm0-.89h3.75v-.35H44.66Zm-1.18-4a8.61,8.61,0,0,1,1.26.82l-.55.56a7.12,7.12,0,0,0-1.26-.86Zm10.57,3.24h.89V318.1h-.86v-.84h3.56V320a18.77,18.77,0,0,0,.18,3.2c0,.25.1.38.15.38a1.25,1.25,0,0,0,.06-.36c0-.22,0-.47,0-.76l.68.33a4.66,4.66,0,0,1-.23,1.55.39.39,0,0,1-.33.24,1,1,0,0,1-.81-.57,9.25,9.25,0,0,1-.56-4V318.1h-1v2.19h.88v.82h-.88v3.5h-.84v-3.5h-.89Zm-3-2.37H52.1c-.1-.26-.2-.51-.32-.76l.83-.22a7.23,7.23,0,0,1,.31,1h1v.8H51Zm.28,1.25h2.32v.75H51.31Zm0,1.16h2.32v.77H51.31Zm2.39,1.24v2.95h-.79v-.34H52v.41h-.79v-3ZM52,323.4h.89v-1H52Z"/><path class="cls-20" d="M211.92,319.14l-2.11,2.17-2.11-2.17a.16.16,0,0,0-.14-.07.17.17,0,0,0-.14.07.24.24,0,0,0,0,.14.17.17,0,0,0,0,.14l2.25,2.31a.18.18,0,0,0,.14.06.2.2,0,0,0,.15-.06l2.25-2.3a.25.25,0,0,0,0-.15.2.2,0,0,0-.06-.15.2.2,0,0,0-.14-.06.17.17,0,0,0-.14.07Z"/><path class="cls-21" d="M28.2,342.39c-.14.1-.28.2-.42.28l-.48-.62v3.34h-.84V340h1.71a6.29,6.29,0,0,0-.35-.79H26.15v-.83h3.22a5.11,5.11,0,0,0-.21-.52l.94-.15a5.24,5.24,0,0,1,.23.67h3.25v.83H31.84a7.23,7.23,0,0,1-.37.79h1.78v4.45c0,.66-.29,1-.86,1h-.85l-.21-.78.79,0c.19,0,.29-.15.29-.44v-2.17l-.61.6a4.12,4.12,0,0,0-.28-.31v2.16H28.2Zm4.21-.44v-1.24H30.85A17.36,17.36,0,0,1,32.41,342Zm-1.68-1.24H28.94l.56.5a6.09,6.09,0,0,1-1.11,1h3a12.57,12.57,0,0,0-1.23-1Zm-1.88,0H27.3v1.19A6.12,6.12,0,0,0,28.85,340.71Zm1.83,3V343H29v.71ZM29.06,340h1.47c.13-.26.25-.52.36-.79H28.76C28.86,339.41,29,339.67,29.06,340ZM35.79,338h4.78v3H35.79Zm3.91,2.16v-1.34h-3v1.34Zm-1.9,1.36v3.79H37v-.39H35.52v.39h-.85v-3.79Zm-2.28,2.59H37v-1.78H35.52Zm6.17-2.59v3.79h-.87v-.39H39.3v.39h-.85v-3.79Zm-2.39,2.59h1.52v-1.78H39.3Zm5-2.62a4.22,4.22,0,0,1-.84.94l-.54-.65a4,4,0,0,0,1.34-2.21l.8.14a6.45,6.45,0,0,1-.37,1.1,7.5,7.5,0,0,1,1,.64l-.46.73A6.45,6.45,0,0,0,44.32,341.5Zm4.21-.05a4,4,0,0,1-.66.75l-.54-.68a3.59,3.59,0,0,0,1.09-1.93l.81.14a6.2,6.2,0,0,1-.32,1,6.93,6.93,0,0,1,1.16.78l-.48.75A6.49,6.49,0,0,0,48.53,341.45Zm-2.48.19V339.4h-3v-.84h3v-.79h.89v.79h3v.84h-3v2.18a8.82,8.82,0,0,0,3.4,2.68l-.47.81a9.58,9.58,0,0,1-2.93-2.24v2.6h-.89v-2.59a9.64,9.64,0,0,1-2.92,2.27l-.45-.79A8.9,8.9,0,0,0,46.05,341.64Zm5.65-3.77a12.41,12.41,0,0,1,1.49,1.26l-.59.59a8.78,8.78,0,0,0-1.48-1.29Zm-.15,2a10.09,10.09,0,0,1,1.38,1.21l-.58.59A8,8,0,0,0,51,340.47Zm.73,2.28.75.3a28.14,28.14,0,0,1-1.18,2.94l-.81-.36A23.36,23.36,0,0,0,52.28,342.19Zm2.35-2.83h1.12c.07-.2.12-.39.17-.58h-1.7v2.08a10.25,10.25,0,0,1-1,4.6l-.65-.58a9.24,9.24,0,0,0,.78-4V338H58.5v.77H56.73c0,.2-.1.39-.16.58H58.1v3.08H56.79v2.16c0,.55-.26.82-.77.82h-.7l-.19-.78a4,4,0,0,0,.6.05c.15,0,.24-.1.24-.3v-1.95H54.63Zm2.71,2.4v-.55h-2v.55Zm-2-1.17h2V340h-2Zm-.65,2.33.76.16a6.36,6.36,0,0,1-.84,1.94l-.7-.44A4.85,4.85,0,0,0,54.73,342.92Zm3.11-.05a12.05,12.05,0,0,1,.8,1.82l-.73.32a14.17,14.17,0,0,0-.79-1.89Zm-32,8.77h4.86v.59h-2.1v5.35h-.67v-5.35H25.85Zm7.39,1.53a1.72,1.72,0,0,1,1.36.48,1.7,1.7,0,0,1,.39,1.17v2.76h-.63v-.72a2,2,0,0,1-.65.57,2.16,2.16,0,0,1-1.08.27,1.53,1.53,0,0,1-1-.33,1.09,1.09,0,0,1-.4-.86,1.22,1.22,0,0,1,.59-1.11,2.81,2.81,0,0,1,1.5-.36l1,0v-.22a1,1,0,0,0-1.12-1.09,1.33,1.33,0,0,0-.78.2,1,1,0,0,0-.43.61l-.65,0a1.43,1.43,0,0,1,.66-1A2.28,2.28,0,0,1,33.24,353.17Zm1.08,2.35-1,0c-1,0-1.45.33-1.45.95a.58.58,0,0,0,.25.49,1,1,0,0,0,.64.19,1.63,1.63,0,0,0,1.09-.4,1.14,1.14,0,0,0,.46-.88Zm2.24-3.86a.48.48,0,0,1,.36.14.44.44,0,0,1,.15.35.49.49,0,0,1-.15.36.52.52,0,0,1-.36.14.5.5,0,0,1-.35-.14.49.49,0,0,1-.15-.36.44.44,0,0,1,.15-.35A.46.46,0,0,1,36.56,351.66Zm-.33,1.62h.67v4.3h-.67Zm1.44,0h.73l1.06,3.49,1-3.49h.63l1,3.49,1.05-3.49h.73l-1.46,4.3h-.63l-1-3.46-1,3.46h-.63Zm8.62-.11a1.72,1.72,0,0,1,1.36.48,1.7,1.7,0,0,1,.39,1.17v2.76h-.63v-.72a2,2,0,0,1-.65.57,2.16,2.16,0,0,1-1.08.27,1.53,1.53,0,0,1-1-.33,1.09,1.09,0,0,1-.4-.86,1.22,1.22,0,0,1,.59-1.11,2.81,2.81,0,0,1,1.5-.36l1,0v-.22a1,1,0,0,0-1.12-1.09,1.3,1.3,0,0,0-.77.2.93.93,0,0,0-.44.61l-.65,0a1.43,1.43,0,0,1,.66-1A2.28,2.28,0,0,1,46.29,353.17Zm1.08,2.35-1,0c-1,0-1.45.33-1.45.95a.58.58,0,0,0,.25.49,1,1,0,0,0,.64.19,1.63,1.63,0,0,0,1.09-.4,1.14,1.14,0,0,0,.46-.88Zm3.71-2.35c1.06,0,1.6.59,1.6,1.77v2.64H52V355c0-.84-.39-1.26-1.13-1.26a1.07,1.07,0,0,0-.78.33,1.36,1.36,0,0,0-.38.93v2.59h-.67v-4.3h.67v.63a1.47,1.47,0,0,1,.57-.54A1.49,1.49,0,0,1,51.08,353.17Zm3.21,3.42a.58.58,0,0,1,.46.23,1,1,0,0,1,.17.59,1.54,1.54,0,0,1-.33,1,1.56,1.56,0,0,1-.86.54v-.41a1.17,1.17,0,0,0,.53-.36,1,1,0,0,0,.18-.56.42.42,0,0,1-.18,0,.51.51,0,0,1-.51-.51.46.46,0,0,1,.16-.38A.48.48,0,0,1,54.29,356.59Zm6.26-3.42a1.33,1.33,0,0,1,1.35.81,1.47,1.47,0,0,1,.6-.61,1.29,1.29,0,0,1,.75-.2,1.47,1.47,0,0,1,1.09.42,1.65,1.65,0,0,1,.41,1.17v2.82h-.66v-2.71a1.29,1.29,0,0,0-.25-.85,1,1,0,0,0-.79-.29.87.87,0,0,0-.71.32,1.16,1.16,0,0,0-.29.84v2.69h-.67v-2.71q0-1.14-1-1.14a.92.92,0,0,0-.75.37,1.27,1.27,0,0,0-.3.86v2.62h-.67v-4.3h.67v.58A1.41,1.41,0,0,1,60.55,353.17Zm7.16,0a1.92,1.92,0,0,1,1.54.66,2.41,2.41,0,0,1,.54,1.61,2.31,2.31,0,0,1-.54,1.58,1.94,1.94,0,0,1-1.54.68,1.91,1.91,0,0,1-1.54-.68,2.27,2.27,0,0,1-.55-1.58,2.37,2.37,0,0,1,.55-1.61A1.9,1.9,0,0,1,67.71,353.17Zm0,.55a1.24,1.24,0,0,0-1.07.53,1.93,1.93,0,0,0-.34,1.19,2,2,0,0,0,.34,1.18,1.24,1.24,0,0,0,1.07.52,1.27,1.27,0,0,0,1.07-.52,2.05,2.05,0,0,0,.34-1.18,2,2,0,0,0-.34-1.19A1.28,1.28,0,0,0,67.71,353.72Zm4.83-.55a1.35,1.35,0,0,1,1.35.81,1.51,1.51,0,0,1,.59-.61,1.33,1.33,0,0,1,.76-.2,1.47,1.47,0,0,1,1.09.42,1.65,1.65,0,0,1,.41,1.17v2.82h-.67v-2.71a1.29,1.29,0,0,0-.24-.85,1,1,0,0,0-.8-.29.86.86,0,0,0-.7.32,1.17,1.17,0,0,0-.3.84v2.69h-.66v-2.71q0-1.14-1-1.14a.92.92,0,0,0-.76.37,1.27,1.27,0,0,0-.3.86v2.62h-.66v-4.3h.66v.58A1.44,1.44,0,0,1,72.54,353.17Zm7.15,0a1.91,1.91,0,0,1,1.54.66,2.37,2.37,0,0,1,.55,1.61,2.31,2.31,0,0,1-.54,1.58,2,2,0,0,1-1.55.68,1.9,1.9,0,0,1-1.53-.68,2.27,2.27,0,0,1-.55-1.58,2.37,2.37,0,0,1,.55-1.61A1.89,1.89,0,0,1,79.69,353.17Zm0,.55a1.24,1.24,0,0,0-1.06.53,1.93,1.93,0,0,0-.34,1.19,2,2,0,0,0,.34,1.18,1.23,1.23,0,0,0,1.06.52,1.29,1.29,0,0,0,1.08-.52,2.05,2.05,0,0,0,.34-1.18,2,2,0,0,0-.34-1.19A1.3,1.3,0,0,0,79.69,353.72Zm-52,26.59c-.36.2-.72.4-1.11.57l-.5-.73a9.77,9.77,0,0,0,3.48-2.39h.7a8.48,8.48,0,0,0,3.46,2.38l-.5.73a9.21,9.21,0,0,1-1.09-.53v.42H30.3v.93h2.86v.8H30.3v2H31a15.84,15.84,0,0,0,.66-1.63l.78.29a12.27,12.27,0,0,1-.57,1.34h1.57v.82H26.27v-.82h1.6a7,7,0,0,0-.57-1.28l.79-.29a9.51,9.51,0,0,1,.62,1.57h.73v-2H26.57v-.8h2.87v-.93H27.65Zm3.86-.32a8.06,8.06,0,0,1-1.64-1.41A10.1,10.1,0,0,1,28.16,380Zm3.77,1.23a5.23,5.23,0,0,1-.49.45l-.45-.57a3.56,3.56,0,0,0,1.24-1.72l.72.11-.13.36h1.06v-.71h-2v.72h-.75v-1.43h1.34a5.76,5.76,0,0,0-.21-.55l.85-.13c.07.2.12.43.18.68H38v1.43H37.6v.56a5.83,5.83,0,0,1-.64,1.07c.45.31.85.61,1.22.91l-.57.57-.08-.08v2.47h-.77V385H35.63v.43h-.76V383l-.2.07-.34-.69a3.88,3.88,0,0,0,1.53-.77Zm1.19.82a5.21,5.21,0,0,1-.89.65H37.3A9.57,9.57,0,0,0,36.47,382Zm-.11-1a4.6,4.6,0,0,0,.4-.58h-.93l-.11.19Zm-.73,3.14h1.13v-.85H35.63Zm2.7-4.89h1.15l.05-.56H38.1V378h3.8v.77H40.38l-.05.56h1.32v4.46h-.76a8.37,8.37,0,0,1,1.17,1.09l-.58.57a7.25,7.25,0,0,0-1.18-1.18l.5-.48H39.18l.55.48a5.51,5.51,0,0,1-1.35,1.23l-.51-.65a4.81,4.81,0,0,0,1.24-1.06h-.78Zm2.51,3.71v-.56H39.13v.56Zm-1.71-1.25h1.71v-.52H39.13Zm0-1.2h1.71v-.55H39.13Zm-13.28,12h4.86v.59h-2.1v5.35h-.67v-5.35H25.85Zm5,0h.77l1.31,5h0l1.35-5h.74l1.35,5h0l1.31-5h.77l-1.71,5.94h-.76l-1.34-4.95h0l-1.35,4.95H32.6Zm8.29,0h2.13a2.67,2.67,0,0,1,2.13.82,3.16,3.16,0,0,1,.67,2.15,3.06,3.06,0,0,1-.72,2.16,2.77,2.77,0,0,1-2.14.81H39.18Zm.69.59V398h1.26a2.37,2.37,0,0,0,1.75-.61,2.57,2.57,0,0,0,.55-1.77,2.6,2.6,0,0,0-.51-1.77,2.18,2.18,0,0,0-1.72-.61Zm9.63-.69v-.69h.41v.69a2,2,0,0,1,1.18.42,2.06,2.06,0,0,1,.63,1.3h-.67a1.35,1.35,0,0,0-.44-.88,1.29,1.29,0,0,0-.7-.27v2.18l1,.38a1.45,1.45,0,0,1,.89,1.33,1.54,1.54,0,0,1-.62,1.32,2.55,2.55,0,0,1-1.29.37v.73H49.5v-.73a1.86,1.86,0,0,1-1.29-.52,2.31,2.31,0,0,1-.58-1.48h.68a1.79,1.79,0,0,0,.4,1.08,1.23,1.23,0,0,0,.79.34V395.8l-.89-.32a1.5,1.5,0,0,1-.3-2.56A2,2,0,0,1,49.5,392.54Zm.41,3.41v2.16a1.6,1.6,0,0,0,.86-.29,1,1,0,0,0,.36-.8c0-.41-.3-.73-.88-.95Zm-.41-.81v-2a1.37,1.37,0,0,0-.72.23.94.94,0,0,0-.37.82c0,.37.29.67.88.9Zm3.58-2.5h3.46v.61h-2.9l-.2,2h0a1.49,1.49,0,0,1,.64-.45,1.86,1.86,0,0,1,.75-.14,1.79,1.79,0,0,1,1.37.53,2.11,2.11,0,0,1,.54,1.51,1.93,1.93,0,0,1-.64,1.47,2.19,2.19,0,0,1-1.48.54,2.07,2.07,0,0,1-1.34-.43,1.67,1.67,0,0,1-.68-1.29h.67a1.13,1.13,0,0,0,.45.87,1.5,1.5,0,0,0,.9.27,1.47,1.47,0,0,0,1-.4,1.43,1.43,0,0,0,.4-1,1.49,1.49,0,0,0-.38-1.09,1.28,1.28,0,0,0-1-.39,1.45,1.45,0,0,0-.76.18,1.14,1.14,0,0,0-.53.53h-.65Zm5.22,4.95a.55.55,0,0,1,.45.23,1,1,0,0,1,.17.59,1.5,1.5,0,0,1-1.19,1.51v-.41a1.12,1.12,0,0,0,.53-.36.92.92,0,0,0,.19-.56.47.47,0,0,1-.19,0,.49.49,0,0,1-.36-.15.52.52,0,0,1-.14-.36.5.5,0,0,1,.54-.52ZM62,392.53a1.69,1.69,0,0,1,1.89,1.59h-.67a1.12,1.12,0,0,0-1.23-1,1.22,1.22,0,0,0-1.1.69,3.19,3.19,0,0,0-.39,1.66s0,.11,0,.22h0a1.58,1.58,0,0,1,.64-.71,1.63,1.63,0,0,1,.93-.26,1.8,1.8,0,0,1,1.37.55,2,2,0,0,1,.51,1.41,2,2,0,0,1-.56,1.46,2,2,0,0,1-1.44.58,1.87,1.87,0,0,1-1.63-.81,3.69,3.69,0,0,1-.52-2.12,4.29,4.29,0,0,1,.56-2.31A1.81,1.81,0,0,1,62,392.53Zm0,2.73a1.32,1.32,0,0,0-1,.4,1.39,1.39,0,0,0-.38,1,1.43,1.43,0,0,0,.36,1,1.26,1.26,0,0,0,1,.42,1.31,1.31,0,0,0,1-.4,1.56,1.56,0,0,0,.37-1.06,1.37,1.37,0,0,0-.37-1A1.27,1.27,0,0,0,61.94,395.26Zm5-2.73a1.71,1.71,0,0,1,1.9,1.59h-.67a1.13,1.13,0,0,0-1.23-1,1.22,1.22,0,0,0-1.1.69,3.09,3.09,0,0,0-.39,1.66s0,.11,0,.22h0a1.58,1.58,0,0,1,.64-.71,1.6,1.6,0,0,1,.92-.26,1.81,1.81,0,0,1,1.38.55,2,2,0,0,1,.51,1.41,2,2,0,0,1-.56,1.46,2,2,0,0,1-1.44.58,1.84,1.84,0,0,1-1.63-.81,3.69,3.69,0,0,1-.52-2.12,4.21,4.21,0,0,1,.56-2.31A1.8,1.8,0,0,1,67,392.53Zm0,2.73a1.3,1.3,0,0,0-1,.4,1.4,1.4,0,0,0-.39,1,1.44,1.44,0,0,0,.37,1,1.25,1.25,0,0,0,1,.42,1.29,1.29,0,0,0,1-.4,1.57,1.57,0,0,0,.38-1.06,1.41,1.41,0,0,0-.37-1A1.29,1.29,0,0,0,66.93,395.26Zm5-2.73a1.71,1.71,0,0,1,1.9,1.59h-.68a1.12,1.12,0,0,0-1.23-1,1.21,1.21,0,0,0-1.09.69,3.09,3.09,0,0,0-.4,1.66s0,.11,0,.22h0a1.53,1.53,0,0,1,.64-.71,1.58,1.58,0,0,1,.92-.26,1.8,1.8,0,0,1,1.37.55,2,2,0,0,1,.52,1.41,2,2,0,0,1-.57,1.46,1.94,1.94,0,0,1-1.44.58,1.87,1.87,0,0,1-1.63-.81,3.7,3.7,0,0,1-.51-2.12,4.29,4.29,0,0,1,.55-2.31A1.82,1.82,0,0,1,71.94,392.53Zm0,2.73a1.34,1.34,0,0,0-1,.4,1.57,1.57,0,0,0,0,2,1.25,1.25,0,0,0,1,.42,1.29,1.29,0,0,0,1-.4,1.56,1.56,0,0,0,.37-1.06,1.4,1.4,0,0,0-.36-1A1.3,1.3,0,0,0,71.92,395.26Z"/><path class="cls-21" d="M127,338h2.4v5.23H127Zm1.62,4.52v-.88h-.84v.88Zm-.84-1.56h.84v-.81h-.84Zm0-1.49h.84v-.75h-.84Zm1.14,3.9a13.54,13.54,0,0,1,.75,1.42l-.62.42a13.2,13.2,0,0,0-.73-1.46Zm-1.49,0,.65.31a12.12,12.12,0,0,1-.7,1.63l-.67-.34A10.15,10.15,0,0,0,127.38,343.41Zm3.26-5.65h.79v.54h1v-.54h.8v.54h.91V339h-.91v.38H134V340h-.75v.39h1.08v.67h-2v.35H134v2.06h.42v.7H134v.6c0,.43-.25.65-.77.65h-.66l-.17-.7.61,0q.21,0,.21-.15v-.43h-2.46v1.26h-.78v-1.26h-.46v-.7h.46V341.4h1.61v-.35h-2v-.67h1.08V340h-.75v-.64h.75V339h-.92v-.67h.92Zm.07,5.7h.83V343h-.83Zm1.62,0h.84V343h-.84Zm-.9-3.08h1V340h-1Zm0-1h1V339h-1Zm1.74,3.11V342h-.84v.42Zm-1.63-.42h-.83v.42h.83Zm4.09-4h6.44v2.12h-6.44Zm5.61,1.44v-.74h-1.05v.74Zm-1.83,0v-.74H138.3v.74Zm-1.89,0v-.74h-1.05v.74Zm-1.41,1h5.51v3.76h-1.45a18.57,18.57,0,0,1,2.31.58l-.29.7a14.65,14.65,0,0,0-2.65-.75l.28-.53h-2l.34.45a8.34,8.34,0,0,1-2.58.85l-.39-.68a10.22,10.22,0,0,0,2.29-.62h-1.41Zm4.67,3.07v-.41h-3.84v.41Zm-3.84-1h3.84v-.39h-3.84Zm0-1h3.84v-.4h-3.84ZM150,338v7.4h-.87v-.57h-3.67v.58h-.87V338Zm-4.54,6h3.67v-2.24h-3.67Zm0-3.08h3.67v-2.05h-3.67ZM129,351.53a2,2,0,0,1,1.35.47,1.63,1.63,0,0,1,.53,1.26,2,2,0,0,1-.58,1.39,8.2,8.2,0,0,1-1.23,1,3,3,0,0,0-1.3,1.36h3.12v.61h-4a2.12,2.12,0,0,1,.59-1.47,7.75,7.75,0,0,1,1.29-1.06,6.06,6.06,0,0,0,.93-.74,1.54,1.54,0,0,0,.46-1.06,1.09,1.09,0,0,0-.32-.84,1.31,1.31,0,0,0-.91-.3,1.09,1.09,0,0,0-.94.42,1.81,1.81,0,0,0-.37,1.18H127a2.21,2.21,0,0,1,.56-1.58A1.9,1.9,0,0,1,129,351.53Zm4.9,0a1.73,1.73,0,0,1,1.6.94,5,5,0,0,1,0,4.29,1.84,1.84,0,0,1-3.21,0,5.13,5.13,0,0,1,0-4.29A1.73,1.73,0,0,1,133.87,351.53Zm0,.58a1.19,1.19,0,0,0-1.15.86,4.28,4.28,0,0,0-.25,1.64,4.4,4.4,0,0,0,.25,1.65,1.2,1.2,0,0,0,2.3,0,4.62,4.62,0,0,0,.25-1.65A4.48,4.48,0,0,0,135,353,1.19,1.19,0,0,0,133.87,352.11Zm5.07-.58a2,2,0,0,1,1.35.47,1.64,1.64,0,0,1,.54,1.26,2,2,0,0,1-.59,1.39,7.69,7.69,0,0,1-1.23,1,3,3,0,0,0-1.29,1.36h3.11v.61h-4a2.12,2.12,0,0,1,.59-1.47,7,7,0,0,1,1.29-1.06,7.32,7.32,0,0,0,.93-.74,1.53,1.53,0,0,0,.45-1.06,1.06,1.06,0,0,0-.32-.84,1.3,1.3,0,0,0-.91-.3,1.11,1.11,0,0,0-.94.42,1.8,1.8,0,0,0-.36,1.18h-.68a2.25,2.25,0,0,1,.55-1.58A1.9,1.9,0,0,1,138.94,351.53Zm5,0a2.11,2.11,0,0,1,1.38.43,1.47,1.47,0,0,1,.52,1.18,1.29,1.29,0,0,1-1,1.33,1.59,1.59,0,0,1,.8.51,1.28,1.28,0,0,1,.3.87,1.69,1.69,0,0,1-.57,1.32,2.12,2.12,0,0,1-1.49.53,2.17,2.17,0,0,1-1.38-.43,2.06,2.06,0,0,1-.71-1.53h.69a1.4,1.4,0,0,0,.47,1.07,1.43,1.43,0,0,0,.93.31,1.45,1.45,0,0,0,1-.37,1.19,1.19,0,0,0,.36-.87,1,1,0,0,0-.35-.83,1.43,1.43,0,0,0-1-.3h-.48v-.53h.46a1.41,1.41,0,0,0,.91-.26,1,1,0,0,0,.31-.78,1,1,0,0,0-.31-.77,1.27,1.27,0,0,0-.9-.29,1.29,1.29,0,0,0-.93.31,1.39,1.39,0,0,0-.41.93h-.67a1.92,1.92,0,0,1,.63-1.35A1.94,1.94,0,0,1,143.9,351.53Zm2.85,3.61H151v.57h-4.2Zm7.11-3.61a1.75,1.75,0,0,1,1.61.94,5.13,5.13,0,0,1,0,4.29,1.77,1.77,0,0,1-1.61.94,1.75,1.75,0,0,1-1.6-.94,5,5,0,0,1,0-4.29A1.73,1.73,0,0,1,153.86,351.53Zm0,.58a1.17,1.17,0,0,0-1.14.86,4.28,4.28,0,0,0-.25,1.64,4.4,4.4,0,0,0,.25,1.65,1.19,1.19,0,0,0,2.29,0,4.38,4.38,0,0,0,.26-1.65A4.26,4.26,0,0,0,155,353,1.19,1.19,0,0,0,153.86,352.11Zm5.07-.58a1.71,1.71,0,0,1,1.9,1.59h-.68a1.12,1.12,0,0,0-1.23-1,1.21,1.21,0,0,0-1.09.69,3.09,3.09,0,0,0-.39,1.66v.22h0a1.53,1.53,0,0,1,.64-.71,1.58,1.58,0,0,1,.92-.26,1.79,1.79,0,0,1,1.37.55,2,2,0,0,1,.52,1.41,2,2,0,0,1-.57,1.46,1.94,1.94,0,0,1-1.44.58,1.87,1.87,0,0,1-1.63-.81,3.7,3.7,0,0,1-.51-2.12,4.21,4.21,0,0,1,.56-2.31A1.8,1.8,0,0,1,158.93,351.53Zm0,2.73a1.34,1.34,0,0,0-1,.4,1.57,1.57,0,0,0,0,2,1.25,1.25,0,0,0,1,.42,1.29,1.29,0,0,0,1-.4,1.56,1.56,0,0,0,.37-1.06,1.4,1.4,0,0,0-.36-1A1.3,1.3,0,0,0,158.91,354.26Zm2.85.88H166v.57h-4.2Zm7.11-3.61a1.75,1.75,0,0,1,1.61.94,5.13,5.13,0,0,1,0,4.29,1.77,1.77,0,0,1-1.61.94,1.74,1.74,0,0,1-1.6-.94,5,5,0,0,1,0-4.29A1.72,1.72,0,0,1,168.87,351.53Zm0,.58a1.19,1.19,0,0,0-1.15.86,4.48,4.48,0,0,0-.25,1.64,4.62,4.62,0,0,0,.25,1.65,1.2,1.2,0,0,0,2.3,0,4.59,4.59,0,0,0,.26-1.65A4.46,4.46,0,0,0,170,353,1.19,1.19,0,0,0,168.87,352.11Zm5.07-.58a1.71,1.71,0,0,1,1.9,1.59h-.68a1.12,1.12,0,0,0-1.23-1,1.24,1.24,0,0,0-1.1.69,3.19,3.19,0,0,0-.39,1.66s0,.11,0,.22h0a1.55,1.55,0,0,1,.65-.71,1.58,1.58,0,0,1,.92-.26,1.8,1.8,0,0,1,1.37.55,2,2,0,0,1,.52,1.41,2.06,2.06,0,0,1-.57,1.46,2,2,0,0,1-1.44.58,1.87,1.87,0,0,1-1.63-.81,3.7,3.7,0,0,1-.51-2.12,4.29,4.29,0,0,1,.55-2.31A1.81,1.81,0,0,1,173.94,351.53Zm0,2.73a1.33,1.33,0,0,0-1,.4,1.39,1.39,0,0,0-.38,1,1.44,1.44,0,0,0,.37,1,1.23,1.23,0,0,0,1,.42,1.3,1.3,0,0,0,1-.4,1.56,1.56,0,0,0,.37-1.06,1.4,1.4,0,0,0-.36-1A1.3,1.3,0,0,0,173.92,354.26Zm-46.15,25.58a7.68,7.68,0,0,1,.85.59,4,4,0,0,0,.8-.69h-2.08V379h3.07v.62a3.64,3.64,0,0,1-1.2,1.35h.89v2.16h-1.86l-.11.68h2a9.88,9.88,0,0,1-.14,2.05c-.1.34-.51.53-1.25.56l-.88,0-.21-.77c.3,0,.6,0,.9,0s.64-.08.71-.21a3.44,3.44,0,0,0,.08-.92H127.3l.28-2.13h1.76v-.68h-1.56l-.59.21-.53-.68c.3-.08.58-.18.83-.27h0l.43-.17c-.23-.18-.49-.37-.79-.57Zm4.77-1.11.61.38a3.3,3.3,0,0,1-.59.55l-.36.23.34.24.45-.27a3.37,3.37,0,0,0,.54-.53l.61.37a3.83,3.83,0,0,1-.63.64l-.27.19a10,10,0,0,0,1.18.49l-.58.69c-.25-.1-.48-.21-.69-.31v.51c0,.15.1.22.31.22h.42v.7h-.64c-.55,0-.82-.25-.82-.75v-.37h-.94a1.56,1.56,0,0,1-.17.72,1.88,1.88,0,0,1-.61.62l-.6-.53a1.82,1.82,0,0,0,.54-.61,3.1,3.1,0,0,0,.11-.9h1.69a5.59,5.59,0,0,1-1.87-1.76l.68-.39a3.15,3.15,0,0,0,.43.55c.12-.07.25-.14.36-.22A3.06,3.06,0,0,0,132.54,378.73Zm-2,4.42h3v.73a3.6,3.6,0,0,1-.66,1.16c.48.27.93.53,1.32.8l-.6.61a11.31,11.31,0,0,0-1.28-.87,6,6,0,0,1-1.68.86l-.33-.76a5.37,5.37,0,0,0,1.23-.55c-.32-.17-.66-.35-1-.52l.52-.5c.39.17.74.35,1.09.53a3.16,3.16,0,0,0,.54-.72h-2.13Zm4.6-4.15h7.45v.74h-2.42v.49H142v2h-6.3v-2h1.85v-.49h-2.42Zm4.2,1.23v-.49h-1v.49Zm1.84,1.29v-.6h-1v.6Zm-1.84,0v-.6h-1v.6Zm-1.78,0v-.6h-1v.6Zm-1.46,1.13h5.58v.72H136.1Zm-.83,1.11h7.18v.74h-3.08v1.06a.76.76,0,0,1-.87.85h-.76l-.18-.76c.24,0,.46,0,.67,0a.28.28,0,0,0,.31-.32v-.87h-3.27Zm5.4.86a14.11,14.11,0,0,1,1.88,1.13l-.61.6a10.55,10.55,0,0,0-1.84-1.18Zm-3.45,0,.56.51a7.73,7.73,0,0,1-2,1.21l-.52-.68A8,8,0,0,0,137.22,384.63Zm-8.24,7.9a2.5,2.5,0,0,1,1.58.45,1.92,1.92,0,0,1,.68,1.42h-.67a1.49,1.49,0,0,0-.5-1,1.76,1.76,0,0,0-1.12-.31,2,2,0,0,0-1,.21.82.82,0,0,0-.43.76.81.81,0,0,0,.51.72,6.56,6.56,0,0,0,1.09.38,8,8,0,0,1,1.55.57,1.41,1.41,0,0,1,.74,1.26,1.44,1.44,0,0,1-.63,1.23,2.86,2.86,0,0,1-1.68.44,2.66,2.66,0,0,1-1.64-.45,2.11,2.11,0,0,1-.78-1.63h.68a1.65,1.65,0,0,0,.54,1.14,1.93,1.93,0,0,0,1.2.33,2.27,2.27,0,0,0,1.18-.27.86.86,0,0,0,.45-.75,1,1,0,0,0-.59-.88,7.87,7.87,0,0,0-1.25-.43,9.09,9.09,0,0,1-1.37-.48,1.27,1.27,0,0,1-.68-1.15,1.35,1.35,0,0,1,.66-1.2A2.61,2.61,0,0,1,129,392.53Zm3.26.11h2.65a2.08,2.08,0,0,1,1.32.4,1.39,1.39,0,0,1,.47,1.1,1.51,1.51,0,0,1-.26.87,1.68,1.68,0,0,1-.73.47,1.52,1.52,0,0,1,.91.48,1.46,1.46,0,0,1,.33,1,1.47,1.47,0,0,1-.61,1.29,2.54,2.54,0,0,1-1.44.36h-2.64Zm.68.58v2h1.81a1.53,1.53,0,0,0,1-.26,1,1,0,0,0,.33-.77.88.88,0,0,0-.33-.75,1.49,1.49,0,0,0-.94-.24Zm0,2.58V398h1.9a1.91,1.91,0,0,0,1-.24.94.94,0,0,0,.44-.85,1,1,0,0,0-.38-.85,1.73,1.73,0,0,0-1.05-.27Zm4.77.34h4.2v.57h-4.2Zm4.66-3.5h.74l1.86,5.2h0l1.86-5.2h.75l-2.2,5.94h-.84Zm7.18,0h.53v5.94h-.68v-5.1a3.26,3.26,0,0,1-1.4.81v-.68a3.48,3.48,0,0,0,.83-.36A3.1,3.1,0,0,0,149.53,392.64Zm4-.11a2,2,0,0,1,1.36.47,1.63,1.63,0,0,1,.53,1.26,2,2,0,0,1-.58,1.39,8.79,8.79,0,0,1-1.23,1,3,3,0,0,0-1.3,1.36h3.12v.61h-4a2.12,2.12,0,0,1,.59-1.47,7.34,7.34,0,0,1,1.29-1.06,7.32,7.32,0,0,0,.93-.74,1.54,1.54,0,0,0,.46-1.06,1.06,1.06,0,0,0-.33-.84,1.27,1.27,0,0,0-.9-.3,1.08,1.08,0,0,0-.94.42,1.75,1.75,0,0,0-.37,1.18h-.68a2.21,2.21,0,0,1,.56-1.58A1.86,1.86,0,0,1,153.53,392.53Zm5,0a2.09,2.09,0,0,1,1.38.43,1.47,1.47,0,0,1,.52,1.18,1.29,1.29,0,0,1-1,1.33,1.56,1.56,0,0,1,.79.51,1.28,1.28,0,0,1,.3.87,1.71,1.71,0,0,1-.56,1.32,2.13,2.13,0,0,1-1.5.53,2.19,2.19,0,0,1-1.38-.43,2.1,2.1,0,0,1-.71-1.53h.69a1.4,1.4,0,0,0,.47,1.07,1.45,1.45,0,0,0,.93.31,1.42,1.42,0,0,0,1-.37,1.15,1.15,0,0,0,.36-.87,1,1,0,0,0-.35-.83,1.42,1.42,0,0,0-1-.3H158v-.53h.45a1.41,1.41,0,0,0,.91-.26,1.11,1.11,0,0,0,0-1.55,1.31,1.31,0,0,0-.91-.29,1.29,1.29,0,0,0-.93.31,1.44,1.44,0,0,0-.41.93h-.67a1.89,1.89,0,0,1,2-1.83Zm5.63.11h.64v4h1v.55h-1v1.35h-.65v-1.35h-3v-.64Zm0,.89-2.39,3.15h2.41v-3.15Zm2.7-.89h3.45v.61h-2.9l-.2,2h0a1.49,1.49,0,0,1,.64-.45,1.86,1.86,0,0,1,.75-.14,1.83,1.83,0,0,1,1.38.53,2.1,2.1,0,0,1,.53,1.51,1.93,1.93,0,0,1-.64,1.47,2.19,2.19,0,0,1-1.48.54,2.07,2.07,0,0,1-1.34-.43,1.67,1.67,0,0,1-.68-1.29H167a1.13,1.13,0,0,0,.45.87,1.51,1.51,0,0,0,.91.27,1.46,1.46,0,0,0,1-.4,1.43,1.43,0,0,0,.4-1,1.49,1.49,0,0,0-.38-1.09,1.28,1.28,0,0,0-1-.39,1.47,1.47,0,0,0-.76.18,1.18,1.18,0,0,0-.53.53h-.65Zm6.69-.11a1.7,1.7,0,0,1,1.89,1.59h-.67a1.12,1.12,0,0,0-1.23-1,1.22,1.22,0,0,0-1.1.69,3.09,3.09,0,0,0-.39,1.66s0,.11,0,.22h0a1.58,1.58,0,0,1,.64-.71,1.63,1.63,0,0,1,.93-.26,1.8,1.8,0,0,1,1.37.55,2,2,0,0,1,.51,1.41,2,2,0,0,1-.56,1.46,2,2,0,0,1-1.44.58,1.86,1.86,0,0,1-1.63-.81,3.69,3.69,0,0,1-.52-2.12,4.29,4.29,0,0,1,.56-2.31A1.8,1.8,0,0,1,173.48,392.53Zm0,2.73a1.32,1.32,0,0,0-1,.4,1.39,1.39,0,0,0-.38,1,1.43,1.43,0,0,0,.36,1,1.26,1.26,0,0,0,1,.42,1.31,1.31,0,0,0,1-.4,1.61,1.61,0,0,0,.37-1.06,1.41,1.41,0,0,0-.37-1A1.29,1.29,0,0,0,173.45,395.26Zm2.72-2.62h3.9v.56l-2.19,5.38h-.72l2.21-5.31h-3.2Zm6.76-.11a2.08,2.08,0,0,1,1.45.48,1.43,1.43,0,0,1,.49,1.09,1.37,1.37,0,0,1-.23.8,1.39,1.39,0,0,1-.71.51v0a1.38,1.38,0,0,1,.79.52,1.46,1.46,0,0,1,.35,1,1.59,1.59,0,0,1-.55,1.27,2.84,2.84,0,0,1-3.19,0,1.62,1.62,0,0,1-.55-1.27,1.52,1.52,0,0,1,.35-1,1.42,1.42,0,0,1,.79-.52v0a1.29,1.29,0,0,1-.7-.51,1.37,1.37,0,0,1-.23-.8,1.42,1.42,0,0,1,.48-1.09A2.07,2.07,0,0,1,182.93,392.53Zm0,.55a1.38,1.38,0,0,0-1,.33.89.89,0,0,0-.31.71,1,1,0,0,0,.28.74,1.4,1.4,0,0,0,1,.33,1.43,1.43,0,0,0,1-.33,1,1,0,0,0,.28-.74.92.92,0,0,0-.31-.71A1.43,1.43,0,0,0,182.93,393.08Zm0,2.64a1.58,1.58,0,0,0-1.11.36,1.07,1.07,0,0,0-.36.86,1.08,1.08,0,0,0,.36.86,1.65,1.65,0,0,0,1.11.34,1.62,1.62,0,0,0,1.11-.35,1.08,1.08,0,0,0,.36-.85,1.1,1.1,0,0,0-.36-.86A1.59,1.59,0,0,0,182.93,395.72Zm4.92-3.19a1.83,1.83,0,0,1,1.62.8,3.65,3.65,0,0,1,.52,2.12,4.45,4.45,0,0,1-.55,2.32,1.86,1.86,0,0,1-1.6.93,1.7,1.7,0,0,1-1.9-1.59h.68a1.12,1.12,0,0,0,1.23,1,1.25,1.25,0,0,0,1.1-.69,3.31,3.31,0,0,0,.39-1.66s0-.12,0-.22h0a1.71,1.71,0,0,1-1.56,1,1.79,1.79,0,0,1-1.38-.57,2.15,2.15,0,0,1,.06-2.85A1.91,1.91,0,0,1,187.85,392.53Zm0,.57a1.25,1.25,0,0,0-1,.41,1.48,1.48,0,0,0-.36,1.05,1.36,1.36,0,0,0,.36,1,1.27,1.27,0,0,0,1,.39,1.32,1.32,0,0,0,1-.4,1.56,1.56,0,0,0,0-2A1.24,1.24,0,0,0,187.86,393.1Z"/><line class="cls-19" x1="18.58" y1="410.41" x2="219.94" y2="410.41"/><rect class="cls-3" x="18.58" y="410.71" width="201.37" height="28.51"/><path class="cls-14" d="M27.72,421.26l.82.4a8.68,8.68,0,0,1-.72,1.69v5.71h-.88V424.7c-.23.28-.47.56-.72.83l-.28-.93A9.16,9.16,0,0,0,27.72,421.26Zm1.12.42H32.9v2.81H31.29v.66h2.3V426H32.05a6.16,6.16,0,0,0,1.7,1.88l-.56.75A8.49,8.49,0,0,1,31.35,426h-.06v3.05h-.86V426h-.07a7.16,7.16,0,0,1-1.88,2.64l-.49-.78A5.79,5.79,0,0,0,29.67,426H28.22v-.85h2.21v-.66H28.84Zm3.21,2v-1.15H29.69v1.15Zm3.82-.18h1.88v-.76h.86v.76h1.87v.81H38.61V425H40v2.43H36.41V425h1.34v-.69H35.87Zm3.27,3.18v-1H37.22v1Zm2.51-5v7.43h-.86v-.33H35.57v.33H34.7v-7.43Zm-6.08,6.29h5.22v-5.47H35.57Zm8.13.66V429h-.81V426h2.35v3h-.81v-.34Zm.73-.79v-1H43.7v1Zm-1.71-5.48h1c-.11-.25-.23-.5-.35-.75l.84-.23c.15.36.25.69.34,1h.84v.8H42.72Zm.25,1.25h2.19v.76H43Zm0,1.17h2.19v.76H43Zm4.5-1.18h-1.8v-.81h1.09a9.25,9.25,0,0,0-.64-1l.72-.35c.23.36.46.75.69,1.16l-.45.23h1.18a14,14,0,0,0,.57-1.42l.82.3a7.29,7.29,0,0,1-.54,1.12h1v.81H48.33v1h1.53v.81H48.33v1h2v.82h-2v1.91h-.86v-1.91h-2v-.82h2v-1H45.93v-.81h1.54ZM55,426.7v.39h2.39v-.39Zm2.39-.65v-.41H55v.41ZM55,427.74V429h-.81v-4.08h4v3.24q0,.81-.84.81h-.61l-.22-.76.58,0a.24.24,0,0,0,.27-.27v-.26Zm.78-6.39h.86v.46h1.83v.7H56.59v.37h1.55v.68H56.59v.35h2.07v.71h-5v-.28l-.44.11c-.11-.43-.23-.85-.37-1.24V429H52v-7.64h.85v1.57l.51-.17a10.79,10.79,0,0,1,.39,1.14h2v-.35H54.15v-.68h1.58v-.37H53.87v-.7h1.86ZM51.14,423l.65.05a12.73,12.73,0,0,1-.26,2.36l-.65-.18A11.44,11.44,0,0,0,51.14,423Z"/><path class="cls-20" d="M208.32,422.18a.3.3,0,0,0,0,.16.24.24,0,0,0,0,.14l2.06,2.23-2.06,2.23a.24.24,0,0,0,0,.14.25.25,0,0,0,0,.15.2.2,0,0,0,.14.06.22.22,0,0,0,.14-.05l2.18-2.38a.22.22,0,0,0,0-.3l-2.18-2.38a.22.22,0,0,0-.14-.05.24.24,0,0,0-.14.05Z"/><line class="cls-19" x1="18.58" y1="438.92" x2="219.94" y2="438.92"/><line class="cls-19" x1="18.58" y1="438.92" x2="219.94" y2="438.92"/><line class="cls-19" x1="18.58" y1="438.92" x2="219.94" y2="438.92"/><path class="cls-14" d="M19.35,455.29h4.4q-.15-.23-.3-.42l1-.16c.12.18.24.37.36.58h3.91v.92H24.85A5.94,5.94,0,0,0,26,457.39a6.08,6.08,0,0,0,1.19-1.05l.72.62a6.56,6.56,0,0,1-1.13.92,8.73,8.73,0,0,0,2.09.79l-.59.88a7.35,7.35,0,0,1-4.43-3.25,7.77,7.77,0,0,1-1.44,1v1.06q1.17-.22,2.19-.51l.15.88c-1,.24-2.13.48-3.49.69l-.2-.77c.26-.11.39-.26.39-.46v-.42c-.51.22-1.08.41-1.68.6l-.53-.89a11.38,11.38,0,0,0,3.5-1.28H19.35ZM20.68,451l-.19.42-.88-.27a3.51,3.51,0,0,0,.51-1.54l.87.12-.07.44h.9v-.59h1v.59h1.8V451h-1.8v.46H25v.84H22.83v.44h2V454c0,.39-.32.59-.95.59h-.62l-.18-.71.54,0c.17,0,.26-.06.26-.19v-.27h-1v1.37h-1v-1.37h-.95v1.2h-.94v-1.93h1.89v-.44H19.43v-.84h2.39V451Zm4.68-.84h1v3.16h-1Zm2,4.64H26.12l-.22-1c.4,0,.79.05,1.15.05s.35-.1.35-.27v-4h1v4.27C28.42,454.49,28.08,454.81,27.4,454.81Zm3.5-5.21a15.2,15.2,0,0,1,1.81,1.75l-.78.77a11.15,11.15,0,0,0-1.79-1.8ZM37,459.29l-1.91,0a8.45,8.45,0,0,1-1.71-.18,2.43,2.43,0,0,1-1.12-.74c-.15-.18-.28-.27-.4-.27s-.58.48-1.11,1.45l-.82-.77a4.57,4.57,0,0,1,1.43-1.64v-2.93H29.94v-1h2.45v4.07l.11.11a3,3,0,0,0,.74.64,3.55,3.55,0,0,0,1.42.26l2.17,0h1.63l1.26-.06-.28,1.1Zm-2.49-7.52c-.17.35-.36.68-.55,1l-.91-.58a7.56,7.56,0,0,0,1.07-2.35l1,.22c-.06.24-.14.47-.21.7h1v-1.17h1.06v1.17H39v1H36.93v1.05h2.63v1H32.93v-1h2.94v-1.05Zm-.72,2.67h5v3.23h-5Zm3.95,2.19v-1.17H34.84v1.17Zm5.58-1.09c-.18.13-.36.24-.53.35l-.62-.8v4.3H41.08v-7h2.2a9.36,9.36,0,0,0-.46-1H40.67v-1.07h4.15a6.9,6.9,0,0,0-.28-.66l1.22-.2a7.86,7.86,0,0,1,.29.86h4.18v1.07H48a8.61,8.61,0,0,1-.49,1H49.8v5.72c0,.86-.37,1.3-1.1,1.3H47.61l-.28-1,1,.05c.23,0,.36-.2.36-.57V455.1l-.78.77c-.12-.14-.23-.27-.36-.4v2.77H43.31Zm5.41-.57v-1.59h-2A19.15,19.15,0,0,1,48.72,455Zm-2.16-1.59h-2.3L45,454a9,9,0,0,1-1.42,1.34h3.9A14.1,14.1,0,0,0,45.88,454Zm-2.41,0h-2v1.53A8.26,8.26,0,0,0,44.15,453.38Zm2.35,3.88v-.92H44.39v.92Zm-2.08-4.87h1.89c.17-.33.32-.67.47-1H44C44.17,451.7,44.3,452,44.42,452.39Z"/><rect class="cls-22" x="18.58" y="469.48" width="201.37" height="42.17" rx="7.13"/><path class="cls-23" d="M207.76,205.35l1.8,1,2.08-3.6-1.8-1Zm-.23.56.31,1.37,1.35-.43Zm2.6-4.68,1.8,1,.53-.91-1.8-1Zm-3.26,4.45,3.57-6.17,2.83,1.64-3.56,6.17-2.31.72Zm3.57,2.36v-.59h4.16V208Z"/></g></g></g><rect class="cls-24" x="4.13" y="3.56" width="230.21" height="489.75" rx="22.16"/><rect class="cls-3" x="194.38" y="236.81" width="79.88" height="79.52" rx="11.15"/><g class="cls-25"><path class="cls-26" d="M226.69,283.74a13.08,13.08,0,1,0-3.25-18.12A13,13,0,0,0,226.69,283.74Z"/><path class="cls-6" d="M237.17,268.5a9.35,9.35,0,1,0-2.32-12.94A9.31,9.31,0,0,0,237.17,268.5Z"/><path class="cls-27" d="M241.52,262.18a12.76,12.76,0,0,0-8.28-2.22,9.2,9.2,0,0,0,13.32,9.16A12.81,12.81,0,0,0,241.52,262.18Z"/></g><path d="M224.27,300.76h3.87v1h-3.87Zm0,1.72h3.87v1h-3.87Zm3.77-6,1.14.4a15.39,15.39,0,0,1-1,1.85l-1-.38A11.45,11.45,0,0,0,228,296.45Zm-4.85.51,1-.44a6.65,6.65,0,0,1,.95,1.76l-1,.49A7.18,7.18,0,0,0,223.19,297Zm.3,2h4.67V300h-3.51v5.33h-1.16Zm4.12,0h1.14v5.17c0,.55-.11.86-.47,1.05a4.21,4.21,0,0,1-1.63.18,4.07,4.07,0,0,0-.35-1.09c.45,0,1,0,1.11,0s.2,0,.2-.17Zm-2-2.73h1.18v3.46h-1.18Zm-5,.91.68-.82a7.61,7.61,0,0,1,1.76,1.12l-.73.89A8.23,8.23,0,0,0,220.57,297.13Zm-.45,2.59.66-.83a7.59,7.59,0,0,1,1.8,1.12l-.7.92A7.83,7.83,0,0,0,220.12,299.72Zm.27,4.86a27.68,27.68,0,0,0,1.68-3.12l.86.71c-.44,1.05-1,2.18-1.51,3.17Zm11-6.85h5.8v-.38h-6.5v-.69h7.57v1.76h-6.87Zm-.34,0h1.09c-.2.63-.44,1.36-.64,1.84l-1.06-.07A14.06,14.06,0,0,0,231,297.73Zm.11,1.06h7v.7H230.9Zm6.63,0h1.09s0,.2,0,.31a2.2,2.2,0,0,1-.27,1.17.92.92,0,0,1-.57.24c-.19,0-.54,0-.92,0a2,2,0,0,0-.21-.7,4.94,4.94,0,0,0,.55,0,.24.24,0,0,0,.2-.07,2.08,2.08,0,0,0,.14-.85Zm-4.88-2.56h1.07v2c0,1.38-.47,2.43-3.37,2.86a3.3,3.3,0,0,0-.55-.89c2.5-.34,2.85-1,2.85-2Zm2.16,0h1.11v3.93H235Zm-2.59,5.58v.4h4.21v-.4Zm0,1v.4h4.21v-.4Zm0-2v.39h4.21v-.39Zm-1.14-.66h6.54v3.76H231.3Zm3.74,4.23.94-.58c1.05.32,2.27.76,3,1.06l-1.31.56A18.55,18.55,0,0,0,235,304.36Zm-2.15-.58,1.05.47a12.63,12.63,0,0,1-3.05,1.17,8.52,8.52,0,0,0-.85-.85A10.69,10.69,0,0,0,232.89,303.78Zm7-4.6h8.78v1h-8.78Zm.85-1.9h5.58v1h-5.58Zm1.72,5.31h4.36v.87h-4.36Zm0,1.53h4.36v1h-4.36Zm.58-7.89h1.15v3.53H243Zm4.29.28,1,.52a17.17,17.17,0,0,1-8.05,5.78,6.13,6.13,0,0,0-.7-1A14.93,14.93,0,0,0,247.32,296.51ZM241.8,301h5.75v4.35h-1.22V302H243v3.44H241.8Z"/><rect class="cls-3" x="415.88" y="236.81" width="79.88" height="79.52" rx="11.15"/><rect class="cls-28" x="416.63" y="237.56" width="78.38" height="78.02" rx="10.4"/><path d="M436.18,296.93a3.29,3.29,0,0,1-1.33-.26,2.12,2.12,0,0,1-.9-.74,2,2,0,0,1-.34-1.18h1.31a1.19,1.19,0,0,0,.34.81,1.24,1.24,0,0,0,.91.33,1.22,1.22,0,0,0,.79-.24.81.81,0,0,0,.29-.64.87.87,0,0,0-.26-.66,2.09,2.09,0,0,0-.68-.38l-.92-.31a3,3,0,0,1-1.21-.7,1.61,1.61,0,0,1-.41-1.14,1.73,1.73,0,0,1,.28-1,2,2,0,0,1,.82-.68,3.1,3.1,0,0,1,2.39,0,1.93,1.93,0,0,1,.82.69,1.88,1.88,0,0,1,.32,1h-1.33a.89.89,0,0,0-.29-.63,1,1,0,0,0-.74-.29,1.07,1.07,0,0,0-.69.21.7.7,0,0,0-.27.6.74.74,0,0,0,.21.55,1.83,1.83,0,0,0,.59.33l.85.29a7.09,7.09,0,0,1,.92.41,1.85,1.85,0,0,1,.67.63,1.72,1.72,0,0,1,.26,1,1.89,1.89,0,0,1-.27,1,2.1,2.1,0,0,1-.81.75A2.93,2.93,0,0,1,436.18,296.93Zm5.86,0a2.65,2.65,0,0,1-1.31-.32,2.43,2.43,0,0,1-.9-.9,2.86,2.86,0,0,1,0-2.63,2.29,2.29,0,0,1,.9-.9,2.65,2.65,0,0,1,1.31-.32,2.48,2.48,0,0,1,1.56.49,2.14,2.14,0,0,1,.81,1.32h-1.32a1,1,0,0,0-.39-.54,1.09,1.09,0,0,0-.67-.21,1.15,1.15,0,0,0-.88.39,1.53,1.53,0,0,0-.36,1.08,1.56,1.56,0,0,0,.36,1.09,1.2,1.2,0,0,0,1.55.19,1,1,0,0,0,.39-.56h1.32a2.23,2.23,0,0,1-.81,1.32A2.49,2.49,0,0,1,442,296.93Zm5.17,0a2.28,2.28,0,0,1-1-.2,1.36,1.36,0,0,1-.6-.53,1.42,1.42,0,0,1-.19-.73,1.34,1.34,0,0,1,.52-1.1,2.5,2.5,0,0,1,1.58-.42h1.23v-.11a.88.88,0,0,0-.28-.73,1,1,0,0,0-.7-.24,1.15,1.15,0,0,0-.67.19.75.75,0,0,0-.35.52h-1.22a1.78,1.78,0,0,1,.35-.91,2.09,2.09,0,0,1,.8-.6,2.77,2.77,0,0,1,1.1-.21,2.35,2.35,0,0,1,1.62.52,1.81,1.81,0,0,1,.6,1.46v3h-1.06l-.12-.78a1.7,1.7,0,0,1-.61.64A1.72,1.72,0,0,1,447.21,296.93Zm.28-1a1,1,0,0,0,.83-.35,1.65,1.65,0,0,0,.38-.87h-1.06a1.1,1.1,0,0,0-.71.19.53.53,0,0,0-.22.44.51.51,0,0,0,.22.44A1,1,0,0,0,447.49,296Zm3.71.86V292h1.1l.1.81a1.74,1.74,0,0,1,.64-.68,1.94,1.94,0,0,1,1-.25,1.78,1.78,0,0,1,1.39.56,2.46,2.46,0,0,1,.5,1.66v2.73h-1.25V294.2a1.62,1.62,0,0,0-.25-1,.94.94,0,0,0-.79-.33,1.13,1.13,0,0,0-.87.37,1.51,1.51,0,0,0-.33,1v2.49Zm6.63-5.59a.79.79,0,0,1-.56-.2.67.67,0,0,1-.22-.52.63.63,0,0,1,.22-.5.79.79,0,0,1,.56-.21.76.76,0,0,1,.56.21.63.63,0,0,1,.22.5.67.67,0,0,1-.22.52A.76.76,0,0,1,457.83,291.22Zm-.62,5.59V292h1.25v4.83Zm6.42,2.15v-2.84a2.25,2.25,0,0,1-.62.56,1.79,1.79,0,0,1-1,.25,2.3,2.3,0,0,1-1.22-.33,2.48,2.48,0,0,1-.85-.91,2.78,2.78,0,0,1-.31-1.31,2.7,2.7,0,0,1,.31-1.29,2.3,2.3,0,0,1,2.07-1.23,2.22,2.22,0,0,1,1,.2,1.76,1.76,0,0,1,.66.58l.14-.66h1.11v7Zm-1.36-3.12a1.32,1.32,0,0,0,1-.4,1.47,1.47,0,0,0,.39-1.05,1.42,1.42,0,0,0-.39-1,1.29,1.29,0,0,0-1-.41,1.3,1.3,0,0,0-1,.4,1.42,1.42,0,0,0-.39,1,1.47,1.47,0,0,0,.39,1.05A1.31,1.31,0,0,0,462.27,295.84Zm5.72,1.09a1.76,1.76,0,0,1-1.4-.57,2.43,2.43,0,0,1-.49-1.65V292h1.24v2.61a1.54,1.54,0,0,0,.25,1,1,1,0,0,0,.8.34,1.08,1.08,0,0,0,.85-.38,1.44,1.44,0,0,0,.34-1V292h1.25v4.83h-1.1l-.1-.82a1.64,1.64,0,0,1-.65.68A1.87,1.87,0,0,1,468,296.93Zm6.5,0a2.74,2.74,0,0,1-1.3-.31,2.26,2.26,0,0,1-.88-.88,2.55,2.55,0,0,1-.33-1.31,2.75,2.75,0,0,1,.32-1.33,2.25,2.25,0,0,1,.87-.91,2.6,2.6,0,0,1,1.33-.33,2.5,2.5,0,0,1,1.26.31,2.17,2.17,0,0,1,.84.86,2.34,2.34,0,0,1,.32,1.2c0,.07,0,.14,0,.22s0,.16,0,.25h-3.68a1.29,1.29,0,0,0,.39.88,1.23,1.23,0,0,0,.87.32,1.14,1.14,0,0,0,.63-.16,1,1,0,0,0,.39-.45h1.27a2.26,2.26,0,0,1-1.24,1.42A2.31,2.31,0,0,1,474.49,296.93Zm0-4.06a1.28,1.28,0,0,0-.81.27,1.17,1.17,0,0,0-.45.78h2.41a1.05,1.05,0,0,0-.35-.76A1.17,1.17,0,0,0,474.5,292.87Zm-25.07,14.94V302h-2v-1h5.23v1h-2v5.82Zm5,.12a2.36,2.36,0,0,1-1-.2,1.39,1.39,0,0,1-.59-.53,1.43,1.43,0,0,1-.2-.73,1.35,1.35,0,0,1,.53-1.1,2.5,2.5,0,0,1,1.58-.42H456v-.11a.91.91,0,0,0-.28-.73,1.07,1.07,0,0,0-.71-.24,1.14,1.14,0,0,0-.66.19.75.75,0,0,0-.35.52h-1.22a1.69,1.69,0,0,1,.35-.91,2.09,2.09,0,0,1,.8-.6,2.75,2.75,0,0,1,1.09-.21,2.36,2.36,0,0,1,1.63.52,1.81,1.81,0,0,1,.6,1.46v3h-1.07L456,307a1.78,1.78,0,0,1-.61.64A1.72,1.72,0,0,1,454.44,307.93Zm.28-1a1,1,0,0,0,.83-.35,1.65,1.65,0,0,0,.38-.87h-1.06a1.13,1.13,0,0,0-.72.19.55.55,0,0,0-.21.44.52.52,0,0,0,.21.44A1,1,0,0,0,454.72,307Zm5.75-.58a2.69,2.69,0,0,1-.65-.08l-.36.36a1.68,1.68,0,0,0,.45.15,7.18,7.18,0,0,0,.92.11,2.59,2.59,0,0,1,1.4.46,1.29,1.29,0,0,1,.44,1,1.52,1.52,0,0,1-.24.81,1.59,1.59,0,0,1-.72.62,2.81,2.81,0,0,1-1.25.24,3.14,3.14,0,0,1-1.66-.39,1.23,1.23,0,0,1-.64-1.15,1.39,1.39,0,0,1,.64-1.13,2.63,2.63,0,0,1-.34-.18,1.84,1.84,0,0,1-.25-.21v-.22l.85-.9a1.62,1.62,0,0,1-.57-1.28,1.66,1.66,0,0,1,.24-.88,1.75,1.75,0,0,1,.68-.64,2.52,2.52,0,0,1,1.82-.11h1.84v.76l-.83.05a1.74,1.74,0,0,1,.19.82,1.69,1.69,0,0,1-.23.89,1.6,1.6,0,0,1-.68.63A2.17,2.17,0,0,1,460.47,306.37Zm0-1a1,1,0,0,0,.63-.2.71.71,0,0,0,.25-.59.69.69,0,0,0-.25-.58.92.92,0,0,0-.63-.21,1,1,0,0,0-.64.21.71.71,0,0,0-.24.58.73.73,0,0,0,.24.59A1,1,0,0,0,460.47,305.41Zm-1.17,3a.55.55,0,0,0,.34.53,1.61,1.61,0,0,0,.82.19,1.32,1.32,0,0,0,.76-.2.57.57,0,0,0,.1-.94,1.25,1.25,0,0,0-.75-.22c-.26,0-.51,0-.74-.09a1.21,1.21,0,0,0-.41.35A.68.68,0,0,0,459.3,308.41Z"/><rect x="439.88" y="261.06" width="31.5" height="21"/><rect class="cls-23" x="439.88" y="248.81" width="31.5" height="21"/><path class="cls-29" d="M279.88,280.31h126"/><path class="cls-29" d="M505.88,280.31h96"/><rect class="cls-30" x="332.88" y="268.31" width="24" height="24"/><g class="cls-31"><path class="cls-23" d="M343.2,285.83l8.46-8.46L350,275.69l-6.78,6.78-3.42-3.42-1.68,1.68Zm1.68,6.48a11.68,11.68,0,0,1-4.68-.94,12,12,0,0,1-6.37-6.38,12,12,0,0,1,0-9.36,11.92,11.92,0,0,1,6.37-6.37,12,12,0,0,1,9.36,0,12,12,0,0,1,6.38,6.37,12.12,12.12,0,0,1,0,9.36,12,12,0,0,1-6.38,6.38A11.68,11.68,0,0,1,344.88,292.31Z"/></g><rect class="cls-30" x="541.88" y="268.31" width="24" height="24"/><g class="cls-32"><path class="cls-23" d="M552.2,285.83l8.46-8.46L559,275.69l-6.78,6.78-3.42-3.42-1.68,1.68Zm1.68,6.48a11.68,11.68,0,0,1-4.68-.94,12,12,0,0,1-6.37-6.38,12,12,0,0,1,0-9.36,11.92,11.92,0,0,1,6.37-6.37,12,12,0,0,1,9.36,0,12,12,0,0,1,6.38,6.37,12.12,12.12,0,0,1,0,9.36,12,12,0,0,1-6.38,6.38A11.68,11.68,0,0,1,553.88,292.31Z"/></g><rect class="cls-2" x="388.88" y="85.31" width="134" height="325"/></svg>