<svg id="圖層_2" data-name="圖層 2" xmlns="http://www.w3.org/2000/svg" xmlns:xlink="http://www.w3.org/1999/xlink" viewBox="0 0 79.88 79.52"><defs><style>.cls-1{fill:none;}.cls-2{fill:#fff;}.cls-3{clip-path:url(#clip-path);}.cls-4{fill:#39b54a;}.cls-5{fill:#f4ef42;}.cls-6{isolation:isolate;opacity:0.8;fill:url(#未命名漸層_2);}</style><clipPath id="clip-path"><rect class="cls-1" x="24.24" y="18.66" width="37.2" height="25.9" transform="translate(-7.48 49) rotate(-55.48)"/></clipPath><linearGradient id="未命名漸層_2" x1="-495.82" y1="1259.32" x2="-492.39" y2="1264.31" gradientTransform="matrix(1, 0, 0, -1, 539.06, 1290.36)" gradientUnits="userSpaceOnUse"><stop offset="0" stop-color="#f4ef42"/><stop offset="0.2" stop-color="#ebec42"/><stop offset="0.91" stop-color="#39b54a"/></linearGradient></defs><rect class="cls-2" width="79.88" height="79.52" rx="11.15"/><g class="cls-3"><path class="cls-4" d="M32.3,46.93a13.09,13.09,0,1,0-3.25-18.12A13,13,0,0,0,32.3,46.93Z"/><path class="cls-5" d="M42.79,31.69a9.35,9.35,0,1,0-2.33-12.94A9.3,9.3,0,0,0,42.79,31.69Z"/><path class="cls-6" d="M47.14,25.36a12.78,12.78,0,0,0-8.29-2.21,9.2,9.2,0,0,0,13.32,9.16A12.85,12.85,0,0,0,47.14,25.36Z"/></g><path d="M29.89,64h3.86v1H29.89Zm0,1.72h3.87v1H29.88Zm3.77-6,1.14.4a16.82,16.82,0,0,1-1,1.84l-1-.38A10.22,10.22,0,0,0,33.65,59.64Zm-4.84.51,1-.44a7.14,7.14,0,0,1,1,1.75L29.7,62A6.87,6.87,0,0,0,28.81,60.15Zm.3,2h4.66v1.09H30.26v5.33H29.11Zm4.11,0h1.15V67.3c0,.56-.11.87-.47,1.06a4.24,4.24,0,0,1-1.63.18,4.94,4.94,0,0,0-.35-1.09c.45,0,1,0,1.11,0s.19,0,.19-.17Zm-2-2.73h1.18v3.46H31.19Zm-5,.9.68-.81a7.75,7.75,0,0,1,1.75,1.12l-.73.89A8.27,8.27,0,0,0,26.19,60.31Zm-.45,2.6.66-.83a7.72,7.72,0,0,1,1.79,1.12l-.7.92A8,8,0,0,0,25.74,62.91ZM26,67.77a28.59,28.59,0,0,0,1.68-3.12l.85.7A33,33,0,0,1,27,68.52Zm11-6.85h5.8v-.38h-6.5v-.69h7.56v1.76H37Zm-.34,0h1.09c-.21.63-.45,1.35-.64,1.84L36,62.69A14.61,14.61,0,0,0,36.63,60.92Zm.1,1.06h7v.69H36.52Zm6.63,0h1.1s0,.2,0,.31c-.05.64-.11,1-.28,1.16a.85.85,0,0,1-.56.25c-.2,0-.55,0-.93,0a2,2,0,0,0-.2-.7L43,63a.29.29,0,0,0,.21-.06,2,2,0,0,0,.13-.85Zm-4.87-2.56h1.06v2c0,1.38-.47,2.43-3.36,2.86a3.55,3.55,0,0,0-.56-.9c2.51-.33,2.86-1,2.86-2Zm2.15,0h1.12v3.93H40.64ZM38.05,65v.4h4.21V65Zm0,1v.4h4.21V66Zm0-2v.39h4.21V64Zm-1.13-.66h6.53v3.76H36.92Zm3.73,4.23,1-.59c1,.33,2.26.76,3,1.07l-1.3.56A18.75,18.75,0,0,0,40.65,67.55ZM38.51,67l1,.48a12.47,12.47,0,0,1-3,1.17,6.82,6.82,0,0,0-.85-.85A10.65,10.65,0,0,0,38.51,67Zm7-4.59h8.78v1H45.5Zm.85-1.9h5.58v1H46.35Zm1.71,5.3h4.36v.88H48.06Zm0,1.53h4.36v1H48.06Zm.59-7.88H49.8V63H48.65Zm4.29.28,1,.52a17.14,17.14,0,0,1-8,5.78,7.06,7.06,0,0,0-.7-1A15,15,0,0,0,52.94,59.7Zm-5.53,4.48h5.75v4.36H51.94v-3.4H48.58v3.44H47.41Z"/></svg>