<svg id="圖層_3" data-name="圖層 3" xmlns="http://www.w3.org/2000/svg" xmlns:xlink="http://www.w3.org/1999/xlink" viewBox="0 0 673.82 381.25"><defs><style>.cls-1,.cls-9{fill:none;}.cls-2{fill:#c6e2ff;}.cls-10,.cls-3{fill:#fff;}.cls-4{clip-path:url(#clip-path);}.cls-5{fill:#39b54a;}.cls-6{fill:#f4ef42;}.cls-17,.cls-7{isolation:isolate;opacity:0.8;}.cls-7{fill:url(#未命名漸層_4);}.cls-8{fill:#409eff;}.cls-10,.cls-9{stroke:#409eff;}.cls-9{stroke-width:2px;stroke-dasharray:6 6;}.cls-10{stroke-width:2.93px;}.cls-11{clip-path:url(#clip-path-2);}.cls-12{fill:#f76b7c;}.cls-13{fill:#8f4ef4;}.cls-14{fill:url(#未命名漸層_5);}.cls-15{clip-path:url(#clip-path-3);}.cls-16{fill:#9543ff;}.cls-17{fill:url(#未命名漸層_2);}</style><clipPath id="clip-path"><rect class="cls-1" x="591.79" y="291.51" width="54.85" height="38.19" transform="translate(12.4 644.79) rotate(-55.48)"/></clipPath><linearGradient id="未命名漸層_4" x1="80.73" y1="-196.38" x2="85.8" y2="-189.02" gradientTransform="matrix(1, 0, 0, -1, 539.06, 113.39)" gradientUnits="userSpaceOnUse"><stop offset="0" stop-color="#f4ef42"/><stop offset="0.2" stop-color="#ebec42"/><stop offset="0.91" stop-color="#39b54a"/></linearGradient><clipPath id="clip-path-2"><rect class="cls-1" x="386.53" y="161.34" width="49.34" height="50.93"/></clipPath><linearGradient id="未命名漸層_5" x1="-135.83" y1="-75.05" x2="-116.64" y2="-75.05" gradientTransform="matrix(1, 0, 0, -1, 539.06, 113.39)" gradientUnits="userSpaceOnUse"><stop offset="0" stop-color="#8f4ef4"/><stop offset="0.87" stop-color="#f76b7c"/></linearGradient><clipPath id="clip-path-3"><rect class="cls-1" x="32.34" y="24.94" width="49.34" height="49.34"/></clipPath><linearGradient id="未命名漸層_2" x1="-489.68" y1="68.63" x2="-474.22" y2="58.84" gradientTransform="matrix(1, 0, 0, -1, 539.06, 113.39)" gradientUnits="userSpaceOnUse"><stop offset="0" stop-color="#f4ef42" stop-opacity="0.9"/><stop offset="0.87" stop-color="#9543ff"/></linearGradient></defs><rect class="cls-2" x="238.04" y="334" width="112.59" height="35.77" rx="17.89"/><path d="M267.81,352.79l.74.55a21.4,21.4,0,0,1-2.16,1.74l-.57-.45A16.62,16.62,0,0,0,267.81,352.79Zm-3.08-6.22,1,.19a14.74,14.74,0,0,1-.93,1.65l-.78-.19A12.45,12.45,0,0,0,264.73,346.57ZM263,350.41v1.08h4.18v-1.08Zm0-1.8v1.08h4.18v-1.08Zm-.85-.74h5.93v4.38h-5.93Zm2.5,4h.85V357c0,.47-.09.71-.4.84a4.56,4.56,0,0,1-1.6.15,3.34,3.34,0,0,0-.25-.82,11.22,11.22,0,0,0,1.2,0c.16,0,.2,0,.2-.17Zm-3,1.49h2.08v.78h-2.08Zm1.87,0h.16l.16,0,.51.21a5.85,5.85,0,0,1-2.67,4,2.76,2.76,0,0,0-.58-.65,4.85,4.85,0,0,0,2.42-3.37Zm1.84-1.43a6.32,6.32,0,0,0,3.42,4.83,3.53,3.53,0,0,0-.57.75,7,7,0,0,1-3.35-5Zm-6.26-5.31.82.31a26.65,26.65,0,0,1-1.54,2.72l-.63-.27A21.38,21.38,0,0,0,259.16,346.59Zm1.39,1.42.78.35a38.68,38.68,0,0,1-3,4.22l-.57-.32A27,27,0,0,0,260.55,348Zm-3.38,1.16.5-.59a9.92,9.92,0,0,1,1.75,2l-.53.7A9.79,9.79,0,0,0,257.17,349.17Zm2.89,1.68.67-.29a10.46,10.46,0,0,1,1.21,2.57l-.73.33A10.86,10.86,0,0,0,260.06,350.85Zm-3,1.22c1.08-.05,2.63-.12,4.2-.21v.78l-4.1.27Zm3.32,1.78.68-.21a9,9,0,0,1,.66,2.22l-.72.22A9.43,9.43,0,0,0,260.39,353.85Zm-2.57-.18.78.14a11.22,11.22,0,0,1-.84,3.17,5.87,5.87,0,0,0-.71-.35A9.42,9.42,0,0,0,257.82,353.67Zm1.31-1.24H260V358h-.82ZM275,350.6h5.1v.93H275Zm-5.2,5.88H281v.93H269.8Zm4.67-9.72h1V357h-1Zm9.25-.18h.92V358h-.92ZM282.61,349l.71.11a14.51,14.51,0,0,1-.62,3.34l-.74-.25A13.15,13.15,0,0,0,282.61,349Zm2.06-.11.67-.28a14.11,14.11,0,0,1,1,2.25l-.7.36A13.44,13.44,0,0,0,284.67,348.86Zm1.7-.3h6.14v4.22h-.92v-3.34h-5.22Zm-.66,3.73h7.87v.89h-7.87Zm4.17.18a6.57,6.57,0,0,0,3.81,4.7,4,4,0,0,0-.67.86c-2.06-.89-3.3-2.89-4-5.39Zm-1.08-5.89h.93v4.14c0,2.43-.31,5.42-3.78,7.32a4.75,4.75,0,0,0-.65-.72c3.38-1.68,3.5-4.43,3.5-6.6Zm8.5,4.9v4.39h-.91v-3.52h-1.73v-.87Zm0,4a3.62,3.62,0,0,0,3.11,1.4c1.35.05,4.15,0,5.61-.08a4.4,4.4,0,0,0-.3,1c-1.36,0-3.93.08-5.31,0a4.36,4.36,0,0,1-3.52-1.48c-.6.53-1.23,1.07-1.9,1.61l-.5-.95a23.46,23.46,0,0,0,2-1.48Zm-2.51-8,.68-.56a9.15,9.15,0,0,1,2.19,1.93l-.73.61A9,9,0,0,0,294.79,347.45Zm4.59,3V352h4.93v-1.58Zm-.87-.76h6.7v3.09h-6.7Zm-.5-1.82h7.76v.81H298Zm3.33-1.28h.9v9.79h-.9Zm-.31,5.9.69.26a8.87,8.87,0,0,1-3.34,3.27,3.41,3.41,0,0,0-.61-.7A7.79,7.79,0,0,0,301,352.5Zm1.43,0a8.71,8.71,0,0,0,3.39,2.76,4,4,0,0,0-.64.73,10.3,10.3,0,0,1-3.41-3.2Zm10.94-1.12h4.06v.77H313.4Zm-.47-4.22h4.44V348h-3.58v10h-.86Zm4,0h.87v2.4c0,.46-.1.7-.49.84a6.72,6.72,0,0,1-2,.15,3.06,3.06,0,0,0-.28-.82c.76,0,1.41,0,1.61,0s.25-.06.25-.2Zm-2.31,4.73a8.51,8.51,0,0,0,3.93,5.35,4.16,4.16,0,0,0-.64.75c-1.91-1.08-3.29-3.34-4-5.92Zm2.55-.51h.18l.16-.05.57.21a9.73,9.73,0,0,1-3.7,6.48,2.84,2.84,0,0,0-.62-.63,8.7,8.7,0,0,0,3.41-5.81Zm-9.71-3.52h4.6v.8h-4.6Zm-.15,6.78h4.91v.81h-4.91Zm-.3-4.74h5.52v.81H307Zm.18,2.58h5.2v.81h-5.2Zm2.18-5.88h.87v3.59h-.87Zm0,6.22h.87V358h-.87Zm1.68-2.16.79.21c-.25.6-.48,1.24-.72,1.68l-.69-.22A13.92,13.92,0,0,0,311.05,350.66Zm-3.17.2.71-.18a6.18,6.18,0,0,1,.58,1.67l-.74.21A7,7,0,0,0,307.88,350.86Zm19.72,1.36.72.29a8.19,8.19,0,0,1-3.22,1.82,2.46,2.46,0,0,0-.53-.54A8,8,0,0,0,327.6,352.22Zm1.19,1.19.71.3a9.34,9.34,0,0,1-4.27,2.26,4.52,4.52,0,0,0-.49-.61A8.59,8.59,0,0,0,328.79,353.41Zm1.16,1.36.8.34c-1.23,1.48-3.58,2.37-6.21,2.83a2.53,2.53,0,0,0-.48-.74C326.55,356.84,328.84,356.05,330,354.77Zm-4-8.19.87.21a11,11,0,0,1-2.57,3.79,5.12,5.12,0,0,0-.71-.55A8.81,8.81,0,0,0,326,346.58Zm-.28,1.35h5.05v.78H325.2Zm3.35.17.88.22c-1,2.35-3.13,3.69-5.7,4.49a5.34,5.34,0,0,0-.56-.74C326.15,351.43,328.18,350.21,329,348.1Zm-3.43.31c.75,1.49,2.63,3,5.53,3.54a3.3,3.3,0,0,0-.51.75,8.25,8.25,0,0,1-5.59-3.83Zm-2.79-.36h.81v7.88h-.81Zm-1-1.4.87.25a17.87,17.87,0,0,1-3.06,5.77,5.23,5.23,0,0,0-.48-.94A14.82,14.82,0,0,0,321.83,346.65Zm-1,3,.87-.85,0,0V358h-.9Z"/><path class="cls-2" d="M549,117H656a18,18,0,0,1,18,18h0a18,18,0,0,1-18,18H549a18,18,0,0,1-18-18h0A18,18,0,0,1,549,117Z"/><path d="M547.92,139.48h9.93v.88h-9.93Zm-1.09-8.75h10.91v.86H546.83Zm.64,2.23h.92V141h-.92Zm3.19,2v1h4.76v-1Zm0,1.7v1h4.76v-1Zm0-3.38v1h4.76v-1Zm-.89-.71h6.58v5.82h-6.58Zm2.2-3.06,1.06.08c-.12,1.16-.32,2.54-.49,3.41l-.92-.08A32.47,32.47,0,0,0,552,129.54Zm10.11,6.94v.6h5.18v-.6Zm0,1.15v.63h5.18v-.63Zm0-2.31v.61h5.18v-.61Zm-.88-.57h7v4.07h-7Zm4.24,3.72h.92v1.31c0,.27.1.32.67.32h2c.47,0,.56-.15.61-1.25a2,2,0,0,0,.78.29c-.09,1.37-.36,1.7-1.3,1.7H567c-1.2,0-1.51-.21-1.51-1.06Zm-2.64,0h.9c-.37,1.49-1.4,2.16-4.3,2.48a2.38,2.38,0,0,0-.41-.7C561.61,140.06,562.47,139.59,562.8,138.51Zm-3.35-5H570v1.78h-.87v-1.13h-8.81v1.13h-.84Zm1-3.41,1.09.28c0,.07-.1.12-.25.14l.16,3.34h-.83Zm7.62,0H569c0,1.23-.11,2.82-.2,3.77h-.85C568,132.85,568.08,131.25,568.11,130.06Zm-1.81,0h2v.61h-2Zm-3.6-.48.53.42a12.07,12.07,0,0,1-2.05.83l-.43-.38A16.08,16.08,0,0,0,562.7,129.58Zm-1.78,1.66H563v.57h-2.09Zm0,1.13h2.16V133h-2.16Zm5.53-1.13h2.09v.57h-2.09Zm-.08,1.13h2.12V133h-2.12Zm-1.15-2.72.58.16a6.54,6.54,0,0,1-2.07,1.76,2.71,2.71,0,0,0-.46-.42A5.24,5.24,0,0,0,565.22,129.65Zm-1.6.59.39-.36a7.49,7.49,0,0,1,1.68,1.16l-.42.41A7.2,7.2,0,0,0,563.62,130.24Zm1.75,1.27.57.17a7.1,7.1,0,0,1-2.25,1.92,2.67,2.67,0,0,0-.46-.42A6.12,6.12,0,0,0,565.37,131.51Zm-1.73.59.41-.36a8.36,8.36,0,0,1,1.81,1.3l-.42.41A8.12,8.12,0,0,0,563.64,132.1Zm8.93-.53h3.78v8.12h-3.78v-.84h2.91v-6.44h-2.91Zm-.55,0h.86v9.11H572Zm.49,3.45h3.43v.84h-3.43Zm1.4-5.47,1,.19c-.25.77-.56,1.63-.81,2.18l-.74-.18A13.22,13.22,0,0,0,573.91,129.55Zm4.2,2h3.81v.87h-3.81Zm3.48,0h.87V132c-.2,5.7-.37,7.62-.87,8.23a1.21,1.21,0,0,1-1,.51,13,13,0,0,1-1.85,0,1.94,1.94,0,0,0-.31-.9c.81.06,1.55.07,1.84.07a.57.57,0,0,0,.53-.2c.41-.44.61-2.5.78-8Zm-3.22-2,.89.21a14.74,14.74,0,0,1-2,4.85,4.86,4.86,0,0,0-.76-.53A12.55,12.55,0,0,0,578.37,129.53Zm-.57,5.23.72-.42a24.39,24.39,0,0,1,2,2.82l-.8.49A22.89,22.89,0,0,0,577.8,134.76Zm6.86-4.72h3.26v.74h-3.26Zm-.13,3.35H588v.74h-3.5Zm0,1.66H588v.74h-3.5Zm-.64-3.37h4.8v.78h-4.8Zm5,.36h6.2v.87h-6.2Zm-.36,7.69h6.79v.88h-6.79Zm.57-4h5.8v.86h-5.8Zm-4.15,1h3.2v3.49h-3.2v-.73h2.32v-2h-2.32Zm-.47,0h.86v4.1h-.86Zm7-7.09h.93v2.84h-.93Zm0,2.71h.93v7.86h-.93Zm6.12-2h8.67v.91h-7.75V141h-.92Zm8.19,0h.93v9.54c0,.49-.1.77-.42.93a3.67,3.67,0,0,1-1.53.19,2.76,2.76,0,0,0-.3-.92c.51,0,1,0,1.12,0s.2-.06.2-.22Zm-9.41,4.49h11.44v.9H596.33Zm3.91-4.18h.87v10.21h-.87Zm2.73,0h.88v10.21H603Zm12.72,3.19h.94V141h-.94Zm-3.62,1.82h8v.86h-8Zm4.82.34a9.6,9.6,0,0,0,3.55,3.73,5.8,5.8,0,0,0-.66.73,11.36,11.36,0,0,1-3.61-4.19Zm-1.41-.07.73.28a10.55,10.55,0,0,1-3.85,4.23,5.67,5.67,0,0,0-.64-.74A9.29,9.29,0,0,0,615.48,135.94Zm-1.6-4.93v2.26h4.63V131Zm-.88-.84h6.42v4H613Zm-1.29-.55.88.27a18,18,0,0,1-3.5,5.56,6.75,6.75,0,0,0-.53-.92A14,14,0,0,0,611.71,129.62Zm-1.29,3.2.88-.89v9h-.89Zm13.12.17h6.89v.77h-6.89Zm2.94-1.43h.9v4.06h-.9Zm-1.3,4.36v1.8h3.57v-1.8Zm-.83-.73h5.27v3.26h-5.27Zm-2.53-5h10.25V141h-1V131h-8.35v10h-.93Zm.53,9.4h9.15v.86h-9.15ZM634.88,130h2.88v.87h-2.88Zm0,2.9h2.91v.87h-2.91Zm4.84,1.35h4.51v.87h-4.51Zm-4.86,1.63h2.9v.88h-2.9ZM634.5,130h.85v4.46a16.55,16.55,0,0,1-1,6.52,3.46,3.46,0,0,0-.77-.45c.86-1.75.92-4.24.92-6.07Zm2.74,0h.87v9.85c0,.49-.11.78-.42.94A4.12,4.12,0,0,1,636,141a3.16,3.16,0,0,0-.27-.88H637c.17,0,.23-.06.23-.23Zm6.34,0h.89v2.41c0,.46-.1.71-.49.84a6.85,6.85,0,0,1-2,.14,3.4,3.4,0,0,0-.3-.79c.75,0,1.4,0,1.6,0s.25,0,.25-.2Zm.4,4.22h.16l.15,0,.54.18a9.27,9.27,0,0,1-4.14,6.48,2.79,2.79,0,0,0-.55-.69,8.31,8.31,0,0,0,3.84-5.77Zm-2.87.54a8.7,8.7,0,0,0,4.1,5.47,3.15,3.15,0,0,0-.61.71,9.77,9.77,0,0,1-4.23-6Zm-1.91-4.76h4.63v.87h-3.75V141h-.88Zm7.12.13h4.23V131h-4.23Zm4.79,6.34h5.39v.81h-5.39ZM646.19,134h4.66v.83h-4.66Zm2.17.33h.89v5.63c0,.49-.09.74-.42.9a4.54,4.54,0,0,1-1.56.15,3,3,0,0,0-.28-.87h1.18c.14,0,.19,0,.19-.19Zm7.81,2.26h1a3.25,3.25,0,0,1,0,.41c-.23,2.33-.46,3.27-.82,3.65a1.11,1.11,0,0,1-.78.32,13.12,13.12,0,0,1-1.39,0,2.39,2.39,0,0,0-.25-.87c.54.05,1,.06,1.23.06a.51.51,0,0,0,.42-.12c.26-.25.49-1.12.67-3.29Zm-2.74-1.23h.93c-.23,2.51-.84,4.6-3.64,5.7a2.63,2.63,0,0,0-.56-.72C652.74,139.33,653.22,137.46,653.43,135.31Zm-6.67-3,.58-.59a12.51,12.51,0,0,1,3,1.73l-.62.68A12.8,12.8,0,0,0,646.76,132.27ZM650.6,134h.14l.14,0,.57.2a16.68,16.68,0,0,1-1,3l-.66-.32a15.1,15.1,0,0,0,.83-2.68Zm5-2.69.95.17c-.83,2.24-2.69,3.48-5,4.22a5.06,5.06,0,0,0-.59-.79C653.17,134.29,654.91,133.19,655.58,131.26Zm-2.66-1.68.88.23a9.53,9.53,0,0,1-2.49,3.37,3.44,3.44,0,0,0-.77-.55A7.58,7.58,0,0,0,652.92,129.58Zm-.22,1.95a7.29,7.29,0,0,0,4.95,3.37,3.31,3.31,0,0,0-.59.8,8,8,0,0,1-5.13-3.91Zm-4.45,2.69.63.23a11.76,11.76,0,0,1-2.33,4.53,5,5,0,0,0-.49-.87A9.39,9.39,0,0,0,648.25,134.22Zm4.4-3.33h4.74v.8h-5.12Zm-2.32-.69h.2l.15,0,.61.39a9.36,9.36,0,0,1-2.4,2.38,4.61,4.61,0,0,0-.63-.46,7.77,7.77,0,0,0,2.07-2.1Z"/><rect class="cls-2" x="351.04" y="32" width="112.59" height="35.77" rx="17.89"/><path d="M387.89,44.58h.93V46h-.93Zm-4.71.9h10.41v2h-.89V46.24H384v1.23h-.85ZM388,47.07h.79c-.06.8-.15,1.76-.24,2.37h-.8C387.82,48.81,387.92,47.84,388,47.07Zm-2.66,4.85v.57h6.18v-.57Zm0,1.12v.58h6.18V53Zm0-2.22v.54h6.18v-.54Zm-.91-.57h8v3.94h-8Zm4.77,4.48.63-.54c1.5.4,3.13.91,4.13,1.27l-.8.55C392.22,55.66,390.72,55.15,389.17,54.73Zm-3.43-7.34-.22,1.77H391l.14-1.77Zm-.75-.55h7.11l-.25,2.87H384.6Zm1.73,7.34.77.49A13.17,13.17,0,0,1,383.31,56a4.73,4.73,0,0,0-.56-.65A12.06,12.06,0,0,0,386.72,54.18Zm-3.83-6.28h2.59V48h5.72V47.9h2.68v.71H391.2v-.06h-5.72v.06h-2.59Zm16.24,6.74h6v.86h-6Zm-.42-8.81h4.55v.83h-4.55Zm.56-1.29,1,.21a12.82,12.82,0,0,1-4.58,4.58,2.66,2.66,0,0,0-.66-.72A10.55,10.55,0,0,0,399.27,44.54ZM403,45.83h.18l.17,0,.62.34a13.35,13.35,0,0,1-8.36,7.33,3.24,3.24,0,0,0-.55-.83c3.22-.93,6.65-3.36,7.94-6.63ZM397.16,48l.69-.6a15.13,15.13,0,0,1,2.75,2.37l-.76.67A13.8,13.8,0,0,0,397.16,48Zm7.51,2.68h.95V56h-.95Zm-5.12,0h5.59v.86h-5.59V56h-.93V51.45l.75-.73Zm14.92-1.87h.94V56h-.94Zm-3.63,1.82h8.06v.86h-8.06Zm4.83.33a9.56,9.56,0,0,0,3.55,3.74,5.12,5.12,0,0,0-.66.73A11.36,11.36,0,0,1,415,51.28Zm-1.41-.06.73.28a10.55,10.55,0,0,1-3.85,4.23,5.67,5.67,0,0,0-.64-.74A9.35,9.35,0,0,0,414.26,50.94ZM412.66,46v2.28h4.62V46Zm-.89-.83h6.43v3.95h-6.43Zm-1.29-.55.89.27a18.08,18.08,0,0,1-3.5,5.56,5.94,5.94,0,0,0-.54-.92A14,14,0,0,0,410.48,44.62Zm-1.29,3.2.89-.88h0v9h-.9Zm16.26,3.09v.81h4.22v-.81Zm0-1.42v.81h4.22v-.81Zm-.85-.62h5.93v3.49H424.6Zm2.49-4.29H428V46h-.89Zm0,7.63H428V56h-.89Zm-2.83-6.71h6.82v.75h-6.82Zm-.49,1.91h7.58v.77h-7.58Zm-.11,5.87h7.74V54h-7.74Zm5.27-7.19.9.2c-.25.47-.49,1-.7,1.3l-.77-.17A9.68,9.68,0,0,0,428.93,46.09Zm-3.61.2.77-.16a5.19,5.19,0,0,1,.49,1.29l-.82.21A5.24,5.24,0,0,0,425.32,46.29Zm-4.82-1.17h2.93V46h-2.09V56h-.84Zm2.64,0h.16l.15,0,.6.36c-.36,1-.82,2.29-1.25,3.28a3.79,3.79,0,0,1,1.12,2.67,1.71,1.71,0,0,1-.48,1.44,1.61,1.61,0,0,1-.65.22,5.79,5.79,0,0,1-.84,0,2.09,2.09,0,0,0-.22-.82,3.52,3.52,0,0,0,.72,0,.68.68,0,0,0,.38-.11,1,1,0,0,0,.26-.84A3.59,3.59,0,0,0,422,48.83c.45-1.13.91-2.6,1.17-3.46Z"/><path d="M609.83,254.21a1,1,0,0,0,1.42,0l6.36-6.37a1,1,0,0,0-1.41-1.41l-5.66,5.66-5.66-5.66a1,1,0,1,0-1.41,1.41ZM491,198.5h79.5v-2H491Zm118.5,39v16h2v-16Zm-39-39a39,39,0,0,1,39,39h2a41,41,0,0,0-41-41Z"/><rect class="cls-3" x="556.04" y="264" width="117.78" height="117.25" rx="16.45"/><g class="cls-4"><path class="cls-5" d="M603.68,333.2a19.3,19.3,0,1,0-4.8-26.72A19.19,19.19,0,0,0,603.68,333.2Z"/><path class="cls-6" d="M619.13,310.73a13.79,13.79,0,1,0-3.42-19.09A13.72,13.72,0,0,0,619.13,310.73Z"/><path class="cls-7" d="M625.55,301.4a18.85,18.85,0,0,0-12.22-3.27A13.56,13.56,0,0,0,633,311.64,18.9,18.9,0,0,0,625.55,301.4Z"/></g><path d="M603.42,355.29h4.45v1.13h-4.45Zm0,2h4.46v1.13h-4.46Zm4.35-6.93,1.31.46a22.17,22.17,0,0,1-1.13,2.12l-1.17-.44A13.55,13.55,0,0,0,607.76,350.33Zm-5.58.58,1.13-.51a7.84,7.84,0,0,1,1.1,2l-1.21.57A8.33,8.33,0,0,0,602.18,350.91Zm.34,2.29h5.37v1.26h-4v6.14h-1.33Zm4.74,0h1.32v5.95c0,.64-.13,1-.54,1.21a4.6,4.6,0,0,1-1.88.22,5,5,0,0,0-.4-1.26c.51,0,1.11,0,1.28,0s.22,0,.22-.2Zm-2.34-3.14h1.35v4h-1.35Zm-5.76,1,.78-.94a8.36,8.36,0,0,1,2,1.29l-.84,1A9.32,9.32,0,0,0,599.16,351.1Zm-.52,3,.76-1a9.29,9.29,0,0,1,2.07,1.29l-.81,1.06A8.9,8.9,0,0,0,598.64,354.09Zm.31,5.6a33.28,33.28,0,0,0,1.94-3.59l1,.8a39.51,39.51,0,0,1-1.74,3.65Zm12.62-7.89h6.68v-.44h-7.49v-.8h8.72v2h-7.91Zm-.39,0h1.26c-.24.73-.52,1.56-.74,2.12l-1.23-.08A16.76,16.76,0,0,0,611.18,351.8Zm.12,1.22h8.07v.8h-8.31Zm7.64,0h1.25s0,.22,0,.36a2.4,2.4,0,0,1-.31,1.34,1.06,1.06,0,0,1-.65.28,10.36,10.36,0,0,1-1.07,0,2.42,2.42,0,0,0-.23-.8c.28,0,.5,0,.62,0a.3.3,0,0,0,.24-.08,2.48,2.48,0,0,0,.16-1Zm-5.62-2.95h1.23v2.32c0,1.6-.54,2.81-3.88,3.3a3.84,3.84,0,0,0-.64-1c2.89-.38,3.29-1.19,3.29-2.3Zm2.48,0h1.28v4.52H615.8Zm-3,6.42V357h4.85v-.46Zm0,1.18v.46h4.85v-.46Zm0-2.35v.45h4.85v-.45Zm-1.3-.76H619v4.33h-7.52Zm4.3,4.87,1.08-.67c1.21.37,2.61.87,3.42,1.22l-1.51.65A21.1,21.1,0,0,0,615.82,359.43Zm-2.47-.67,1.2.55a14.61,14.61,0,0,1-3.52,1.34,8.08,8.08,0,0,0-1-1A12.71,12.71,0,0,0,613.35,358.76Zm8-5.29h10.1v1.19H621.4Zm1-2.19h6.42v1.17h-6.42Zm2,6.11h5v1h-5Zm0,1.76h5v1.13h-5Zm.67-9.08h1.33v4.06H625Zm4.94.32,1.16.6a19.85,19.85,0,0,1-9.26,6.66,7.82,7.82,0,0,0-.81-1.13A17.19,17.19,0,0,0,630,350.39Zm-6.36,5.17h6.62v5h-1.4v-3.92h-3.88v4H623.6Z"/><path class="cls-8" d="M56.25,130.29a1,1,0,0,0-1.42,0l-6.36,6.37a1,1,0,1,0,1.41,1.41l5.66-5.66,5.66,5.66a1,1,0,1,0,1.41-1.41ZM211.54,201.5h-116v2h116Zm-155-39V131h-2v31.5Zm39,39a39,39,0,0,1-39-39h-2a41,41,0,0,0,41,41Z"/><path d="M276.33,124.21a1,1,0,0,0,1.42,0l6.36-6.37a1,1,0,0,0-1.41-1.41L277,122.09l-5.66-5.66a1,1,0,0,0-1.41,1.41ZM135.54,59H237V57H135.54ZM276,98v25.5h2V98ZM237,59a39,39,0,0,1,39,39h2a41,41,0,0,0-41-41Z"/><path class="cls-8" d="M410.75,270.29a1,1,0,0,0-1.42,0L403,276.66a1,1,0,0,0,1.41,1.41l5.66-5.66,5.66,5.66a1,1,0,0,0,1.41-1.41ZM551.54,332.5H450v2h101.5ZM411,293.5V271h-2v22.5Zm39,39a39,39,0,0,1-39-39h-2a41,41,0,0,0,41,41Z"/><path class="cls-9" d="M174,253.5h40m81.5,71.5V270.5M407,74v51.5m115,13H480"/><path class="cls-2" d="M36,237H144a18,18,0,0,1,18,18h0a18,18,0,0,1-18,18H36a18,18,0,0,1-18-18h0A18,18,0,0,1,36,237Z"/><path d="M32.71,253.85h.94V261h-.94Zm-3.63,1.82h8.06v.86H29.08Zm4.83.34a9.53,9.53,0,0,0,3.55,3.73,5.12,5.12,0,0,0-.66.73,11.36,11.36,0,0,1-3.61-4.19Zm-1.41-.07.73.28a10.55,10.55,0,0,1-3.85,4.23,6.54,6.54,0,0,0-.64-.74A9.35,9.35,0,0,0,32.5,255.94ZM30.89,251v2.26h4.63V251Zm-.88-.84h6.43v4H30Zm-1.29-.55.88.27a17.76,17.76,0,0,1-3.49,5.56,5.94,5.94,0,0,0-.54-.92A14,14,0,0,0,28.72,249.62Zm-1.29,3.2.88-.89,0,0v9h-.9Zm13.13.17h6.89v.77H40.56Zm2.94-1.43h.89v4.06H43.5Zm-1.3,4.36v1.8h3.57v-1.8Zm-.83-.73h5.27v3.26H41.37Zm-2.53-5H49.08V261h-1V251H39.77v10h-.93Zm.53,9.4h9.14v.86H39.37Zm15-8.27c1,4.53,3.26,7.72,7.87,8.81a4.29,4.29,0,0,0-.65.87c-4.71-1.25-6.89-4.57-8-9.49Zm-3.08-1.05h7v.9h-7Zm9.25,3h.17l.17,0,.64.25A9.92,9.92,0,0,1,54,261a3.28,3.28,0,0,0-.53-.82,9,9,0,0,0,7-6.77Zm-2.51-3h.11l.17-.05.71.14c-.27,1.27-.71,3.07-1.09,4.44l-1-.14c.41-1.38.86-3.29,1.07-4.28Zm-.17,3h2.89v.88H57.66Zm-4.37-2.72h.94v1.67c0,2.48-.25,5.86-3.14,8.57a3.34,3.34,0,0,0-.67-.78c2.67-2.47,2.87-5.57,2.87-7.78Zm14.37.54h6.2v.82h-6.2Zm-.54,2.4h7.27v.83H67.32Zm.06,2.25h7.08v.83H67.38Zm3.08-6.14h.92V254h-.92Zm1.64,4.6H73v5.71c0,.53-.13.81-.51.94a7,7,0,0,1-2,.15,3.1,3.1,0,0,0-.33-.87c.77,0,1.47,0,1.67,0s.27-.06.27-.24Zm-4,3.24.75-.45a9.49,9.49,0,0,1,1.63,2.14l-.8.49A9.1,9.1,0,0,0,68.14,257.42Zm-4.13-7h3.1v8.15H64v-.85h2.23v-6.46H64Zm0,3.61h2.6v.83h-2.6Zm-.49-3.61h.88v9.17h-.88ZM75.4,261.28l3.1-10.85h1.29l-3.11,10.85Zm8.1-1.42h6.57v.72H83.5Zm2.37-7.76h.91v1.37h-.91Zm-4.71,1H91.64v2.34h-.91v-1.59H82.05v1.59h-.89Zm2.29,1.52h6.37v2.49H83.45v-.72H88.9v-1.06H83.45Zm0,3.35h7.12V261H89.7v-2.32H83.49ZM83,254.58h.89V261H83Zm-.78-4.05h4v.77h-4Zm4.84,0h5v.77H87Zm-4.61-1,.88.22a9.4,9.4,0,0,1-1.91,2.88,4.9,4.9,0,0,0-.77-.51A6.83,6.83,0,0,0,82.41,249.53Zm4.89,0,.88.21a7.34,7.34,0,0,1-2,2.73,5.61,5.61,0,0,0-.8-.47A6.18,6.18,0,0,0,87.3,249.53Zm-4.43,1.59.81-.21a7.12,7.12,0,0,1,.73,1.42l-.84.25A7.1,7.1,0,0,0,82.87,251.12Zm5.26,0,.82-.25a7.16,7.16,0,0,1,1,1.45l-.84.27A6.85,6.85,0,0,0,88.13,251.13Zm10.36,2.18v1.6h4.62v-1.6Zm0-2.34v1.57h4.62V251Zm-.84-.81H104v5.56H97.65Zm-.16,7h6.68V258H97.49Zm-1,2.57h8v.84h-8Zm-3.37-9.32H97v.88H93.16Zm.13,3.59h3.56v.88H93.29ZM93,258.76c1-.27,2.5-.76,3.94-1.24l.16.89-3.87,1.3Zm1.68-8h.89v7.69l-.89.18Zm5.68-.22h.82v4.77h.06v4.8h-.94v-4.8h.06ZM113,251.89h4v.86h-4Zm.24-2.31.91.13a16.79,16.79,0,0,1-1.89,6.12,4.37,4.37,0,0,0-.7-.64A14.39,14.39,0,0,0,113.19,249.58Zm2.2,2.77.88.08c-.51,4.12-1.6,6.86-4.29,8.6a4.53,4.53,0,0,0-.52-.77C114,258.77,115,256.13,115.39,252.35Zm-2,.32c.47,3.4,1.5,6.35,3.61,7.6a4.16,4.16,0,0,0-.65.74c-2.19-1.44-3.22-4.51-3.76-8.22Zm-5-3.09h.83v6.51h-.83ZM107.18,251v2.07h3.38V251Zm-.8-.65h5v3.38h-5Zm.5,4.58v.81h4v-.81Zm-.81-.63h5.61v2.07h-5.61Zm-.53,2.87c1.67,0,4.28,0,6.8-.09l0,.71c-2.47.06-5,.1-6.74.12Zm2.48-1,.8.18c-.53,1-1.23,2.25-1.73,3l-.77-.22C106.83,258.39,107.54,257.12,108,256.17ZM107,259l.46-.56a18.34,18.34,0,0,1,3.88,1.81l-.59.58A17.71,17.71,0,0,0,107,259Zm3.22-1.5.81.13c-.5,2-2,3-4.86,3.45a2.08,2.08,0,0,0-.36-.73C108.41,260,109.8,259.21,110.25,257.46Zm-4.72-5.8h1.19v.05H111v-.05h1.26v.72H111v0h-4.28v0h-1.19Zm19.69-1.3h3.4v.69h-3.4Zm-2.93,1.38h6.3v.7h-6.3Zm.84,3.65h6.11v.66h-6.11Zm1.65-5.79h.9v2.5h-.9Zm3.64,2.14h.14l.13,0,.57.14a12,12,0,0,1-.59,1.73l-.71-.16a10.61,10.61,0,0,0,.46-1.55Zm-6.45,0h.82v3.53c0,1.74-.19,4.12-1.37,5.72a4.63,4.63,0,0,0-.68-.48,9.08,9.08,0,0,0,1.23-5.25Zm1.1,1.64,4.43-.42.07.59-4.42.41Zm1.63-.91h.78V254c0,.25.07.29.56.29h1.68c.34,0,.4-.08.44-.6a2.41,2.41,0,0,0,.67.23c-.08.76-.3,1-1,1H126c-1,0-1.26-.15-1.26-.88Zm-.12,4.44.53-.35c2,1.26,2,3.5,1.25,4.14a1.19,1.19,0,0,1-.88.32,5.47,5.47,0,0,1-.68,0,1.87,1.87,0,0,0-.2-.68,5.15,5.15,0,0,0,.73.05.64.64,0,0,0,.5-.17C126.3,259.76,126.26,258,124.58,256.91Zm.74.36.46.27a8.76,8.76,0,0,1-2.52,1.52,2.1,2.1,0,0,0-.38-.52A6.81,6.81,0,0,0,125.32,257.27Zm.57.86.48.32a10.89,10.89,0,0,1-3.39,2.19,2,2,0,0,0-.39-.55A9.22,9.22,0,0,0,125.89,258.13Zm2.73-1.68.54.42a10.5,10.5,0,0,1-1.73,1.24l-.46-.37A13.88,13.88,0,0,0,128.62,256.45Zm-1.79-.79a5.56,5.56,0,0,0,2.73,4.12,2.79,2.79,0,0,0-.53.65c-1.5-.8-2.4-2.55-2.82-4.66Zm-.88,0,.61.21a8.39,8.39,0,0,1-3.25,1.8,2.89,2.89,0,0,0-.31-.51A7.25,7.25,0,0,0,126,255.66Zm-8.13.33c1-.27,2.37-.7,3.77-1.15l.13.86-3.66,1.2Zm.18-3.91h3.51V253H118Zm1.52-2.49h.85v10.35c0,.49-.12.74-.43.89a3.68,3.68,0,0,1-1.53.18,3.44,3.44,0,0,0-.28-.86h1.17c.15,0,.22-.05.22-.22Zm12.73,4.69h7.1v.91h-7.1Zm6.79,0h1s0,.32,0,.45c-.17,3.84-.35,5.28-.79,5.75a1.2,1.2,0,0,1-1,.44c-.41,0-1.19,0-2,0a2.17,2.17,0,0,0-.31-1c.82.08,1.59.09,1.89.09a.65.65,0,0,0,.52-.16c.33-.34.52-1.75.68-5.44ZM134,249.84l1,.28a12.94,12.94,0,0,1-3.92,5.14,6.26,6.26,0,0,0-.8-.73A10.65,10.65,0,0,0,134,249.84Zm4.33,0a13.37,13.37,0,0,0,3.76,4.51,5.11,5.11,0,0,0-.78.83,16.64,16.64,0,0,1-3.87-5Zm-3.41,4.72h1c-.28,2.72-.93,5.28-4.39,6.52a3.37,3.37,0,0,0-.59-.8C134.13,259.17,134.62,256.87,134.87,254.53Zm14-.7h5.44v.88h-5.44Zm-.49-3.23,1.17.34c0,.09-.09.14-.25.16v3c0,2-.21,4.81-1.75,6.84a2.69,2.69,0,0,0-.71-.62c1.39-1.86,1.54-4.36,1.54-6.24Zm4.58-.87.79.72a25.15,25.15,0,0,1-4.86,1.26,3.12,3.12,0,0,0-.31-.75A23.66,23.66,0,0,0,153,249.73Zm-1.41,4.39h.91V261h-.91ZM143,252.24h4.52v.9H143Zm1.94-2.66h.89V261H145Zm0,3.21.59.21a16.14,16.14,0,0,1-2.28,5.67,4.36,4.36,0,0,0-.5-.83A13.85,13.85,0,0,0,144.9,252.79Zm.85,1.37c.32.34,1.54,1.85,1.81,2.2l-.57.76a21.82,21.82,0,0,0-1.71-2.52Z"/><rect class="cls-10" x="220.58" y="136.53" width="251.93" height="119.93" rx="17.3"/><rect class="cls-3" x="222.04" y="138" width="117.53" height="117" rx="16.41"/><path d="M252.45,226.93a4.8,4.8,0,0,1-1.92-.36,3.23,3.23,0,0,1-1.31-1.07,3,3,0,0,1-.49-1.71h1.9a1.73,1.73,0,0,0,.49,1.17,2.07,2.07,0,0,0,2.45.13,1.15,1.15,0,0,0,.43-.93,1.23,1.23,0,0,0-.38-.95,2.9,2.9,0,0,0-1-.54l-1.32-.46a4.42,4.42,0,0,1-1.75-1,2.26,2.26,0,0,1-.59-1.65,2.44,2.44,0,0,1,.41-1.49,2.76,2.76,0,0,1,1.18-1,4.43,4.43,0,0,1,3.45,0,2.73,2.73,0,0,1,1.18,1,2.81,2.81,0,0,1,.47,1.51h-1.93a1.34,1.34,0,0,0-.41-.92,1.39,1.39,0,0,0-1.07-.4,1.58,1.58,0,0,0-1,.29,1.18,1.18,0,0,0-.09,1.66,2.53,2.53,0,0,0,.85.48c.36.13.77.28,1.23.43a8.1,8.1,0,0,1,1.33.59,2.65,2.65,0,0,1,1,.9,2.56,2.56,0,0,1,.36,1.42,2.78,2.78,0,0,1-.39,1.44,3,3,0,0,1-1.17,1.07A4.21,4.21,0,0,1,252.45,226.93Zm8.46,0a3.75,3.75,0,0,1-1.89-.46,3.45,3.45,0,0,1-1.3-1.3,4.15,4.15,0,0,1,0-3.8,3.52,3.52,0,0,1,1.3-1.3,3.75,3.75,0,0,1,1.89-.46,3.57,3.57,0,0,1,2.25.7,3.1,3.1,0,0,1,1.17,1.92h-1.9a1.34,1.34,0,0,0-.56-.79,1.71,1.71,0,0,0-2.24.27,2.18,2.18,0,0,0-.52,1.56,2.22,2.22,0,0,0,.52,1.57,1.66,1.66,0,0,0,1.26.56,1.76,1.76,0,0,0,1-.28,1.35,1.35,0,0,0,.56-.81h1.9a3.16,3.16,0,0,1-1.17,1.9A3.53,3.53,0,0,1,260.91,226.93Zm7.47,0a3.37,3.37,0,0,1-1.48-.28,2,2,0,0,1-.86-.77,2.12,2.12,0,0,1-.28-1.06,2,2,0,0,1,.76-1.58,3.65,3.65,0,0,1,2.28-.6h1.78v-.17a1.31,1.31,0,0,0-.41-1.06,1.56,1.56,0,0,0-1-.34,1.69,1.69,0,0,0-1,.27,1.12,1.12,0,0,0-.51.76h-1.76a2.52,2.52,0,0,1,.51-1.32,2.84,2.84,0,0,1,1.15-.86,3.84,3.84,0,0,1,1.58-.31,3.48,3.48,0,0,1,2.35.74,2.65,2.65,0,0,1,.86,2.12v4.29h-1.53l-.17-1.12a2.76,2.76,0,0,1-.87.93A2.59,2.59,0,0,1,268.38,226.93Zm.41-1.41a1.46,1.46,0,0,0,1.2-.5,2.5,2.5,0,0,0,.55-1.26H269a1.57,1.57,0,0,0-1,.27.81.81,0,0,0-.31.64.75.75,0,0,0,.31.63A1.37,1.37,0,0,0,268.79,225.52Zm5.36,1.24v-7h1.59l.14,1.18a2.37,2.37,0,0,1,.93-1,2.72,2.72,0,0,1,1.45-.37,2.52,2.52,0,0,1,2,.82,3.5,3.5,0,0,1,.72,2.39v3.94h-1.8V223a2.2,2.2,0,0,0-.37-1.38,1.33,1.33,0,0,0-1.14-.48,1.64,1.64,0,0,0-1.25.53,2.18,2.18,0,0,0-.48,1.5v3.6Zm9.58-8.07a1.16,1.16,0,0,1-.82-.29,1,1,0,0,1-.31-.75,1,1,0,0,1,.31-.73,1.17,1.17,0,0,1,.82-.3,1.09,1.09,0,0,1,.8.3.92.92,0,0,1,.33.73,1,1,0,0,1-.33.75A1.08,1.08,0,0,1,283.73,218.69Zm-.9,8.07v-7h1.8v7Zm9.28,3.1v-4.1a3.16,3.16,0,0,1-.91.82,2.55,2.55,0,0,1-1.43.35,3.33,3.33,0,0,1-1.76-.47,3.52,3.52,0,0,1-1.23-1.31,3.94,3.94,0,0,1-.45-1.89,3.84,3.84,0,0,1,.45-1.88,3.32,3.32,0,0,1,1.23-1.29,3.25,3.25,0,0,1,1.76-.48,3.18,3.18,0,0,1,1.38.29,2.59,2.59,0,0,1,1,.84l.19-1h1.61v10.08Zm-2-4.5a1.9,1.9,0,0,0,1.42-.58,2.09,2.09,0,0,0,.56-1.51,2,2,0,0,0-.56-1.49,1.84,1.84,0,0,0-1.42-.59,1.93,1.93,0,0,0-1.43.57,2.29,2.29,0,0,0,0,3A1.88,1.88,0,0,0,290.15,225.36Zm8.26,1.57a2.56,2.56,0,0,1-2-.81,3.6,3.6,0,0,1-.71-2.4v-3.94h1.79v3.77a2.27,2.27,0,0,0,.37,1.38,1.35,1.35,0,0,0,1.15.48,1.6,1.6,0,0,0,1.23-.53,2.14,2.14,0,0,0,.49-1.5v-3.6h1.81v7h-1.6l-.14-1.18a2.48,2.48,0,0,1-.94,1A2.72,2.72,0,0,1,298.41,226.93Zm9.38,0a3.83,3.83,0,0,1-1.87-.45,3.26,3.26,0,0,1-1.28-1.27,3.72,3.72,0,0,1-.47-1.88,4,4,0,0,1,.45-1.93,3.34,3.34,0,0,1,1.27-1.31,3.75,3.75,0,0,1,1.92-.48,3.64,3.64,0,0,1,1.82.45,3.16,3.16,0,0,1,1.22,1.24,3.38,3.38,0,0,1,.45,1.73c0,.1,0,.21,0,.33s0,.23,0,.35H306a1.85,1.85,0,0,0,.57,1.28,1.8,1.8,0,0,0,1.25.47,1.58,1.58,0,0,0,.92-.25,1.5,1.5,0,0,0,.56-.64h1.83a3.34,3.34,0,0,1-.66,1.21,3.19,3.19,0,0,1-1.13.84A3.45,3.45,0,0,1,307.79,226.93Zm0-5.86a1.93,1.93,0,0,0-1.17.38,1.7,1.7,0,0,0-.65,1.13h3.48a1.55,1.55,0,0,0-.51-1.1A1.69,1.69,0,0,0,307.81,221.07Zm-36.22,20.69v-8.41h-2.88V231.9h7.57v1.45h-2.89v8.41Zm7.23.17a3.29,3.29,0,0,1-1.47-.28,1.92,1.92,0,0,1-.86-.77,2,2,0,0,1-.29-1.06,1.93,1.93,0,0,1,.77-1.58,3.61,3.61,0,0,1,2.28-.6H281v-.17a1.28,1.28,0,0,0-.41-1.06,1.56,1.56,0,0,0-1-.34,1.69,1.69,0,0,0-1,.27,1.12,1.12,0,0,0-.51.76h-1.76a2.52,2.52,0,0,1,.51-1.32,2.87,2.87,0,0,1,1.16-.86,3.79,3.79,0,0,1,1.57-.31,3.53,3.53,0,0,1,2.36.74,2.68,2.68,0,0,1,.86,2.12v4.29h-1.54l-.17-1.12a2.76,2.76,0,0,1-.87.93A2.57,2.57,0,0,1,278.82,241.93Zm.41-1.41a1.46,1.46,0,0,0,1.2-.5,2.5,2.5,0,0,0,.55-1.26h-1.54a1.54,1.54,0,0,0-1,.27.78.78,0,0,0-.31.64.73.73,0,0,0,.31.63A1.34,1.34,0,0,0,279.23,240.52Zm8.32-.84a4.06,4.06,0,0,1-.95-.11l-.52.52a2.92,2.92,0,0,0,.65.21,13.11,13.11,0,0,0,1.32.17,3.59,3.59,0,0,1,2,.66,1.85,1.85,0,0,1,.64,1.48,2.27,2.27,0,0,1-.34,1.17,2.43,2.43,0,0,1-1,.9,4.14,4.14,0,0,1-1.81.35,4.53,4.53,0,0,1-2.41-.56,1.81,1.81,0,0,1-.91-1.66,2,2,0,0,1,.91-1.64,2.84,2.84,0,0,1-.49-.27,2.57,2.57,0,0,1-.35-.29v-.32l1.22-1.3a2.35,2.35,0,0,1-.81-1.85A2.35,2.35,0,0,1,286,235a3.63,3.63,0,0,1,2.63-.17h2.65v1.1l-1.19.08a2.62,2.62,0,0,1-.06,2.47,2.37,2.37,0,0,1-1,.91A3.08,3.08,0,0,1,287.55,239.68Zm0-1.38a1.36,1.36,0,0,0,.9-.3,1,1,0,0,0,.36-.84,1,1,0,0,0-.36-.85,1.59,1.59,0,0,0-1.83,0,1,1,0,0,0-.36.85,1,1,0,0,0,.36.84A1.37,1.37,0,0,0,287.55,238.3Zm-1.69,4.32a.84.84,0,0,0,.47.78,2.47,2.47,0,0,0,1.2.27,1.93,1.93,0,0,0,1.1-.29.85.85,0,0,0,.14-1.36,1.84,1.84,0,0,0-1.08-.31,10.45,10.45,0,0,1-1.07-.13,1.82,1.82,0,0,0-.6.49A1.05,1.05,0,0,0,285.86,242.62Z"/><rect x="256.98" y="175.15" width="45.51" height="30.34" rx="4.24"/><rect class="cls-8" x="256.98" y="157.46" width="45.51" height="30.34" rx="4.24"/><rect class="cls-3" x="352.57" y="138" width="117.78" height="117.25" rx="16.45"/><path d="M401.32,228h8.86V229h-8.86Zm-.75-2.89h9.06v1h-9.06Zm2.74,4.84h6.22v1h-6.22Zm-.19,1.76h6.07v1h-6.07Zm-1,1.89h7.94v1.09h-7.94Zm2.18-9.24h1.35v1.57h-1.35Zm1.14,4.85h1.33V234h-1.33ZM400.65,228H402v1.88A9.15,9.15,0,0,1,400.7,235a5.75,5.75,0,0,0-1.05-.85,7.54,7.54,0,0,0,1-4.31Zm2.64,1.08,1.17.29a6.78,6.78,0,0,1-1.51,2.49,6.65,6.65,0,0,0-1-.71A4.93,4.93,0,0,0,403.29,229Zm-1.17-2.48.84-.62a50.6,50.6,0,0,1,5.47,1.53l-.82.7A39.88,39.88,0,0,0,402.12,226.55Zm5-.78.9.48a17.25,17.25,0,0,1-5.88,1.93,4.73,4.73,0,0,0-.47-.81A16.37,16.37,0,0,0,407.15,225.77Zm7.16.26v1.51h3.95V226Zm-1.3-1.28h6.63v4.07H413Zm-1.54,5h4.29v5h-1.35V231h-1.67v3.8h-1.27Zm5.24,0h4.45v5H419.8V231H418v3.8h-1.29ZM412,233H415v1.29H412Zm5.3,0h3.14v1.29h-3.14Z"/><g class="cls-11"><path class="cls-12" d="M404.47,197.43a18,18,0,1,0-17.94-18A18,18,0,0,0,404.47,197.43Z"/><path class="cls-13" d="M433,212.28h-26.8a3,3,0,0,1-2.93-2.94V182.4a2.94,2.94,0,0,1,2.93-2.94H433a2.94,2.94,0,0,1,2.92,2.94v26.94A2.94,2.94,0,0,1,433,212.28Z"/><path class="cls-14" d="M404.47,197.43a18,18,0,0,0,17.94-18H406.15a2.94,2.94,0,0,0-2.93,2.94v15C403.63,197.41,404.05,197.43,404.47,197.43Z"/></g><rect class="cls-3" x="1.04" width="117.78" height="117.25" rx="16.45"/><path d="M55.75,90h2.93v1.1H55.75Zm-5.36.79h3.69v1H51.3v5h-.91ZM52,88.53h1.12v2.9H52Zm1.69,2.27h1v4.9c0,.49-.08.77-.39.92a3.23,3.23,0,0,1-1.42.17,3.8,3.8,0,0,0-.28-1h1c.13,0,.16,0,.16-.16Zm-1.78,1.49h1.42v2.64H51.87v-.82h.85v-1h-.85Zm-.21,0h.56v3h-.56Zm3.92-3.79,1.15.21A11.25,11.25,0,0,1,55.17,93a6.31,6.31,0,0,0-.89-.81A8.85,8.85,0,0,0,55.58,88.5Zm-5.28.57.91-.27a5.19,5.19,0,0,1,.54,1.63l-1,.3A6.33,6.33,0,0,0,50.3,89.07Zm5.78,1.81c.4,2.2,1.24,4.14,2.78,5a4.91,4.91,0,0,0-.77,1c-1.64-1.09-2.45-3.22-2.9-5.79Zm-2.24-2.16,1.09.33c-.27.59-.52,1.22-.74,1.66l-.9-.3A10.44,10.44,0,0,0,53.84,88.72Zm-.68-2.42h1.4v1.45h-1.4Zm-3.42.87h8.9V88.3h-8.9Zm-.81,0h1.21v3.47c0,1.8-.13,4.51-1,6.23a5,5,0,0,0-1-.76,14.24,14.24,0,0,0,.78-5.47Zm8.26,3.39,1.16.13c-.35,2.45-1.15,4.92-3.3,6.17a4.48,4.48,0,0,0-.66-.86C56.31,94.9,57,92.71,57.19,90.56Zm2.65-3.41h9.87v1.21H59.84ZM64,86.3h1.39v1.57H64Zm-3.81,3h8.63v1.16H61.49v6.41H60.21Zm7.94,0h1.3v6.13c0,.65-.14,1-.57,1.23a5,5,0,0,1-2,.24,4.69,4.69,0,0,0-.44-1.29c.59,0,1.24,0,1.43,0s.25-.06.25-.21Zm-5.11,1h1.19c-.09,1.35-.47,2.11-2.26,2.51a2.81,2.81,0,0,0-.62-.93C62.75,91.6,63,91.16,63,90.26Zm2.08,0h1.16v.85c0,.25,0,.27.23.27h.58c.18,0,.23-.08.26-.63a3.15,3.15,0,0,0,1,.39c-.12,1-.41,1.21-1.1,1.21h-.91c-1,0-1.21-.29-1.21-1.21Zm-2.53,2.51h1.19v3.54H62.59Zm.74,0H67V95.7H63.33v-1h2.48v-1H63.33Zm-1.48-4.43,1.33-.22a5.48,5.48,0,0,1,.51,1.16l-1.39.28A6.83,6.83,0,0,0,61.85,88.34Zm4.39-.24,1.49.23c-.27.49-.5.9-.71,1.2l-1.33-.22A10.79,10.79,0,0,0,66.24,88.1Z"/><g class="cls-15"><path class="cls-16" d="M63.13,58.76H35.37a3,3,0,0,1-3-3V28a3,3,0,0,1,3-3H63.13a3,3,0,0,1,3,3V55.73A3,3,0,0,1,63.13,58.76Z"/><path class="cls-6" d="M78.66,74.28H50.9a3,3,0,0,1-3-3V43.49a3,3,0,0,1,3-3H78.66a3,3,0,0,1,3,3V71.25A3,3,0,0,1,78.66,74.28Z"/><path class="cls-17" d="M50.9,40.46a3,3,0,0,0-3,3V58.75H63.14a3,3,0,0,0,3-3V40.46Z"/></g></svg>